<?xml version="1.0" encoding="UTF-8"?>
<svg version="1.1" xmlns="http://www.w3.org/2000/svg" width="474" height="266">
<path d="M0 0 C156.42 0 312.84 0 474 0 C474 87.78 474 175.56 474 266 C317.58 266 161.16 266 0 266 C0 178.22 0 90.44 0 0 Z " fill="#FDFDFD" transform="translate(0,0)"/>
<path d="M0 0 C10.12649377 6.81209083 19.03972366 15.30808883 25.3125 25.8125 C25.82039062 26.63878906 26.32828125 27.46507812 26.8515625 28.31640625 C38.47065821 48.30720937 42.56833087 70.43361793 37.34375 93.09765625 C30.80932597 116.63643371 17.47202269 136.1131641 -3.609375 149.09765625 C-17.94327006 157.08316378 -17.94327006 157.08316378 -23.5390625 156.53125 C-25.6875 155.8125 -25.6875 155.8125 -26.6875 154.8125 C-26.79816096 152.45966895 -26.84910728 150.13126834 -26.86328125 147.77734375 C-26.8865052 146.31313707 -26.91062354 144.84894436 -26.93554688 143.38476562 C-26.97047268 141.07648743 -26.99989026 138.76871365 -27.01342773 136.46020508 C-27.05460578 124.59005428 -27.05460578 124.59005428 -31.6875 113.8125 C-31.6875 113.1525 -31.6875 112.4925 -31.6875 111.8125 C-30.11162109 111.46638672 -30.11162109 111.46638672 -28.50390625 111.11328125 C-16.38313257 108.34484051 -5.52552313 104.89792349 1.5625 93.8671875 C5.49919225 86.48588954 6.6602271 79.06973142 6.625 70.8125 C6.64111328 70.05710937 6.65722656 69.30171875 6.67382812 68.5234375 C6.68090192 60.28954553 3.95462373 54.28028127 -0.796875 47.671875 C-1.95916491 45.24533993 -1.46439284 44.34786886 -0.6875 41.8125 C-0.28327891 35.14755231 -0.39659059 29.11250088 -2.6875 22.8125 C-10.34314003 22.94449379 -15.50460194 25.59080828 -21.96484375 29.4140625 C-26.18491966 30.99935859 -28.4697435 30.78513442 -32.82543945 30.16259766 C-38.4587842 29.47350644 -44.14505808 29.66946996 -49.8125 29.6875 C-51.03582031 29.68363281 -52.25914062 29.67976563 -53.51953125 29.67578125 C-60.85540118 29.66362092 -60.85540118 29.66362092 -68.12109375 30.52734375 C-72.62792692 30.88769295 -74.73276056 29.72477375 -78.625 27.5 C-83.94818155 24.58035033 -88.67281676 22.74581292 -94.6875 21.8125 C-95.54501212 24.99109757 -95.71723228 27.8443375 -95.57421875 31.10546875 C-94.90586506 46.49799938 -94.90586506 46.49799938 -100.21875 53.765625 C-105.17426343 60.67171286 -104.29542498 70.28116005 -103.22265625 78.27734375 C-101.39751076 88.22384668 -97.98696459 97.12976652 -89.7890625 103.50390625 C-82.03656828 108.33120284 -73.66833178 110.62802022 -64.6875 111.8125 C-65.6465625 113.3903125 -65.6465625 113.3903125 -66.625 115 C-68.02373202 117.39921395 -68.69106056 118.83538933 -69.125 121.625 C-69.310625 122.346875 -69.49625 123.06875 -69.6875 123.8125 C-74.88462938 126.44805493 -79.99005105 126.4530416 -85.6875 125.8125 C-91.19297122 123.43759085 -94.18900161 118.87283012 -97.66015625 114.15234375 C-100.87952761 110.43673017 -104.09450258 108.54072012 -109 108.125 C-110.216875 108.021875 -111.43375 107.91875 -112.6875 107.8125 C-111.37384387 110.84352121 -110.19054427 112.37216018 -107.5 114.25 C-102.99220704 117.88803208 -100.9743004 122.62029365 -98.55859375 127.7890625 C-95.84220364 132.17838598 -92.53002792 134.19832403 -87.6875 135.8125 C-86.35386297 135.95653348 -85.01531954 136.05840423 -83.67578125 136.12890625 C-82.91845703 136.17080078 -82.16113281 136.21269531 -81.38085938 136.25585938 C-80.59517578 136.29517578 -79.80949219 136.33449219 -79 136.375 C-77.80407227 136.43977539 -77.80407227 136.43977539 -76.58398438 136.50585938 C-74.61868553 136.61177368 -72.65311504 136.71262551 -70.6875 136.8125 C-70.63370774 139.77107409 -70.59392907 142.72867721 -70.5625 145.6875 C-70.54574219 146.52925781 -70.52898437 147.37101563 -70.51171875 148.23828125 C-70.50527344 149.04394531 -70.49882812 149.84960938 -70.4921875 150.6796875 C-70.48171387 151.42331543 -70.47124023 152.16694336 -70.46044922 152.93310547 C-70.6875 154.8125 -70.6875 154.8125 -72.6875 156.8125 C-78.90852302 156.58383537 -83.45836277 154.89586571 -88.875 151.9375 C-89.61041016 151.54038818 -90.34582031 151.14327637 -91.10351562 150.73413086 C-113.30540094 138.29732021 -127.67288423 117.9675419 -134.6875 93.8125 C-135.77966513 89.13317917 -136.3818668 84.60439188 -136.6875 79.8125 C-136.7803125 78.59820312 -136.873125 77.38390625 -136.96875 76.1328125 C-137.90791395 52.79458842 -129.01645428 31.12163835 -113.6875 13.8125 C-99.55152567 -0.6097168 -83.21998562 -9.01158928 -63.6875 -13.1875 C-63.04039062 -13.37957031 -62.39328125 -13.57164063 -61.7265625 -13.76953125 C-40.8177502 -18.05543722 -17.81684087 -10.52579936 0 0 Z " fill="#040404" transform="translate(285.6875,18.1875)"/>
<path d="M0 0 C0.78810059 -0.00128906 1.57620117 -0.00257813 2.38818359 -0.00390625 C8.60117401 0.1085692 13.72125094 1.29851812 19.1875 4.375 C19.04519192 5.79202513 18.89849254 7.2086096 18.75 8.625 C18.66878906 9.41390625 18.58757812 10.2028125 18.50390625 11.015625 C18.21115007 13.19864639 17.76685581 15.2523182 17.1875 17.375 C16.15625 17.21 15.125 17.045 14.0625 16.875 C10.06331199 16.38938431 6.08973241 16.21032272 2.0625 16.125 C0.90492187 16.09921875 -0.25265625 16.0734375 -1.4453125 16.046875 C-6.33590548 16.52345251 -9.60352015 18.16602015 -13.0625 21.625 C-18.21905293 29.7281546 -17.83422263 40.20475321 -16.3125 49.39453125 C-14.93112581 54.62962548 -13.15850442 57.92048367 -8.8125 61.375 C-4.26648272 63.64800864 2.27429597 63.06234156 7.1875 63.375 C7.1875 58.425 7.1875 53.475 7.1875 48.375 C3.5575 48.375 -0.0725 48.375 -3.8125 48.375 C-3.8125 43.755 -3.8125 39.135 -3.8125 34.375 C5.0975 34.375 14.0075 34.375 23.1875 34.375 C23.32535176 39.71547924 23.44473378 45.04978298 23.51708984 50.390625 C23.54724788 52.20659299 23.58818198 54.02241549 23.64013672 55.83789062 C23.71300124 58.44958355 23.74696367 61.05935058 23.7734375 63.671875 C23.80440521 64.48243347 23.83537292 65.29299194 23.86727905 66.12811279 C23.86861096 68.36317789 23.80089549 70.22497488 23.1875 72.375 C14.85453162 79.72030886 2.94711775 79.19726864 -7.5390625 78.60888672 C-14.83318463 77.85848197 -20.78413945 74.90689134 -25.8125 69.625 C-35.30074414 57.35970879 -35.2340981 41.55502571 -33.3515625 26.75 C-31.41341943 17.99415365 -27.84554925 10.14383712 -20.375 4.875 C-14.00199343 0.83758884 -7.36912635 -0.01250329 0 0 Z " fill="#070707" transform="translate(126.8125,183.625)"/>
<path d="M0 0 C5.28 0 10.56 0 16 0 C16 8.25 16 16.5 16 25 C18.31 24.01 20.62 23.02 23 22 C28.78825859 21.10375351 34.31542634 21.12619006 39.5 24.0625 C43.80602066 27.22263575 46.20003521 30.99746549 47.5859375 36.19921875 C48.13399213 39.90634301 48.18421203 43.57407825 48.1875 47.3125 C48.19974609 48.03373047 48.21199219 48.75496094 48.22460938 49.49804688 C48.24600181 57.44890095 46.65684981 64.45523811 42 71 C36.5705263 75.60324944 31.38447711 75.58508799 24.40234375 75.40625 C19.78884893 74.85538495 16.88885516 73.4888673 13 71 C12.34 71.99 11.68 72.98 11 74 C7.37 74 3.74 74 0 74 C0 49.58 0 25.16 0 0 Z " fill="#070707" transform="translate(333,187)"/>
<path d="M0 0 C5.28 0 10.56 0 16 0 C16 8.91 16 17.82 16 27 C22.93 27 29.86 27 37 27 C37 18.09 37 9.18 37 0 C42.28 0 47.56 0 53 0 C53 24.42 53 48.84 53 74 C47.72 74 42.44 74 37 74 C37 63.44 37 52.88 37 42 C30.07 42 23.14 42 16 42 C16 52.56 16 63.12 16 74 C10.72 74 5.44 74 0 74 C0 49.58 0 25.16 0 0 Z " fill="#060606" transform="translate(220,187)"/>
<path d="M0 0 C5.28 0 10.56 0 16 0 C16.06058594 2.57554687 16.12117188 5.15109375 16.18359375 7.8046875 C16.24536587 10.29348744 16.30876071 12.78224109 16.37231445 15.27099609 C16.4156808 17.00337626 16.45735463 18.73579963 16.49731445 20.46826172 C16.55497594 22.95553627 16.61868198 25.44259293 16.68359375 27.9296875 C16.70030624 28.70682098 16.71701874 29.48395447 16.73423767 30.28463745 C16.76473429 34.27274216 16.76473429 34.27274216 18 38 C19.85625 38.0309375 19.85625 38.0309375 21.75 38.0625 C22.44609375 38.07410156 23.1421875 38.08570313 23.859375 38.09765625 C26.03645901 37.99833672 27.89974195 37.55583752 30 37 C29.99214478 35.37203491 29.99214478 35.37203491 29.98413086 33.71118164 C29.96608164 29.69882018 29.95456829 25.68646233 29.94506836 21.67407227 C29.94002796 19.93480832 29.9331957 18.19554864 29.92456055 16.45629883 C29.91248208 13.96174063 29.90676892 11.46723827 29.90234375 8.97265625 C29.89718246 8.19036148 29.89202118 7.40806671 29.88670349 6.60206604 C29.88650774 4.73432886 29.93800306 2.86670796 30 1 C30.33 0.67 30.66 0.34 31 0 C35.95 0 40.9 0 46 0 C46 16.83 46 33.66 46 51 C42.37 51 38.74 51 35 51 C35 50.01 35 49.02 35 48 C34.36835938 48.28875 33.73671875 48.5775 33.0859375 48.875 C25.43062198 52.05184563 18.25550869 53.30819586 10 52 C5.62163295 50.07746891 2.81072168 47.9055079 0.92138672 43.46484375 C-0.23712508 39.10829913 -0.25016358 35.14874042 -0.1953125 30.6640625 C-0.1924826 29.78471039 -0.18965271 28.90535828 -0.18673706 27.99935913 C-0.17559712 25.20776406 -0.15050411 22.4164971 -0.125 19.625 C-0.1149622 17.72526507 -0.10583775 15.82552508 -0.09765625 13.92578125 C-0.07567806 9.28372893 -0.0411911 4.64191998 0 0 Z " fill="#080808" transform="translate(280,210)"/>
<path d="M0 0 C5.28 0 10.56 0 16 0 C16 4.62 16 9.24 16 14 C19.63 14 23.26 14 27 14 C27 18.62 27 23.24 27 28 C23.37 28 19.74 28 16 28 C16.33 35.92 16.66 43.84 17 52 C20.63 52.33 24.26 52.66 28 53 C28 56.63 28 60.26 28 64 C22.05606192 66.37757523 17.32654336 66.70294926 11 66 C6.00782019 63.54770115 3.20567221 60.65775918 0.9296875 55.640625 C-0.43380768 50.30122371 -0.20898943 45.11015577 -0.125 39.625 C-0.11597656 38.50738281 -0.10695312 37.38976562 -0.09765625 36.23828125 C-0.07418346 33.49196538 -0.04134728 30.74609528 0 28 C-1.7015625 28.0309375 -1.7015625 28.0309375 -3.4375 28.0625 C-7 28 -7 28 -8 27 C-8.07205511 25.31391034 -8.08386068 23.62499341 -8.0625 21.9375 C-8.05347656 21.01839844 -8.04445312 20.09929687 -8.03515625 19.15234375 C-8.02355469 18.44207031 -8.01195312 17.73179687 -8 17 C-2.25 15 -2.25 15 0 15 C0 10.05 0 5.1 0 0 Z " fill="#090909" transform="translate(186,196)"/>
<path d="M0 0 C5.28 0 10.56 0 16 0 C16 16.83 16 33.66 16 51 C11.05 51 6.1 51 1 51 C0 50 0 50 -0.12025452 47.98155212 C-0.11803391 47.09552811 -0.11581329 46.20950409 -0.11352539 45.29663086 C-0.11344986 44.29566879 -0.11337433 43.29470673 -0.11329651 42.26341248 C-0.10813522 41.1748848 -0.10297394 40.08635712 -0.09765625 38.96484375 C-0.0962413 37.85645645 -0.09482635 36.74806915 -0.09336853 35.60609436 C-0.08775033 32.04986931 -0.07519475 28.49370617 -0.0625 24.9375 C-0.05748734 22.53320403 -0.05292403 20.12890708 -0.04882812 17.72460938 C-0.03777499 11.81638223 -0.02049816 5.90820163 0 0 Z " fill="#090909" transform="translate(157,210)"/>
<path d="M0 0 C3.51809989 0.92140711 4.95530585 2.7064723 7.1328125 5.55859375 C7.55786169 8.45962879 7.70520636 10.69143803 7.5703125 13.55859375 C7.56451172 14.25726563 7.55871094 14.9559375 7.55273438 15.67578125 C7.45819968 19.68405244 7.02591272 23.00145171 5.1328125 26.55859375 C2.10248808 28.07375596 -0.51833712 27.72887428 -3.8671875 27.55859375 C-5.55041088 26.93491012 -7.22140194 26.27526113 -8.8671875 25.55859375 C-8.9539857 21.76707041 -9.00750957 17.97580079 -9.0546875 14.18359375 C-9.07982422 13.10335937 -9.10496094 12.023125 -9.13085938 10.91015625 C-9.14052734 9.87890625 -9.15019531 8.84765625 -9.16015625 7.78515625 C-9.18372192 6.35550537 -9.18372192 6.35550537 -9.20776367 4.89697266 C-9.09537354 4.12530762 -8.9829834 3.35364258 -8.8671875 2.55859375 C-5.69899994 0.44646871 -3.73499498 0.22702911 0 0 Z " fill="#F9F9F9" transform="translate(357.8671875,221.44140625)"/>
<path d="M0 0 C3 2.0625 3 2.0625 5 5 C5.7878128 9.4117517 5.52975133 11.22192774 3 14.9375 C-1.15080314 17.79117716 -3.0301078 17.7099846 -8 17 C-10.5 15.5625 -10.5 15.5625 -12 13 C-12.76004105 8.68518361 -12.73570183 5.25682396 -10.5 1.4375 C-6.99753422 -0.57641782 -3.87856287 -0.87555677 0 0 Z " fill="#090909" transform="translate(169,189)"/>
<path d="M0 0 C5.40718817 -0.57934159 8.10649656 -0.34220083 12.5 3 C13.68193081 3.98191175 14.85423174 4.97612198 16 6 C15.34 7.32 14.68 8.64 14 10 C14.99 11.485 14.99 11.485 16 13 C15.625 15.1875 15.625 15.1875 15 17 C12.45481173 16.63486751 11.31595747 16.41481533 9.7265625 14.328125 C9.36304688 13.64234375 8.99953125 12.9565625 8.625 12.25 C6.92908881 9.29668425 5.3892262 7.26623992 2.6875 5.1875 C1.800625 4.465625 0.91375 3.74375 0 3 C0 2.01 0 1.02 0 0 Z " fill="#EEEEEE" transform="translate(173,126)"/>
<path d="M0 0 C0.70125 0.28875 1.4025 0.5775 2.125 0.875 C1.135 1.535 0.145 2.195 -0.875 2.875 C-1.56600553 4.86672182 -2.23402703 6.86661804 -2.875 8.875 C-5.1828491 10.02892455 -7.34730331 10.40937166 -9.875 10.875 C-11.20833333 13.875 -11.20833333 13.875 -9.875 16.875 C-10.535 17.205 -11.195 17.535 -11.875 17.875 C-12.82375 17.545 -13.7725 17.215 -14.75 16.875 C-17.83214382 15.88871398 -18.94077811 15.74645312 -21.875 16.875 C-19.23828313 14.14283636 -16.53960373 11.77170384 -13.5 9.5 C-10.58930384 7.29550553 -8.06210825 5.08991334 -5.625 2.375 C-2.875 -0.125 -2.875 -0.125 0 0 Z " fill="#F1F1F1" transform="translate(305.875,149.125)"/>
<path d="M0 0 C-0.93590504 1.1055189 -1.87379858 2.20935453 -2.8125 3.3125 C-3.33457031 3.92738281 -3.85664063 4.54226562 -4.39453125 5.17578125 C-7.46727489 8.66719556 -7.46727489 8.66719556 -9 10 C-11.1875 9.6875 -11.1875 9.6875 -13 9 C-12.34 9 -11.68 9 -11 9 C-10.979375 8.278125 -10.95875 7.55625 -10.9375 6.8125 C-9.71486183 3.14458549 -7.86332102 2.00499834 -4.7890625 -0.1796875 C-3 -1 -3 -1 0 0 Z " fill="#0F0F0F" transform="translate(303,149)"/>
<path d="M0 0 C-0.185625 0.763125 -0.37125 1.52625 -0.5625 2.3125 C-1.22819173 5.08967375 -1.22819173 5.08967375 0 8 C-0.99 8.495 -0.99 8.495 -2 9 C-2.94875 8.67 -3.8975 8.34 -4.875 8 C-7.95714382 7.01371398 -9.06577811 6.87145312 -12 8 C-4.57142857 0 -4.57142857 0 0 0 Z " fill="#EBEBEB" transform="translate(296,158)"/>
<path d="M0 0 C0.33 0 0.66 0 1 0 C1.33 6.93 1.66 13.86 2 21 C3.65 21.33 5.3 21.66 7 22 C4 24 4 24 0 25 C0 16.75 0 8.5 0 0 Z " fill="#E2E2E2" transform="translate(349,187)"/>
<path d="M0 0 C3.67230705 3.07999946 4.56802365 5.2482602 5 10 C4.38125 9.649375 3.7625 9.29875 3.125 8.9375 C2.42375 8.628125 1.7225 8.31875 1 8 C0.01 8.495 0.01 8.495 -1 9 C-1.09765625 2.84765625 -1.09765625 2.84765625 -1 1 C-0.67 0.67 -0.34 0.34 0 0 Z " fill="#0B0B0B" transform="translate(306,38)"/>
<path d="M0 0 C3.465 1.485 3.465 1.485 7 3 C6.67 3.99 6.34 4.98 6 6 C4.35 6.33 2.7 6.66 1 7 C1 6.34 1 5.68 1 5 C0.34 5 -0.32 5 -1 5 C-0.67 3.35 -0.34 1.7 0 0 Z " fill="#EBEBEB" transform="translate(345,257)"/>
<path d="M0 0 C0.33 0 0.66 0 1 0 C1 6.27 1 12.54 1 19 C1.99 19.33 2.98 19.66 4 20 C3.01 21.32 2.02 22.64 1 24 C-0.25248502 21.49502996 -0.11374406 19.79146726 -0.09765625 16.9921875 C-0.09443359 16.00605469 -0.09121094 15.01992187 -0.08789062 14.00390625 C-0.07951172 12.97136719 -0.07113281 11.93882812 -0.0625 10.875 C-0.05798828 9.83472656 -0.05347656 8.79445312 -0.04882812 7.72265625 C-0.03701952 5.14838038 -0.02055075 2.57421854 0 0 Z " fill="#DADADA" transform="translate(202,224)"/>
<path d="M0 0 C0.66 0.33 1.32 0.66 2 1 C0.98545548 3.5363613 0.3146444 4.79351461 -2 6.3125 C-2.66 6.539375 -3.32 6.76625 -4 7 C-4.66 6.67 -5.32 6.34 -6 6 C-6 4.68 -6 3.36 -6 2 C-4.7934375 1.7834375 -4.7934375 1.7834375 -3.5625 1.5625 C-1.07896294 1.25864751 -1.07896294 1.25864751 0 0 Z " fill="#E6E6E6" transform="translate(184,18)"/>
<path d="M0 0 C0.33 0 0.66 0 1 0 C1.28875 1.134375 1.5775 2.26875 1.875 3.4375 C2.24625 4.613125 2.6175 5.78875 3 7 C3.66 7.33 4.32 7.66 5 8 C4.67 8.66 4.34 9.32 4 10 C5.32 10.33 6.64 10.66 8 11 C5.66705225 11.04241723 3.33297433 11.04092937 1 11 C0 10 0 10 -0.09765625 7.71484375 C-0.08605469 6.79832031 -0.07445312 5.88179687 -0.0625 4.9375 C-0.05347656 4.01839844 -0.04445312 3.09929687 -0.03515625 2.15234375 C-0.02355469 1.44207031 -0.01195312 0.73179687 0 0 Z " fill="#2F2F2F" transform="translate(178,213)"/>
<path d="M0 0 C1.75098126 2.62647188 3.38731308 5.28775382 5 8 C4.34 8 3.68 8 3 8 C2.67 8.66 2.34 9.32 2 10 C1.67 9.67 1.34 9.34 1 9 C0.34 9.66 -0.32 10.32 -1 11 C-0.67 7.37 -0.34 3.74 0 0 Z " fill="#DDDDDD" transform="translate(187,251)"/>
<path d="M0 0 C0.66 0.33 1.32 0.66 2 1 C-0.33846154 6.66153846 -0.33846154 6.66153846 -3.6875 8.375 C-4.450625 8.58125 -5.21375 8.7875 -6 9 C-4.68775452 5.06326356 -3.08089673 2.77280706 0 0 Z " fill="#D9D9D9" transform="translate(117,201)"/>
<path d="M0 0 C1.98 0.495 1.98 0.495 4 1 C4 1.99 4 2.98 4 4 C2.02 4.99 2.02 4.99 0 6 C-1.125 2.25 -1.125 2.25 0 0 Z " fill="#111111" transform="translate(168,200)"/>
<path d="M0 0 C0.99 0.33 1.98 0.66 3 1 C3.33 1.99 3.66 2.98 4 4 C3.34 4.66 2.68 5.32 2 6 C1.01 5.34 0.02 4.68 -1 4 C-0.67 2.68 -0.34 1.36 0 0 Z " fill="#131313" transform="translate(186,113)"/>
<path d="M0 0 C0.66 0.33 1.32 0.66 2 1 C2 2.65 2 4.3 2 6 C1.01 6.495 1.01 6.495 0 7 C-0.99 6.34 -1.98 5.68 -3 5 C-2.01 3.35 -1.02 1.7 0 0 Z " fill="#EBEBEB" transform="translate(190,62)"/>
<path d="M0 0 C2.5 1.375 2.5 1.375 5 3 C5 3.66 5 4.32 5 5 C3.68 5.33 2.36 5.66 1 6 C0.34 4.35 -0.32 2.7 -1 1 C-0.67 0.67 -0.34 0.34 0 0 Z " fill="#E9E9E9" transform="translate(282,256)"/>
<path d="M0 0 C2.475 0.495 2.475 0.495 5 1 C4.34 2.32 3.68 3.64 3 5 C2.01 5 1.02 5 0 5 C0 3.35 0 1.7 0 0 Z " fill="#121212" transform="translate(179,212)"/>
<path d="M0 0 C1.32 1.32 2.64 2.64 4 4 C3.01 4.66 2.02 5.32 1 6 C0.34 5.67 -0.32 5.34 -1 5 C-0.67 3.35 -0.34 1.7 0 0 Z " fill="#1C1C1C" transform="translate(306,38)"/>
<path d="M0 0 C1.32 0.66 2.64 1.32 4 2 C4 2.99 4 3.98 4 5 C2.02 4.34 0.04 3.68 -2 3 C-1.34 2.01 -0.68 1.02 0 0 Z " fill="#E2E2E2" transform="translate(274,9)"/>
</svg>
