<?xml version="1.0" encoding="UTF-8"?>
<svg version="1.1" xmlns="http://www.w3.org/2000/svg" width="474" height="473">
<path d="M0 0 C156.42 0 312.84 0 474 0 C474 156.09 474 312.18 474 473 C317.58 473 161.16 473 0 473 C0 316.91 0 160.82 0 0 Z " fill="#FDFDFD" transform="translate(0,0)"/>
<path d="M0 0 C100.98 0 201.96 0 306 0 C306 17.21306369 306 17.21306369 305.265625 24.4375 C305.14885406 25.6780439 305.14885406 25.6780439 305.02972412 26.94364929 C304.86266669 28.71144803 304.69255165 30.47896022 304.51953125 32.2461853 C304.04583491 37.08596523 303.59521236 41.9279259 303.140625 46.76953125 C303.04559692 47.77458206 302.95056885 48.77963287 302.85266113 49.81513977 C301.91454345 59.78293814 301.07643552 69.75838233 300.24597168 79.73562622 C298.94430344 95.35677557 297.55280032 110.96428586 296 126.5625 C294.55455886 141.096633 293.2005668 155.63632586 291.9375 170.1875 C291.852724 171.16407562 291.767948 172.14065125 291.68060303 173.14682007 C290.84588954 182.79671065 290.02884927 192.4474922 289.29296875 202.10546875 C289.21020187 203.19150642 289.21020187 203.19150642 289.12576294 204.29948425 C289.0145846 205.76005024 288.90340906 207.22061645 288.79223633 208.68118286 C287.43348762 226.50533772 285.80804742 244.30306791 284.13903046 262.10037994 C283.94015782 264.22165046 283.74180747 266.34296933 283.54351807 268.46429443 C282.15289175 283.3236496 280.73450586 298.17624648 279 313 C243.20240552 323.63525728 243.20240552 323.63525728 231 325 C231 325.66 231 326.32 231 327 C230.44199707 327.09796875 229.88399414 327.1959375 229.30908203 327.296875 C221.68660195 328.72043337 214.3121932 330.82326053 206.875 333 C186.24456522 339 186.24456522 339 181 339 C181 339.66 181 340.32 181 341 C176.81548911 342.0127944 172.62696925 343.00793368 168.4375 344 C167.25607422 344.28617187 166.07464844 344.57234375 164.85742188 344.8671875 C155.9982748 346.95169269 149.5403401 347.69362269 140.83300781 344.88671875 C137.71030935 343.90932812 134.5698917 343.08617837 131.3984375 342.28125 C129.67367187 341.84232422 129.67367187 341.84232422 127.9140625 341.39453125 C125.54734342 340.7963208 123.18015158 340.19997775 120.8125 339.60546875 C115.4406479 338.23534468 110.24011082 336.80344339 105.08837891 334.75927734 C100.33204315 333.030004 95.38935282 331.85307618 90.5 330.5625 C89.34959229 330.25538086 88.19918457 329.94826172 87.01391602 329.63183594 C80.66916435 327.94512674 74.31433144 326.31068067 67.9375 324.75 C63.2437222 323.59619479 58.6815679 322.30971656 54.12109375 320.71484375 C46.42560834 318.12133762 38.51077037 316.41624638 30.5546875 314.84375 C29.29011719 314.42609375 29.29011719 314.42609375 28 314 C26.94248194 310.82744582 26.68335951 308.1691518 26.421875 304.8359375 C26.37037292 304.19683945 26.31887085 303.55774139 26.26580811 302.89927673 C26.15183104 301.48242205 26.03946682 300.06543697 25.9284668 298.64834595 C25.61224998 294.62031257 25.28207466 290.59341652 24.953125 286.56640625 C24.8804541 285.67388657 24.8077832 284.78136688 24.73291016 283.86180115 C23.70826371 271.34081929 22.60020977 258.82702157 21.5 246.3125 C21.29654139 243.99072336 21.09309074 241.66894603 20.88964844 239.34716797 C19.2987933 221.22787297 17.6546384 203.11355393 16 185 C15.8825946 183.71443207 15.76518921 182.42886414 15.64422607 181.1043396 C15.41301269 178.57265652 15.18179122 176.04097419 14.95056152 173.5092926 C12.01864123 141.40427274 9.12655993 109.29622568 6.30963993 77.18089867 C6.00359544 73.69218786 5.6972374 70.20350468 5.390625 66.71484375 C5.33135267 66.04041607 5.27208035 65.36598839 5.21101189 64.6711235 C4.40509694 55.50937112 3.58013025 46.34956423 2.734375 37.19140625 C2.63806793 36.14619812 2.54176086 35.10098999 2.4425354 34.02410889 C2.00504037 29.28142977 1.56408028 24.53911997 1.11669922 19.79736328 C0.96572394 18.17090738 0.81483877 16.54444311 0.6640625 14.91796875 C0.59564148 14.2078212 0.52722046 13.49767365 0.45672607 12.76600647 C0.06098246 8.45763712 0 4.35873201 0 0 Z " fill="#F58233" transform="translate(89,105)"/>
<path d="M0 0 C41.58 0 83.16 0 126 0 C123.14850807 41.34663298 123.14850807 41.34663298 121.49951172 49.80517578 C120.46884885 56.39718667 120.16840989 63.0755986 119.73794556 69.72906494 C119.43741796 74.36844988 119.11648897 79.00642842 118.796875 83.64453125 C118.70017265 85.05699127 118.70017265 85.05699127 118.60151672 86.49798584 C117.92962153 96.21465601 117.13559033 105.92012162 116.3125 115.625 C116.24588165 116.41260712 116.17926331 117.20021423 116.11062622 118.01168823 C115.74394803 122.34143205 115.37378171 126.67086269 115 131 C114.34 131 113.68 131 113 131 C113.05220703 132.3921875 113.05220703 132.3921875 113.10546875 133.8125 C113.39036892 145.67202331 112.36012072 157.34333337 111.1550293 169.125 C110.21089959 178.41114487 109.51890643 187.68133753 109 197 C108.34 197 107.68 197 107 197 C107.01047363 197.60134766 107.02094727 198.20269531 107.03173828 198.82226562 C107.26328417 214.33290918 106.55484937 229.56729295 105 245 C104.34 245 103.68 245 103 245 C103.01160156 245.82242188 103.02320313 246.64484375 103.03515625 247.4921875 C103.04417969 248.60851562 103.05320312 249.72484375 103.0625 250.875 C103.07410156 251.96554687 103.08570313 253.05609375 103.09765625 254.1796875 C102.97902758 258.82044111 102.51551055 263.38888306 102 268 C101.1248877 268.21092285 100.24977539 268.4218457 99.34814453 268.63916016 C78.24016111 273.60773338 78.24016111 273.60773338 57.56884766 280.09619141 C51.30372186 282.35619907 44.72735868 284.43402314 38 284 C38 284.66 38 285.32 38 286 C37.26394531 286.12117188 36.52789062 286.24234375 35.76953125 286.3671875 C34.79371094 286.53476562 33.81789063 286.70234375 32.8125 286.875 C31.84957031 287.03742188 30.88664062 287.19984375 29.89453125 287.3671875 C27.0005858 287.91258522 27.0005858 287.91258522 24.40625 289.0625 C21.94884258 290.01993146 20.29933093 290.21353664 17.6875 290.125 C16.470625 290.08375 15.25375 290.0425 14 290 C14 290.66 14 291.32 14 292 C9.45240084 293.23324723 5.71865769 294.05466946 1 294 C0.82145019 273.50009182 0.65624414 253.00008923 0.5 232.5 C0.49405146 231.72132159 0.48810292 230.94264318 0.48197412 230.14036846 C0.0677688 175.80155901 -0.09051186 121.4653323 -0.0625 67.125 C-0.06186365 65.85335432 -0.06186365 65.85335432 -0.06121445 64.55601883 C-0.05821147 58.65648618 -0.0547135 52.75695397 -0.05078125 46.85742188 C-0.0502903 46.11826695 -0.04979935 45.37911203 -0.04929352 44.61755848 C-0.03901016 29.7450298 -0.01850328 14.87252342 0 0 Z " fill="#F79C35" transform="translate(242,131)"/>
<path d="M0 0 C29.37 0 58.74 0 89 0 C89 15 89 15 87 37 C69.84 37.33 52.68 37.66 35 38 C34.34 51.2 33.68 64.4 33 78 C49.17 78 65.34 78 82 78 C82 95.85736917 82 95.85736917 80.82641602 104.17993164 C79.81179584 111.41946095 79.47812129 118.70679979 79.0625 126 C78.12321645 142.37674521 76.63666295 158.67928887 75 175 C74.34 175 73.68 175 73 175 C73 181.93 73 188.86 73 196 C69.04 196.99 69.04 196.99 65 198 C64.67 198.33 64.34 198.66 64 199 C62.13038213 199.32438165 60.25384941 199.60925703 58.375 199.875 C53.45663566 200.65431829 49.57585545 202.02764851 45 204 C43.0279976 204.44935323 41.04723039 204.86069669 39.0625 205.25 C31.03814656 206.85832946 23.26545271 209.19400227 15.43969727 211.57519531 C14.45026123 211.87264648 13.4608252 212.17009766 12.44140625 212.4765625 C11.56170166 212.74549316 10.68199707 213.01442383 9.77563477 213.29150391 C6.57046764 214.1096405 3.27469005 214.53218714 0 215 C0 201.8 0 188.6 0 175 C7.425 173.02 7.425 173.02 15 171 C17.475 170.01 17.475 170.01 20 169 C23.49357087 168.33604773 26.98288559 167.76330861 30.49804688 167.23242188 C31.21669922 167.11576172 31.93535156 166.99910156 32.67578125 166.87890625 C33.31427002 166.7816626 33.95275879 166.68441895 34.6105957 166.58422852 C38.16919491 165.71412247 41.56982443 164.28631584 45 163 C45.99 146.83 46.98 130.66 48 114 C35.94441736 114.65523337 35.94441736 114.65523337 23.88916016 115.31640625 C22.35580561 115.39864909 20.82244037 115.48069303 19.2890625 115.5625 C18.51973389 115.60568359 17.75040527 115.64886719 16.95776367 115.69335938 C11.28026032 115.99264415 5.70602701 116 0 116 C0 77.72 0 39.44 0 0 Z " fill="#FDFDFB" transform="translate(249,169)"/>
<path d="M0 0 C10.56 0 21.12 0 32 0 C32 70.95 32 141.9 32 215 C20.75764114 212.75152823 20.75764114 212.75152823 16.0546875 211.34375 C14.53294922 210.89322266 14.53294922 210.89322266 12.98046875 210.43359375 C11.95566406 210.12550781 10.93085938 209.81742188 9.875 209.5 C1.91521178 207.09558874 1.91521178 207.09558874 -6.12109375 204.96875 C-11.64158728 203.59001647 -17.05518632 201.89093705 -22.49023438 200.2109375 C-27.95584235 198.54474754 -33.40722062 197.17386288 -39 196 C-39.04898438 194.9584375 -39.09796875 193.916875 -39.1484375 192.84375 C-39.5911258 184.1354972 -40.36844331 175.5859451 -41.52734375 166.94140625 C-42.15557207 161.70270891 -42.47428107 156.47425657 -42.75390625 151.20703125 C-42.97084453 148.37994673 -43.43655447 145.77104357 -44 143 C-44.11678799 140.32321927 -44.0454506 137.68158543 -44 135 C-38.01226114 134.78930771 -32.85857376 135.47711176 -27.0625 136.9375 C-26.29615234 137.11990234 -25.52980469 137.30230469 -24.74023438 137.49023438 C-19.14749524 138.85250476 -19.14749524 138.85250476 -18 140 C-17.84313751 141.55948542 -17.74923361 143.12542668 -17.68359375 144.69140625 C-17.62643188 145.96673218 -17.62643188 145.96673218 -17.56811523 147.26782227 C-17.52501221 148.35506592 -17.48190918 149.44230957 -17.4375 150.5625 C-17.293125 154.006875 -17.14875 157.45125 -17 161 C-9.74 162.98 -2.48 164.96 5 167 C4.49501302 139.27795609 3.41848918 111.58919264 2.20225716 83.89085674 C1.50266448 67.94015051 0.868125 51.99094038 0.41015625 36.03125 C0.38902771 35.30611898 0.36789917 34.58098797 0.34613037 33.83388329 C0.02115166 22.55108914 -0.09029833 11.28729136 0 0 Z " fill="#ECEDEC" transform="translate(202,169)"/>
<path d="M0 0 C15.84 0 31.68 0 48 0 C48 6.6 48 13.2 48 20 C43.05 20 38.1 20 33 20 C34.381875 21.69125 35.76375 23.3825 37.1875 25.125 C38.00605469 26.12789062 38.82460938 27.13078125 39.66796875 28.1640625 C41.42292446 30.29822975 43.19819723 32.40586935 45 34.5 C50.75659817 41.69574772 48 47.22593081 48 58 C32.82 58 17.64 58 2 58 C2 51.73 2 45.46 2 39 C6.62 39 11.24 39 16 39 C15.071875 37.411875 14.14375 35.82375 13.1875 34.1875 C12.66542969 33.29417969 12.14335937 32.40085938 11.60546875 31.48046875 C10.19003951 29.29361335 8.88095511 27.7657946 7 26 C-1.16996721 17.41016295 0 13.13615849 0 0 Z " fill="#050505" transform="translate(250,20)"/>
<path d="M0 0 C6.6 0 13.2 0 20 0 C20 19.47 20 38.94 20 59 C4.16 59 -11.68 59 -28 59 C-28.020625 54.565625 -28.04125 50.13125 -28.0625 45.5625 C-28.071604 44.16201416 -28.08070801 42.76152832 -28.09008789 41.31860352 C-28.09258545 40.22475342 -28.09508301 39.13090332 -28.09765625 38.00390625 C-28.10289307 36.87799072 -28.10812988 35.7520752 -28.11352539 34.59204102 C-28 32 -28 32 -27 31 C-25.58429877 30.91348389 -24.164405 30.89295096 -22.74609375 30.90234375 C-21.46508789 30.90717773 -21.46508789 30.90717773 -20.15820312 30.91210938 C-19.26037109 30.92048828 -18.36253906 30.92886719 -17.4375 30.9375 C-16.53580078 30.94201172 -15.63410156 30.94652344 -14.70507812 30.95117188 C-12.46998686 30.96299775 -10.23502563 30.9794778 -8 31 C-8 33.64 -8 36.28 -8 39 C-5.36 39 -2.72 39 0 39 C0 26.13 0 13.26 0 0 Z " fill="#0B0B0B" transform="translate(214,20)"/>
<path d="M0 0 C100.98 0 201.96 0 306 0 C306 8.88479715 305.9914553 17.32551078 305.125 26.08984375 C305.03621582 27.04524551 304.94743164 28.00064728 304.85595703 28.98500061 C304.57711271 31.96982018 304.2887698 34.95362616 304 37.9375 C303.80665487 39.98887237 303.61394212 42.04030445 303.421875 44.09179688 C302.95519193 49.06191516 302.48000185 54.03115107 302 59 C301.67 59 301.34 59 301 59 C300.72789974 47.29968897 301.27261321 35.78583261 302.28857422 24.12548828 C303.54511027 13.4450014 303.54511027 13.4450014 302 3 C299.69 3.66 297.38 4.32 295 5 C295 4.01 295 3.02 295 2 C258.50596457 2.10459965 222.0119484 2.21437509 185.51794975 2.33111694 C181.21199917 2.34488694 176.90604846 2.35861397 172.60009766 2.37231445 C171.31421186 2.37640691 171.31421186 2.37640691 170.00234857 2.38058204 C156.11172619 2.42468777 142.22109569 2.46531083 128.33045909 2.50465261 C114.08323098 2.54508165 99.83601796 2.5892399 85.58881211 2.63687855 C76.79363903 2.66616904 67.99846708 2.69253154 59.20327434 2.71517897 C53.17659504 2.73097586 47.14993422 2.75038667 41.12327543 2.77266841 C37.64337295 2.78542667 34.16348468 2.79656369 30.68356514 2.80341911 C26.91456089 2.81167291 23.14562684 2.82594771 19.37664795 2.84178162 C18.27159715 2.84275972 17.16654636 2.84373783 16.02800918 2.84474558 C15.02031045 2.85022002 14.01261173 2.85569446 12.97437668 2.8613348 C11.66889818 2.86532186 11.66889818 2.86532186 10.33704638 2.86938947 C8.09479641 2.99470211 6.15118846 3.37425263 4 4 C5.02716538 29.73998996 6.43871 55.3640022 9 81 C9.99 80.505 9.99 80.505 11 80 C11 92.87 11 105.74 11 119 C10.67 119 10.34 119 10 119 C9.93371399 118.24579773 9.86742798 117.49159546 9.7991333 116.71453857 C9.08796329 108.62435457 8.37594985 100.53424515 7.66339111 92.44418335 C7.38844113 89.32247381 7.11367458 86.20074821 6.83905029 83.07901001 C5.4854621 67.69513787 4.13136572 52.31146848 2.7109375 36.93359375 C2.61611084 35.9046701 2.52128418 34.87574646 2.42358398 33.81564331 C1.99286243 29.14782702 1.55847225 24.48039816 1.11816406 19.81347656 C0.96669895 18.18164971 0.81532552 16.54981435 0.6640625 14.91796875 C0.59561127 14.20748886 0.52716003 13.49700897 0.45663452 12.76499939 C0.06091957 8.45696428 0 4.35840212 0 0 Z " fill="#E08E51" transform="translate(89,105)"/>
<path d="M0 0 C94.71 0 189.42 0 287 0 C287 0.99 287 1.98 287 3 C191.96 3 96.92 3 -1 3 C-0.67 2.01 -0.34 1.02 0 0 Z " fill="#FC832B" transform="translate(97,107)"/>
<path d="M0 0 C0.93736714 0.00021737 1.87473429 0.00043474 2.84050649 0.00065869 C3.92024113 -0.0039401 4.99997576 -0.0085389 6.11242962 -0.01327705 C7.90612245 -0.00556171 7.90612245 -0.00556171 9.7360515 0.0023095 C10.99887246 -0.00010491 12.26169343 -0.00251933 13.56278169 -0.00500691 C17.07945932 -0.01144376 20.59602251 -0.00533435 24.11269265 0.00275737 C27.90071859 0.00931666 31.68873135 0.00438979 35.4767589 0.00087517 C42.9017537 -0.00417496 50.32670409 0.00148488 57.75169338 0.01072548 C66.38976266 0.02109088 75.02782225 0.02103979 83.66589659 0.0205529 C99.07274942 0.02005188 114.47958152 0.02922475 129.88642687 0.04373711 C144.85322758 0.05782778 159.82001005 0.06490781 174.78681749 0.06424493 C175.70870827 0.06420497 176.63059906 0.06416501 177.58042593 0.06412385 C178.50068746 0.06408349 179.42094899 0.06404314 180.36909723 0.06400156 C197.38479974 0.06331253 214.40049447 0.06919683 231.41619446 0.07815478 C237.4445622 0.08117695 243.47292852 0.08223502 249.50129694 0.08268708 C256.84201324 0.08336773 264.18271641 0.0878116 271.52342714 0.09701989 C275.2723378 0.10165131 279.02123163 0.10467846 282.77014536 0.10342568 C286.82471759 0.10213641 290.87923953 0.10855183 294.93380541 0.11583489 C296.73084432 0.11351199 296.73084432 0.11351199 298.56418705 0.11114216 C300.17987738 0.11597883 300.17987738 0.11597883 301.82820791 0.12091321 C302.7654127 0.12161763 303.70261749 0.12232206 304.66822243 0.12304783 C306.77143663 0.24954766 306.77143663 0.24954766 307.77143663 1.24954766 C307.95514879 6.53701329 307.5569694 11.44470746 306.77143663 16.68704766 C305.81695252 23.46591566 305.60879394 30.08899611 305.75776476 36.92899102 C305.79295596 38.70216658 305.78633967 40.47608554 305.77143663 42.24954766 C305.44143663 42.57954766 305.11143663 42.90954766 304.77143663 43.24954766 C302.95383927 49.89513802 302.44210377 56.60730443 302.11518663 63.46439141 C301.77143663 66.24954766 301.77143663 66.24954766 299.77143663 69.24954766 C300.88981134 46.88205353 302.87230745 24.5643155 304.77143663 2.24954766 C203.79143663 2.24954766 102.81143663 2.24954766 -1.22856337 2.24954766 C-0.23856337 11.15954766 0.75143663 20.06954766 1.77143663 29.24954766 C1.98237413 39.02298516 1.98237413 39.02298516 1.77143663 43.24954766 C1.11143663 43.24954766 0.45143663 43.24954766 -0.22856337 43.24954766 C-1.24957495 40.18651292 -1.39680708 37.94543353 -1.47465712 34.73392266 C-1.52396376 33.10390313 -1.52396376 33.10390313 -1.57426649 31.44095391 C-1.63504522 29.16239842 -1.69238545 26.88374839 -1.74614149 24.60501641 C-1.92851676 18.77589009 -2.36709666 13.77461818 -4.22856337 8.24954766 C-4.47856337 4.93704766 -4.47856337 4.93704766 -4.22856337 2.24954766 C-2.22856337 0.24954766 -2.22856337 0.24954766 0 0 Z " fill="#FEECD8" transform="translate(90.22856336832047,102.7504523396492)"/>
<path d="M0 0 C29.37 0 58.74 0 89 0 C89 15 89 15 87 37 C69.84 37.33 52.68 37.66 35 38 C34.67 43.61 34.34 49.22 34 55 C33.67 55 33.34 55 33 55 C32.97104024 51.87501937 32.95321517 48.7500731 32.9375 45.625 C32.92912109 44.73554688 32.92074219 43.84609375 32.91210938 42.9296875 C32.90888672 42.07890625 32.90566406 41.228125 32.90234375 40.3515625 C32.89710693 39.56604004 32.89187012 38.78051758 32.88647461 37.97119141 C33 36 33 36 34 34 C36.5625 33.375 36.5625 33.375 39 33 C39 33.66 39 34.32 39 35 C54.51 35 70.02 35 86 35 C86 27.41 86 19.82 86 12 C86.66 8.37 87.32 4.74 88 1 C59.62 1 31.24 1 2 1 C2 38.62 2 76.24 2 115 C3.32 115 4.64 115 6 115 C6 114.34 6 113.68 6 113 C7.21816406 112.93941406 8.43632812 112.87882812 9.69140625 112.81640625 C11.31511277 112.73193597 12.93881022 112.64729128 14.5625 112.5625 C15.36236328 112.52318359 16.16222656 112.48386719 16.98632812 112.44335938 C20.51621037 112.2560595 23.94020828 112.00924054 27.4375 111.46875 C32.12136789 110.85245159 36.71993378 110.89334711 41.4375 110.9375 C42.35982422 110.94201172 43.28214844 110.94652344 44.23242188 110.95117188 C46.48835048 110.96286062 48.74413967 110.97924545 51 111 C51.04241723 113.33294775 51.04092937 115.66702567 51 118 C50.67 118.33 50.34 118.66 50 119 C49.76244437 122.33709105 49.60425121 125.66688742 49.48242188 129.00976562 C49.29942141 132.78371861 49.08476644 135.78422667 47 139 C46.97196111 137.27093516 46.95315918 135.54172126 46.9375 133.8125 C46.92589844 132.84957031 46.91429687 131.88664063 46.90234375 130.89453125 C47.04398459 125.24589468 47.53186456 119.62976404 48 114 C46.90123535 114.06058594 45.8024707 114.12117188 44.67041016 114.18359375 C40.55174177 114.40996992 36.43288481 114.6327448 32.31396484 114.85449219 C30.53917272 114.95053142 28.76443153 115.04751703 26.98974609 115.14550781 C24.42298334 115.28706254 21.85605011 115.42509024 19.2890625 115.5625 C18.50947174 115.60624756 17.72988098 115.64999512 16.92666626 115.69506836 C11.2595012 115.99363662 5.69576575 116 0 116 C0 77.72 0 39.44 0 0 Z " fill="#FEF4D4" transform="translate(249,169)"/>
<path d="M0 0 C3.14187383 4.71281074 3.14077712 8.55342292 3.12025452 14.02946472 C3.12110894 14.85690557 3.12196337 15.68434642 3.12284368 16.53686124 C3.12449536 19.31911092 3.11898218 22.10130077 3.11352539 24.88354492 C3.11324343 26.87410989 3.11340143 28.86467496 3.1139679 30.85523987 C3.11425551 36.2681218 3.10836461 41.68098169 3.10139394 47.09385848 C3.09515439 52.7473297 3.09455612 58.40080138 3.09336853 64.05427551 C3.09025699 74.763969 3.08204598 85.47365232 3.07201904 96.18334132 C3.06085241 108.37422958 3.05534606 120.56511832 3.05032361 132.75601041 C3.03986324 157.83734592 3.02226721 182.91867239 3 208 C4.32 208 5.64 208 7 208 C7 209.32 7 210.64 7 212 C5.68 212 4.36 212 3 212 C3 215.3 3 218.6 3 222 C2.34 222 1.68 222 1 222 C1 151.05 1 80.1 1 7 C-9.56 7 -20.12 7 -31 7 C-30.67 6.34 -30.34 5.68 -30 5 C-21.09 5 -12.18 5 -3 5 C-3 4.34 -3 3.68 -3 3 C-2.01 3 -1.02 3 0 3 C0 2.01 0 1.02 0 0 Z " fill="#EA9254" transform="translate(233,162)"/>
<path d="M0 0 C10.56 0 21.12 0 32 0 C32 70.95 32 141.9 32 215 C29.69 214.67 27.38 214.34 25 214 C25 213.67 25 213.34 25 213 C26.98 213 28.96 213 31 213 C31 143.04 31 73.08 31 1 C23.08 1.33 15.16 1.66 7 2 C6.67 3.65 6.34 5.3 6 7 C5.34 7 4.68 7 4 7 C4 5.02 4 3.04 4 1 C3.01 1 2.02 1 1 1 C1.13132324 2.05687012 1.26264648 3.11374023 1.39794922 4.20263672 C3.0830609 18.48522813 3.66195687 32.75784696 4.125 47.125 C4.16735779 48.37182556 4.20971558 49.61865112 4.25335693 50.90325928 C5.10656728 76.27142776 5.22514777 101.62065004 5 127 C4.67 127 4.34 127 4 127 C3.62319556 118.21696384 3.24920222 109.43381302 2.87835789 100.65052319 C2.70589388 96.56766024 2.53262376 92.48483559 2.35717773 88.40209961 C1.60554142 70.89586249 0.90927943 53.39035018 0.40625 35.875 C0.3852379 35.15452673 0.36422581 34.43405346 0.34257698 33.69174767 C0.01864636 22.45640281 -0.08991872 11.23984038 0 0 Z " fill="#FCE1CA" transform="translate(202,169)"/>
<path d="M0 0 C0.99 0.33 1.98 0.66 3 1 C2.67 65.68 2.34 130.36 2 197 C1.34 197 0.68 197 0 197 C-1.30060589 194.39878823 -1.11657167 192.52796238 -1.10534668 189.61410522 C-1.10327461 188.46948633 -1.10120255 187.32486744 -1.09906769 186.14556313 C-1.09151207 184.88113569 -1.08395645 183.61670826 -1.07617188 182.31396484 C-1.07158979 180.96814791 -1.06740617 179.62232957 -1.063591 178.27651024 C-1.05167127 174.61216958 -1.03299861 170.94789291 -1.01249313 167.28359127 C-1.00010196 165.01863685 -0.989135 162.7536802 -0.97866821 160.48871613 C-0.92932325 149.87236633 -0.86559312 139.25612947 -0.79807091 128.63988161 C-0.76937059 124.09564908 -0.74174409 119.55141001 -0.71398926 115.00717163 C-0.66160066 106.45520995 -0.60828776 97.90325432 -0.5546174 89.3513006 C-0.49342086 79.59263302 -0.43329337 69.83395893 -0.37324238 60.07528424 C-0.24999262 40.0501822 -0.12544358 20.02508842 0 0 Z " fill="#E7EEF3" transform="translate(230,171)"/>
<path d="M0 0 C0.33 0 0.66 0 1 0 C2.03026944 6.69675136 2.10152799 13.2314676 2 20 C2.66 20 3.32 20 4 20 C4.06058594 20.84304688 4.12117188 21.68609375 4.18359375 22.5546875 C4.26738281 23.65039062 4.35117188 24.74609375 4.4375 25.875 C4.55931641 27.51082031 4.55931641 27.51082031 4.68359375 29.1796875 C4.83001703 31.94728971 4.83001703 31.94728971 6 34 C6.33 30.7 6.66 27.4 7 24 C7.66 24 8.32 24 9 24 C9 29.28 9 34.56 9 40 C8.01 40 7.02 40 6 40 C6.1546875 41.10730469 6.309375 42.21460938 6.46875 43.35546875 C7.20315332 49.22423052 7.37520758 55.1118056 7.60546875 61.01757812 C7.64285156 61.87416016 7.68023437 62.73074219 7.71875 63.61328125 C7.74904297 64.38454346 7.77933594 65.15580566 7.81054688 65.95043945 C7.94002939 68.19936346 7.94002939 68.19936346 9 71 C9.66 71.33 10.32 71.66 11 72 C11 72.66 11 73.32 11 74 C11.92232422 74.07347656 11.92232422 74.07347656 12.86328125 74.1484375 C13.67152344 74.22320312 14.47976562 74.29796875 15.3125 74.375 C16.11300781 74.44460938 16.91351563 74.51421875 17.73828125 74.5859375 C20 75 20 75 23 77 C25.47624354 77.41926449 25.47624354 77.41926449 28.125 77.5625 C32.90171607 77.90171607 32.90171607 77.90171607 34 79 C36.18019479 79.39666227 38.3696463 79.74315237 40.5625 80.0625 C41.76003906 80.23910156 42.95757812 80.41570312 44.19140625 80.59765625 C45.11824219 80.73042969 46.04507813 80.86320312 47 81 C47 81.33 47 81.66 47 82 C50.3 82.66 53.6 83.32 57 84 C57 84.99 57 85.98 57 87 C58.11375 86.95875 59.2275 86.9175 60.375 86.875 C64 87 64 87 66 89 C68.13190374 89.6036217 68.13190374 89.6036217 70.5 90 C74.77777778 90.77777778 74.77777778 90.77777778 77 93 C72.46318019 92.30900744 68.07150127 91.31941868 63.625 90.1875 C62.20968582 89.82792655 60.79431967 89.46855759 59.37890625 89.109375 C58.65719238 88.92568359 57.93547852 88.74199219 57.19189453 88.55273438 C55.03533911 88.00891153 52.87592545 87.47864613 50.71484375 86.953125 C44.43644126 85.42141445 38.22729952 83.85028433 32.12109375 81.71484375 C24.42560834 79.12133762 16.51077037 77.41624638 8.5546875 75.84375 C7.71164063 75.5653125 6.86859375 75.286875 6 75 C4.83800829 71.51402488 4.59407956 68.1703566 4.31640625 64.53515625 C4.25656555 63.79412155 4.19672485 63.05308685 4.1350708 62.28959656 C3.9409416 59.88081396 3.7516834 57.47167563 3.5625 55.0625 C3.29934928 51.76672488 3.03330406 48.47119152 2.765625 45.17578125 C2.70031082 44.36986542 2.63499664 43.56394958 2.56770325 42.73361206 C2.07482145 36.7280809 1.47428708 30.73926523 0.8125 24.75 C-0.08582875 16.47675291 -0.20913379 8.31887731 0 0 Z " fill="#E78B49" transform="translate(111,344)"/>
<path d="M0 0 C0.66 0 1.32 0 2 0 C2.66231535 12.53551934 3.21683371 25.06918592 3.63075256 37.61534119 C3.72194675 40.37809661 3.81527397 43.14077371 3.90905762 45.90344238 C4.1412853 52.75641444 4.37007355 59.6095004 4.59893799 66.46258545 C4.79364974 72.28890478 4.9897341 78.11517502 5.18751526 83.94139099 C5.27797573 86.62173337 5.3665248 89.30213398 5.45495605 91.98254395 C5.74198803 100.52614564 6.09085446 109.06185841 6.53881836 117.59863281 C6.88871784 124.30463935 7.14257875 130.98622537 7.09765625 137.703125 C7.0962413 138.56266785 7.09482635 139.42221069 7.09336853 140.30780029 C7.08793439 142.95524154 7.07542016 145.60258598 7.0625 148.25 C7.05746336 150.08593625 7.05290437 151.92187387 7.04882812 153.7578125 C7.03802048 158.1719102 7.02088166 162.58593894 7 167 C-0.65178571 166.00892857 -0.65178571 166.00892857 -4 164 C0.0284349 163.81688932 2.48375245 164.05841983 6 166 C5.18344264 142.34622438 4.35004513 118.719012 2.4375 95.125 C-0.10018017 63.48970395 -0.23442146 31.72263261 0 0 Z " fill="#E69965" transform="translate(200,169)"/>
<path d="M0 0 C1.16781006 0.00523682 2.33562012 0.01047363 3.53881836 0.01586914 C4.79887695 0.0190918 6.05893555 0.02231445 7.35717773 0.02563477 C8.6976732 0.03399136 10.03816799 0.04245632 11.37866211 0.05102539 C12.72306153 0.05603879 14.06746271 0.06060197 15.41186523 0.06469727 C18.71334151 0.07653051 22.01473014 0.09301568 25.31616211 0.11352539 C25.31616211 0.44352539 25.31616211 0.77352539 25.31616211 1.11352539 C12.44616211 2.10352539 12.44616211 2.10352539 -0.68383789 3.11352539 C-0.64462583 8.06390128 -0.64462583 8.06390128 -0.59375 13.01416016 C-0.57612015 17.47678796 -0.99936481 21.6931878 -1.68383789 26.11352539 C-1.81207185 27.88167448 -1.90075887 29.653541 -1.93383789 31.42602539 C-1.95961914 32.2677832 -1.98540039 33.10954102 -2.01196289 33.97680664 C-1.90368164 34.68192383 -1.79540039 35.38704102 -1.68383789 36.11352539 C1.42305832 38.18478953 2.13537328 38.36717587 5.6640625 38.40063477 C6.97540916 38.42075623 6.97540916 38.42075623 8.31324768 38.44128418 C9.253936 38.44656128 10.19462433 38.45183838 11.16381836 38.45727539 C12.13145615 38.47189819 13.09909393 38.486521 14.09605408 38.50158691 C18.24098603 38.56394028 22.3860674 38.60353257 26.53125 38.64526367 C29.55476763 38.67891361 32.57796337 38.72404167 35.60131836 38.76977539 C36.54403091 38.77505249 37.48674347 38.78032959 38.45802307 38.7857666 C39.76464149 38.80588806 39.76464149 38.80588806 41.09765625 38.82641602 C41.86582169 38.83370728 42.63398712 38.84099854 43.4254303 38.84851074 C45.31616211 39.11352539 45.31616211 39.11352539 47.31616211 41.11352539 C47.20721838 44.21595445 46.9762288 47.19846282 46.63647461 50.27758789 C46.54486053 51.18479584 46.45324646 52.09200378 46.3588562 53.02670288 C46.06311871 55.93179324 45.75231727 58.83504983 45.44116211 61.73852539 C45.23834713 63.70456914 45.0365115 65.67071418 44.83569336 67.63696289 C44.34055068 72.46373365 43.83189006 77.28891248 43.31616211 82.11352539 C42.65616211 82.11352539 41.99616211 82.11352539 41.31616211 82.11352539 C42.09122205 68.42759853 43.20237891 54.77593261 44.31616211 41.11352539 C28.14616211 41.11352539 11.97616211 41.11352539 -4.68383789 41.11352539 C-4.68383789 0.19812468 -4.68383789 0.19812468 0 0 Z " fill="#ECB572" transform="translate(286.683837890625,205.886474609375)"/>
<path d="M0 0 C0.33 0 0.66 0 1 0 C1.62808876 16.67107923 2.17667551 33.31397958 2 50 C-0.73044334 49.54843826 -3.45916982 49.08901691 -6.1875 48.625 C-7.34088867 48.43550781 -7.34088867 48.43550781 -8.51757812 48.2421875 C-12.57661938 47.54535638 -16.22954016 46.7378873 -20 45 C-20.01458252 44.37432129 -20.02916504 43.74864258 -20.04418945 43.10400391 C-20.11852804 40.27703598 -20.21523234 37.45126792 -20.3125 34.625 C-20.33505859 33.64015625 -20.35761719 32.6553125 -20.38085938 31.640625 C-20.41630859 30.69960938 -20.45175781 29.75859375 -20.48828125 28.7890625 C-20.51446533 27.91975098 -20.54064941 27.05043945 -20.56762695 26.15478516 C-20.81345218 23.61399973 -20.81345218 23.61399973 -24 22 C-22.02 22 -20.04 22 -18 22 C-16.81774763 28.83079148 -17.25535054 35.12631267 -18 42 C-14.47426635 42.03863818 -11.38623926 42.04191977 -8 41 C-8 41.99 -8 42.98 -8 44 C-7.34 44 -6.68 44 -6 44 C-5.0268319 41.0804957 -4.8070454 38.94555049 -4.68359375 35.89453125 C-4.64169922 34.91162109 -4.59980469 33.92871094 -4.55664062 32.91601562 C-4.51732422 31.89185547 -4.47800781 30.86769531 -4.4375 29.8125 C-4.39431641 28.77673828 -4.35113281 27.74097656 -4.30664062 26.67382812 C-4.20055634 24.1160181 -4.09849854 21.55811155 -4 19 C-3.34 19 -2.68 19 -2 19 C-2 24.28 -2 29.56 -2 35 C-1.34 35 -0.68 35 0 35 C0 23.45 0 11.9 0 0 Z " fill="#EE843E" transform="translate(204,285)"/>
<path d="M0 0 C0.33 0 0.66 0 1 0 C1.8353183 3.7584973 2.24321955 7.41394946 2.5 11.25390625 C2.5825 12.43791016 2.665 13.62191406 2.75 14.84179688 C2.91692796 17.32615433 3.08359381 19.81052941 3.25 22.29492188 C3.3325 23.47763672 3.415 24.66035156 3.5 25.87890625 C3.5721875 26.9572876 3.644375 28.03566895 3.71875 29.14672852 C3.95627866 31.5564485 4.4087163 33.6661774 5 36 C5.07708723 37.36800819 5.10803609 38.73923592 5.09765625 40.109375 C5.09282227 41.24052734 5.09282227 41.24052734 5.08789062 42.39453125 C5.07951172 43.17183594 5.07113281 43.94914062 5.0625 44.75 C5.05798828 45.54277344 5.05347656 46.33554687 5.04882812 47.15234375 C5.03708565 49.10159508 5.01915146 51.05080738 5 53 C5.845625 53.10957031 6.69125 53.21914063 7.5625 53.33203125 C14.1591105 54.25405749 19.84666929 55.49695022 26 58 C27.93515855 58.49556441 29.87098946 58.98889042 31.81225586 59.45996094 C35.43761809 60.35487236 39.02913265 61.36914922 42.625 62.375 C43.39827637 62.59051514 44.17155273 62.80603027 44.96826172 63.02807617 C51.98760118 64.98815277 58.99637425 66.98448712 66 69 C66 69.33 66 69.66 66 70 C64.64692538 70.0828413 63.29227589 70.14000368 61.9375 70.1875 C61.18339844 70.22230469 60.42929688 70.25710938 59.65234375 70.29296875 C56.744838 69.97181569 54.5518016 68.94925187 51.91137695 67.74145508 C48.58124303 66.44964045 45.15695024 66.12726172 41.625 65.75 C40.90183594 65.65976562 40.17867187 65.56953125 39.43359375 65.4765625 C37.62762013 65.26648677 35.81372152 65.12683367 34 65 C33.67 65.33 33.34 65.66 33 66 C30.46950598 66.07313567 27.96695163 66.09247527 25.4375 66.0625 C24.72658203 66.05798828 24.01566406 66.05347656 23.28320312 66.04882812 C21.52209987 66.03700864 19.76103964 66.01907263 18 66 C18 65.01 18 64.02 18 63 C20.64 62.67 23.28 62.34 26 62 C26 61.34 26 60.68 26 60 C23.36 59.67 20.72 59.34 18 59 C18 58.34 18 57.68 18 57 C17.030625 57.020625 16.06125 57.04125 15.0625 57.0625 C12 57 12 57 11 56 C8.67182036 55.63239269 6.3381615 55.29758419 4 55 C3.93941406 53.92878906 3.87882813 52.85757813 3.81640625 51.75390625 C3.73201463 50.35675609 3.64736594 48.95962143 3.5625 47.5625 C3.52318359 46.85544922 3.48386719 46.14839844 3.44335938 45.41992188 C3.52375562 41.91309581 3.52375562 41.91309581 2 39 C1.01207535 33.46030398 0.69752538 27.92733968 0.4375 22.3125 C0.3950415 21.43561523 0.35258301 20.55873047 0.30883789 19.65527344 C0.00888102 13.10088378 -0.12002518 6.56137641 0 0 Z " fill="#F0843D" transform="translate(158,312)"/>
<path d="M0 0 C0.33 0 0.66 0 1 0 C1 37.95 1 75.9 1 115 C2.65 115 4.3 115 6 115 C6 114.34 6 113.68 6 113 C7.21816406 112.93941406 8.43632812 112.87882812 9.69140625 112.81640625 C11.31511277 112.73193597 12.93881022 112.64729128 14.5625 112.5625 C15.36236328 112.52318359 16.16222656 112.48386719 16.98632812 112.44335938 C20.51621037 112.2560595 23.94020828 112.00924054 27.4375 111.46875 C32.12136789 110.85245159 36.71993378 110.89334711 41.4375 110.9375 C42.35982422 110.94201172 43.28214844 110.94652344 44.23242188 110.95117188 C46.48835048 110.96286062 48.74413967 110.97924545 51 111 C51.04241723 113.33294775 51.04092937 115.66702567 51 118 C50.67 118.33 50.34 118.66 50 119 C49.76244437 122.33709105 49.60425121 125.66688742 49.48242188 129.00976562 C49.29942141 132.78371861 49.08476644 135.78422667 47 139 C46.97196111 137.27093516 46.95315918 135.54172126 46.9375 133.8125 C46.92589844 132.84957031 46.91429687 131.88664063 46.90234375 130.89453125 C47.04398459 125.24589468 47.53186456 119.62976404 48 114 C46.90123535 114.06058594 45.8024707 114.12117188 44.67041016 114.18359375 C40.55174177 114.40996992 36.43288481 114.6327448 32.31396484 114.85449219 C30.53917272 114.95053142 28.76443153 115.04751703 26.98974609 115.14550781 C24.42298334 115.28706254 21.85605011 115.42509024 19.2890625 115.5625 C18.50947174 115.60624756 17.72988098 115.64999512 16.92666626 115.69506836 C11.2595012 115.99363662 5.69576575 116 0 116 C0 77.72 0 39.44 0 0 Z " fill="#FCDCAF" transform="translate(249,169)"/>
<path d="M0 0 C0.66 0 1.32 0 2 0 C2.06058594 1.07121094 2.12117188 2.14242187 2.18359375 3.24609375 C2.26798537 4.64324391 2.35263406 6.04037857 2.4375 7.4375 C2.47681641 8.14455078 2.51613281 8.85160156 2.55664062 9.58007812 C2.47624438 13.08690419 2.47624438 13.08690419 4 16 C4.09981214 18.6773138 4.13879875 21.32304175 4.125 24 C4.12886719 24.75023437 4.13273437 25.50046875 4.13671875 26.2734375 C4.12661053 31.87338947 4.12661053 31.87338947 3 33 C2.07436557 38.75950312 1.87038034 44.48544595 1.8125 50.3125 C1.79952881 50.98667969 1.78655762 51.66085938 1.77319336 52.35546875 C1.7656732 56.60686521 2.22238922 60.59074438 2.97265625 64.77734375 C4.06650901 70.94371356 4.43731253 76.99750814 4.625 83.25 C4.66294678 84.32886475 4.70089355 85.40772949 4.73999023 86.51928711 C5.01940408 95.01511549 5.11400418 103.50035496 5 112 C4.67 112 4.34 112 4 112 C3.95432892 111.44528519 3.90865784 110.89057037 3.86160278 110.31904602 C3.37629448 104.42781511 2.88908501 98.53674341 2.40087891 92.64575195 C2.22007462 90.46122014 2.03971974 88.27665107 1.85986328 86.09204102 C0.86107213 73.96426127 -0.16259756 61.84191898 -1.38046265 49.73384094 C-2.24266892 41.00622334 -2.310437 32.68164516 -1 24 C-0.34 24 0.32 24 1 24 C0.67 23.34 0.34 22.68 0 22 C-0.08426094 20.3325394 -0.10725143 18.66174813 -0.09765625 16.9921875 C-0.09443359 16.00605469 -0.09121094 15.01992187 -0.08789062 14.00390625 C-0.07951172 12.97136719 -0.07113281 11.93882812 -0.0625 10.875 C-0.05798828 9.83472656 -0.05347656 8.79445312 -0.04882812 7.72265625 C-0.03701952 5.14838038 -0.02055075 2.57421854 0 0 Z " fill="#F2833A" transform="translate(102,192)"/>
<path d="M0 0 C0.99 0 1.98 0 3 0 C2.34 1.65 1.68 3.3 1 5 C0.34 5 -0.32 5 -1 5 C-1.33 8.3 -1.66 11.6 -2 15 C-2.33 15 -2.66 15 -3 15 C-3 10.71 -3 6.42 -3 2 C-32.37 2 -61.74 2 -92 2 C-91.67 1.34 -91.34 0.68 -91 0 C-79.87342363 -0.15389724 -68.74678721 -0.30207803 -57.62003803 -0.4429636 C-52.45343673 -0.50856208 -47.2868768 -0.57612856 -42.12036133 -0.64819336 C-37.13430594 -0.7176686 -32.14820821 -0.78197331 -27.1620388 -0.84269524 C-25.25983446 -0.86676883 -23.35765275 -0.89270469 -21.45549965 -0.92053413 C-18.79108846 -0.95919754 -16.12667369 -0.99123618 -13.4621582 -1.02172852 C-12.67597107 -1.03467453 -11.88978394 -1.04762054 -11.07977295 -1.06095886 C-7.23545968 -1.0980052 -3.7432996 -0.86470546 0 0 Z " fill="#E2A968" transform="translate(341,167)"/>
<path d="M0 0 C5.98773886 -0.21069229 11.14142624 0.47711176 16.9375 1.9375 C17.70384766 2.11990234 18.47019531 2.30230469 19.25976562 2.49023438 C24.85250476 3.85250476 24.85250476 3.85250476 26 5 C26.15714654 6.63256758 26.25085414 8.27135338 26.31640625 9.91015625 C26.35830078 10.89951172 26.40019531 11.88886719 26.44335938 12.90820312 C26.48267578 13.94912109 26.52199219 14.99003906 26.5625 16.0625 C26.60568359 17.10728516 26.64886719 18.15207031 26.69335938 19.22851562 C26.79981225 21.81886884 26.9018276 24.40932186 27 27 C26.01 26.67 25.02 26.34 24 26 C22.80392331 21.50806756 23.08211511 17.26547377 23.4375 12.6875 C23.7159375 8.8821875 23.7159375 8.8821875 24 5 C16.74 4.34 9.48 3.68 2 3 C2 3.99 2 4.98 2 6 C4.64 6.33 7.28 6.66 10 7 C10 7.66 10 8.32 10 9 C7.69 9 5.38 9 3 9 C3 10.65 3 12.3 3 14 C4.65 14 6.3 14 8 14 C7.67 14.66 7.34 15.32 7 16 C5.68 16 4.36 16 3 16 C3.309375 17.155 3.61875 18.31 3.9375 19.5 C6.02094468 28.01235969 5.9412134 35.31187629 5 44 C2.98647966 40.61689772 2.6447008 37.78257544 2.40234375 33.87890625 C2.32306641 32.69619141 2.24378906 31.51347656 2.16210938 30.29492188 C2.08798828 29.06322266 2.01386719 27.83152344 1.9375 26.5625 C1.78274847 24.12612258 1.62529939 21.68991465 1.46484375 19.25390625 C1.399021 18.17439697 1.33319824 17.0948877 1.26538086 15.98266602 C1.022423 13.25201637 0.56804174 10.67799412 0 8 C-0.11678799 5.32321927 -0.0454506 2.68158543 0 0 Z " fill="#F9E8D8" transform="translate(158,304)"/>
<path d="M0 0 C2.64 0 5.28 0 8 0 C8 0.66 8 1.32 8 2 C9.22976562 2.19335938 10.45953125 2.38671875 11.7265625 2.5859375 C13.35941728 2.84869574 14.99222746 3.11173125 16.625 3.375 C17.83736328 3.56449219 17.83736328 3.56449219 19.07421875 3.7578125 C23.55587884 4.48653772 27.72476004 5.40889128 32 7 C32 7.66 32 8.32 32 9 C33.953125 8.93489583 35.90625 8.86979167 37.859375 8.8046875 C40 9 40 9 41.875 10 C44.74949034 11.35270134 47.09191548 11.19365401 50.25 11.125 C51.86648437 11.09792969 51.86648437 11.09792969 53.515625 11.0703125 C54.33546875 11.04710937 55.1553125 11.02390625 56 11 C56 10.34 56 9.68 56 9 C57.11375 8.84144531 58.2275 8.68289063 59.375 8.51953125 C68.08517105 7.21031608 76.37478633 5.56158705 84.6953125 2.6262207 C88.60434924 1.27939673 91.86970221 0.76561194 96 1 C93.47580407 3.52419593 91.57642137 3.78957038 88.125 4.625 C87.07570313 4.88539063 86.02640625 5.14578125 84.9453125 5.4140625 C82 6 82 6 78 6 C78 6.66 78 7.32 78 8 C73.81548911 9.0127944 69.62696925 10.00793368 65.4375 11 C64.25607422 11.28617187 63.07464844 11.57234375 61.85742188 11.8671875 C52.9982748 13.95169269 46.5403401 14.69362269 37.83300781 11.88671875 C34.71030935 10.90932812 31.5698917 10.08617837 28.3984375 9.28125 C27.24859375 8.98863281 26.09875 8.69601562 24.9140625 8.39453125 C22.54734342 7.7963208 20.18015158 7.19997775 17.8125 6.60546875 C11.71054392 5.04912714 5.83890212 3.36439493 0 1 C0 0.67 0 0.34 0 0 Z " fill="#E29658" transform="translate(192,438)"/>
<path d="M0 0 C0.33 0 0.66 0 1 0 C1.33 4.29 1.66 8.58 2 13 C3.52625 13.103125 5.0525 13.20625 6.625 13.3125 C11.09106385 13.74409441 13.98721473 14.99360736 18 17 C20.64445858 17.39687127 23.25750271 17.62154726 25.92578125 17.7890625 C28 18 28 18 29 19 C31.18019479 19.39666227 33.3696463 19.74315237 35.5625 20.0625 C37.35880859 20.32740234 37.35880859 20.32740234 39.19140625 20.59765625 C40.11824219 20.73042969 41.04507813 20.86320312 42 21 C42 21.33 42 21.66 42 22 C46.95 22.99 46.95 22.99 52 24 C52 24.99 52 25.98 52 27 C53.11375 26.95875 54.2275 26.9175 55.375 26.875 C59 27 59 27 61 29 C63.13190374 29.6036217 63.13190374 29.6036217 65.5 30 C69.77777778 30.77777778 69.77777778 30.77777778 72 33 C67.46318019 32.30900744 63.07150127 31.31941868 58.625 30.1875 C57.20968582 29.82792655 55.79431967 29.46855759 54.37890625 29.109375 C53.65719238 28.92568359 52.93547852 28.74199219 52.19189453 28.55273438 C50.03533911 28.00891153 47.87592545 27.47864613 45.71484375 26.953125 C39.43644126 25.42141445 33.22729952 23.85028433 27.12109375 21.71484375 C19.42560834 19.12133762 11.51077037 17.41624638 3.5546875 15.84375 C2.71164063 15.5653125 1.86859375 15.286875 1 15 C-0.09506492 11.71480525 -0.09960608 9.26336585 -0.0625 5.8125 C-0.05347656 4.72582031 -0.04445313 3.63914062 -0.03515625 2.51953125 C-0.02355469 1.68808594 -0.01195313 0.85664063 0 0 Z " fill="#E4904E" transform="translate(116,404)"/>
<path d="M0 0 C0.33 0 0.66 0 1 0 C2.97093625 14.09871131 4.3936547 28.15528544 5.29589844 42.36279297 C5.9700288 52.93412421 6.91755588 63.46344292 8 74 C8.99 73.505 8.99 73.505 10 73 C10 85.87 10 98.74 10 112 C9.67 112 9.34 112 9 112 C8.93149338 111.21692978 8.86298676 110.43385956 8.79240417 109.62705994 C8.13252456 102.08720889 7.47123532 94.5474832 6.80852795 87.00788021 C6.46822718 83.13576889 6.12839154 79.26361817 5.78979492 75.39135742 C5.46212384 71.64460201 5.13330465 67.8979492 4.80344009 64.15138626 C4.67119684 62.64904408 4.53918634 61.1466814 4.40740585 59.64429855 C3.69389907 51.52254425 2.95277032 43.40506671 2.13134766 35.29345703 C2.06110665 34.59406415 1.99086565 33.89467127 1.91849613 33.17408466 C1.58876245 29.89404018 1.25283317 26.61505532 0.90458679 23.3368988 C0.11185266 15.52927813 -0.15273868 7.84634424 0 0 Z " fill="#E1955D" transform="translate(90,112)"/>
<path d="M0 0 C0.33 0 0.66 0 1 0 C1.125 5.75 1.125 5.75 0 8 C-2.03125 8.81640625 -2.03125 8.81640625 -4.5 9.5625 C-7.51331493 10.32548337 -7.51331493 10.32548337 -10 12 C-12.32817964 12.36760731 -14.6618385 12.70241581 -17 13 C-16.67 13.99 -16.34 14.98 -16 16 C-20.75 17.125 -20.75 17.125 -23 16 C-24.80843663 15.85283458 -26.62331566 15.7789113 -28.4375 15.75 C-29.40558594 15.72421875 -30.37367188 15.6984375 -31.37109375 15.671875 C-34.03937716 15.73028972 -34.03937716 15.73028972 -35.4921875 17.50390625 C-37 19 -37 19 -39.69921875 19.29296875 C-40.68535156 19.25816406 -41.67148437 19.22335937 -42.6875 19.1875 C-44.17830078 19.14689453 -44.17830078 19.14689453 -45.69921875 19.10546875 C-46.45847656 19.07066406 -47.21773438 19.03585937 -48 19 C-48 18.34 -48 17.68 -48 17 C-39.0330827 14.47929992 -30.07413726 11.96344522 -21.0234375 9.7578125 C-18.68686024 9.17215877 -16.36295708 8.56246948 -14.0390625 7.9296875 C-13.3586792 7.7447876 -12.6782959 7.5598877 -11.97729492 7.36938477 C-10.0348307 6.83907227 -8.09355397 6.3044158 -6.15234375 5.76953125 C-3 5 -3 5 0 5 C0 3.35 0 1.7 0 0 Z " fill="#FEFBF2" transform="translate(368,413)"/>
<path d="M0 0 C0.33 0 0.66 0 1 0 C1.2230143 10.27104743 0.52991285 20.34592304 -0.375 30.5625 C-0.51245022 32.15915178 -0.64957368 33.75583172 -0.78637695 35.35253906 C-1.75535978 46.57847051 -2.80357781 57.79585808 -4 69 C-4.33 69 -4.66 69 -5 69 C-5.19872497 19.3452554 -5.19872497 19.3452554 0 0 Z " fill="#E58D53" transform="translate(376,307)"/>
<path d="M0 0 C0.33 0 0.66 0 1 0 C1.15586214 7.56876598 0.6759076 14.98981636 -0.0234375 22.5234375 C-0.12967438 23.70483307 -0.23591125 24.88622864 -0.34536743 26.10342407 C-0.68441675 29.86100659 -1.02971642 33.61798581 -1.375 37.375 C-1.59934551 39.85803797 -1.82330702 42.34111066 -2.046875 44.82421875 C-3.28876098 58.55733389 -4.5942684 72.28268415 -6 86 C-6.33 86 -6.66 86 -7 86 C-7.33 80.72 -7.66 75.44 -8 70 C-7.67 70 -7.34 70 -7 70 C-6.91959473 69.03513672 -6.83918945 68.07027344 -6.75634766 67.07617188 C-6.70266525 66.43205353 -6.64898285 65.78793518 -6.59367371 65.1242981 C-6.47197352 63.66375106 -6.35032176 62.20319999 -6.22871399 60.74264526 C-5.89000332 56.67550373 -5.55041431 52.6084386 -5.20922852 48.54150391 C-4.59703086 41.23468077 -3.98839076 33.92803673 -3.42578125 26.6171875 C-3.34183105 25.54662109 -3.25788086 24.47605469 -3.17138672 23.37304688 C-3.02097688 21.44503761 -2.87509491 19.5166669 -2.73486328 17.58789062 C-2.26275677 11.61157758 -1.2987541 5.85183952 0 0 Z " fill="#DE8F56" transform="translate(389,166)"/>
<path d="M0 0 C0.66 0 1.32 0 2 0 C2.93847797 5.10584518 2.86940925 9.25930085 2.0625 14.375 C1.06499413 21.18251162 0.8360902 27.80493885 0.98657227 34.67919922 C1.02155154 36.45246016 1.01490373 38.22645671 1 40 C0.505 40.495 0.505 40.495 0 41 C-1.81759736 47.64559036 -2.32933286 54.35775677 -2.65625 61.21484375 C-3 64 -3 64 -5 67 C-4.37594074 52.04341436 -3.24934991 37.16063119 -1.9375 22.25 C-1.74901761 20.07685163 -1.56086486 17.90367464 -1.37304688 15.73046875 C-0.9191474 10.48664464 -0.46124452 5.24318289 0 0 Z " fill="#FCE1C4" transform="translate(395,105)"/>
<path d="M0 0 C0.66 0 1.32 0 2 0 C2.33 4.95 2.66 9.9 3 15 C4.32 15.33 5.64 15.66 7 16 C7 16.66 7 17.32 7 18 C6.01 18.33 5.02 18.66 4 19 C3.67 20.65 3.34 22.3 3 24 C1.35 24.33 -0.3 24.66 -2 25 C-2 25.66 -2 26.32 -2 27 C-1.4225 27.144375 -0.845 27.28875 -0.25 27.4375 C1.83333333 27.95833333 3.91666667 28.47916667 6 29 C6 27.35 6 25.7 6 24 C6.66 24 7.32 24 8 24 C8 26.31 8 28.62 8 31 C6.3954444 30.85851011 4.79136233 30.71164314 3.1875 30.5625 C2.29417969 30.48128906 1.40085938 30.40007812 0.48046875 30.31640625 C-2 30 -2 30 -5 29 C-5 26.69 -5 24.38 -5 22 C-3.68 22 -2.36 22 -1 22 C-1.00523682 21.36908447 -1.01047363 20.73816895 -1.01586914 20.08813477 C-1.03657826 17.24626653 -1.04964066 14.40441412 -1.0625 11.5625 C-1.07087891 10.56927734 -1.07925781 9.57605469 -1.08789062 8.55273438 C-1.09111328 7.60849609 -1.09433594 6.66425781 -1.09765625 5.69140625 C-1.10289307 4.81685791 -1.10812988 3.94230957 -1.11352539 3.04125977 C-1 1 -1 1 0 0 Z " fill="#F3EBE5" transform="translate(168,336)"/>
<path d="M0 0 C0.33 0 0.66 0 1 0 C1.8353183 3.7584973 2.24321955 7.41394946 2.5 11.25390625 C2.5825 12.43791016 2.665 13.62191406 2.75 14.84179688 C2.91692796 17.32615433 3.08359381 19.81052941 3.25 22.29492188 C3.3325 23.47763672 3.415 24.66035156 3.5 25.87890625 C3.5721875 26.9572876 3.644375 28.03566895 3.71875 29.14672852 C3.95627866 31.5564485 4.4087163 33.6661774 5 36 C5.07708723 37.36800819 5.10803609 38.73923592 5.09765625 40.109375 C5.09282227 41.24052734 5.09282227 41.24052734 5.08789062 42.39453125 C5.07951172 43.17183594 5.07113281 43.94914062 5.0625 44.75 C5.05798828 45.54277344 5.05347656 46.33554687 5.04882812 47.15234375 C5.03708565 49.10159508 5.01915146 51.05080738 5 53 C5.845625 53.10957031 6.69125 53.21914063 7.5625 53.33203125 C14.1591105 54.25405749 19.84666929 55.49695022 26 58 C28.65357187 58.74703319 31.3135911 59.37636936 34 60 C34 60.33 34 60.66 34 61 C28.63108121 60.50130596 23.30764827 59.97772468 18 59 C18 58.34 18 57.68 18 57 C17.030625 57.020625 16.06125 57.04125 15.0625 57.0625 C12 57 12 57 11 56 C8.67182036 55.63239269 6.3381615 55.29758419 4 55 C3.93941406 53.92878906 3.87882813 52.85757813 3.81640625 51.75390625 C3.73201463 50.35675609 3.64736594 48.95962143 3.5625 47.5625 C3.52318359 46.85544922 3.48386719 46.14839844 3.44335938 45.41992188 C3.52375562 41.91309581 3.52375562 41.91309581 2 39 C1.01207535 33.46030398 0.69752538 27.92733968 0.4375 22.3125 C0.3950415 21.43561523 0.35258301 20.55873047 0.30883789 19.65527344 C0.00888102 13.10088378 -0.12002518 6.56137641 0 0 Z " fill="#E79760" transform="translate(158,312)"/>
<path d="M0 0 C0.33 0 0.66 0 1 0 C1.19390729 2.31197155 1.37996367 4.6246029 1.5625 6.9375 C1.66691406 8.22527344 1.77132813 9.51304687 1.87890625 10.83984375 C1.91886719 11.88269531 1.95882813 12.92554688 2 14 C1.67 14.33 1.34 14.66 1 15 C-0.63758964 30.87552183 -0.52995337 47.05317691 -1 63 C-2.98 63.495 -2.98 63.495 -5 64 C-4.43461682 49.34062416 -3.35866371 34.78718089 -1.9375 20.1875 C-1.7488966 18.21163167 -1.56074381 16.23572027 -1.37304688 14.25976562 C-0.9205243 9.50600107 -0.46202467 4.75285004 0 0 Z " fill="#FDEDD8" transform="translate(389,176)"/>
<path d="M0 0 C0.66 0 1.32 0 2 0 C2.03738281 1.22332031 2.07476562 2.44664062 2.11328125 3.70703125 C2.43074007 12.31551372 2.96936824 20.70379431 4.5 29.1875 C7.44368427 45.87073342 7.22667311 63.10026043 7 80 C6.67 80 6.34 80 6 80 C5.95432892 79.44528519 5.90865784 78.89057037 5.86160278 78.31904602 C5.37629448 72.42781511 4.88908501 66.53674341 4.40087891 60.64575195 C4.22007462 58.46122014 4.03971974 56.27665107 3.85986328 54.09204102 C2.8622504 41.97856839 1.84383996 29.87029857 0.61404419 17.77778625 C0.02493154 11.84179752 -0.25153969 5.96708046 0 0 Z " fill="#DD935A" transform="translate(100,224)"/>
<path d="M0 0 C0.66 0 1.32 0 2 0 C1.61314509 24.10172803 -0.72439587 48.01839014 -3 72 C-3.33 72 -3.66 72 -4 72 C-4 62.43 -4 52.86 -4 43 C-3.34 43 -2.68 43 -2 43 C-1.97494385 42.01717041 -1.9498877 41.03434082 -1.92407227 40.02172852 C-1.82911881 36.33705031 -1.72912162 32.65252255 -1.62768555 28.96801758 C-1.58466614 27.38048855 -1.54297163 25.792923 -1.50268555 24.20532227 C-1.08904092 7.97104742 -1.08904092 7.97104742 0 0 Z " fill="#FCE0B2" transform="translate(327,272)"/>
<path d="M0 0 C0.33 0 0.66 0 1 0 C1.23727494 30.09376303 1.23727494 30.09376303 0 36 C-2.80694169 38.80694169 -6.06518104 39.22404175 -9.8125 40.125 C-10.52470703 40.30675781 -11.23691406 40.48851562 -11.97070312 40.67578125 C-15.71345916 41.59675545 -19.14248422 42.22735849 -23 42 C-23 41.34 -23 40.68 -23 40 C-20.24921116 39.08307039 -18.64051087 38.89113917 -15.8125 38.9375 C-14.554375 38.958125 -13.29625 38.97875 -12 39 C-12 38.01 -12 37.02 -12 36 C-8.26940301 35.04070363 -5.73201925 35.15323933 -2 36 C-1.97494385 34.94498291 -1.9498877 33.88996582 -1.92407227 32.80297852 C-1.83015891 28.90229372 -1.72989966 25.00179375 -1.62768555 21.10131836 C-1.58427561 19.41060701 -1.54260511 17.71985009 -1.50268555 16.02905273 C-1.44512906 13.60386394 -1.38139351 11.17890585 -1.31640625 8.75390625 C-1.29969376 7.99348526 -1.28298126 7.23306427 -1.26576233 6.44960022 C-1.11387171 1.11387171 -1.11387171 1.11387171 0 0 Z " fill="#EAAF6B" transform="translate(295,296)"/>
<path d="M0 0 C0.56798309 0.32407837 1.13596619 0.64815674 1.72116089 0.98205566 C4.17988206 2.08035228 5.78584827 2.26166617 8.46142578 2.28710938 C9.33558136 2.30052368 10.20973694 2.31393799 11.11038208 2.32775879 C12.04590912 2.33303589 12.98143616 2.33831299 13.9453125 2.34375 C14.91153534 2.3583728 15.87775818 2.37299561 16.8732605 2.38806152 C21.00538076 2.45033487 25.13764864 2.49003604 29.27001953 2.53173828 C32.28694599 2.56538078 35.30354932 2.61050376 38.3203125 2.65625 C39.72967575 2.66416565 39.72967575 2.66416565 41.16751099 2.67224121 C42.03536224 2.68565552 42.9032135 2.69906982 43.79736328 2.71289062 C44.56251251 2.72018188 45.32766174 2.72747314 46.11599731 2.73498535 C48 3 48 3 50 5 C49.89105627 8.10242906 49.66006669 11.08493743 49.3203125 14.1640625 C49.18289139 15.52487442 49.18289139 15.52487442 49.04269409 16.91317749 C48.7469566 19.81826785 48.43615516 22.72152444 48.125 25.625 C47.92218502 27.59104375 47.72034939 29.55718879 47.51953125 31.5234375 C47.02438857 36.35020826 46.51572795 41.17538709 46 46 C45.34 46 44.68 46 44 46 C44.80447853 31.98513727 45.89949063 17.99425012 47 4 C45.02422974 4.01571045 45.02422974 4.01571045 43.00854492 4.03173828 C38.12771313 4.06790283 33.24689321 4.09088759 28.3659668 4.10986328 C26.25233978 4.11992894 24.1387267 4.13358257 22.02514648 4.15087891 C18.98938558 4.1751023 15.95380857 4.18647738 12.91796875 4.1953125 C11.4975251 4.21079636 11.4975251 4.21079636 10.04838562 4.22659302 C9.16769913 4.22674408 8.28701263 4.22689514 7.37963867 4.22705078 C6.60464523 4.231492 5.82965179 4.23593323 5.03117371 4.24050903 C3 4 3 4 0 2 C0 1.34 0 0.68 0 0 Z " fill="#E6A65C" transform="translate(284,242)"/>
<path d="M0 0 C0 4.29 0 8.58 0 13 C-0.33 13 -0.66 13 -1 13 C-1 9.37 -1 5.74 -1 2 C-2.7325 2.144375 -4.465 2.28875 -6.25 2.4375 C-15.28890026 3.09911023 -24.34111804 3.34995963 -33.39941406 3.60717773 C-34.57987305 3.64399658 -35.76033203 3.68081543 -36.9765625 3.71875 C-38.57105225 3.76418945 -38.57105225 3.76418945 -40.19775391 3.81054688 C-42.61198972 3.97376756 -44.68927043 4.31338321 -47 5 C-47.33 4.01 -47.66 3.02 -48 2 C-31.95291485 0.28173031 -16.1335471 -0.24342318 0 0 Z " fill="#E3A459" transform="translate(297,283)"/>
<path d="M0 0 C0.33 0 0.66 0 1 0 C1.91045211 9.08826308 2.10936905 18.12217403 2.125 27.25 C2.12951172 28.36947021 2.13402344 29.48894043 2.13867188 30.64233398 C2.13673828 31.69364502 2.13480469 32.74495605 2.1328125 33.828125 C2.13168457 34.7759082 2.13055664 35.72369141 2.12939453 36.70019531 C2 39 2 39 1 41 C-16.80434783 41.32971014 -16.80434783 41.32971014 -22 37 C-22 36.34 -22 35.68 -22 35 C-15 36 -15 36 0 40 C0 26.8 0 13.6 0 0 Z " fill="#F8E3D3" transform="translate(207,296)"/>
<path d="M0 0 C-0.66 0.99 -1.32 1.98 -2 3 C-4.2421875 3.2578125 -4.2421875 3.2578125 -6.875 3.125 C-10.15958829 2.97792888 -12.84184427 3.04520873 -16 4 C-16 4.66 -16 5.32 -16 6 C-18.10320063 6.50404808 -20.20759791 7.00310508 -22.3125 7.5 C-23.48425781 7.7784375 -24.65601563 8.056875 -25.86328125 8.34375 C-29 9 -29 9 -32 9 C-32 21.21 -32 33.42 -32 46 C-31.01 46.33 -30.02 46.66 -29 47 C-30.32 47 -31.64 47 -33 47 C-33 33.8 -33 20.6 -33 7 C-28.05 5.68 -23.1 4.36 -18 3 C-16.35 2.34 -14.7 1.68 -13 1 C-11.11528167 0.55423674 -9.21810105 0.1582639 -7.3125 -0.1875 C-6.35988281 -0.36667969 -5.40726562 -0.54585938 -4.42578125 -0.73046875 C-2 -1 -2 -1 0 0 Z " fill="#FDDFB3" transform="translate(282,337)"/>
<path d="M0 0 C0 0.66 0 1.32 0 2 C-0.99 2.33 -1.98 2.66 -3 3 C-3.33 3.66 -3.66 4.32 -4 5 C-7.62816269 6.400189 -11.41475583 6.09801152 -15.25 6.0625 C-16.51328125 6.05347656 -17.7765625 6.04445313 -19.078125 6.03515625 C-20.04234375 6.02355469 -21.0065625 6.01195312 -22 6 C-22 6.66 -22 7.32 -22 8 C-28 6.5 -28 6.5 -34 5 C-34 4.34 -34 3.68 -34 3 C-35.98 3 -37.96 3 -40 3 C-40 2.34 -40 1.68 -40 1 C-38.39536551 1.31008884 -36.79130769 1.62316287 -35.1875 1.9375 C-34.29417969 2.11152344 -33.40085938 2.28554688 -32.48046875 2.46484375 C-30 3 -30 3 -27 4 C-21.54709759 4.32194258 -17.00339745 3.4427283 -11.8125 2 C-7.78266764 0.89858691 -4.22495099 0 0 0 Z " fill="#FBE1C7" transform="translate(264,447)"/>
<path d="M0 0 C0.33 0 0.66 0 1 0 C2.75110736 12.94296746 0.87826453 24.51883022 -1.52636719 37.26513672 C-2.20171321 41.16473785 -2.61716402 45.06167672 -3 49 C-3.33 49 -3.66 49 -4 49 C-4 43.39 -4 37.78 -4 32 C-3.34 32 -2.68 32 -2 32 C-2.03480469 30.92298828 -2.03480469 30.92298828 -2.0703125 29.82421875 C-2.24556946 19.77198048 -1.17918802 9.97045581 0 0 Z " fill="#EAA04B" transform="translate(326,312)"/>
<path d="M0 0 C2.64 0 5.28 0 8 0 C8 0.66 8 1.32 8 2 C9.22976562 2.19335938 10.45953125 2.38671875 11.7265625 2.5859375 C13.35941728 2.84869574 14.99222746 3.11173125 16.625 3.375 C17.83736328 3.56449219 17.83736328 3.56449219 19.07421875 3.7578125 C23.55587884 4.48653772 27.72476004 5.40889128 32 7 C32 7.66 32 8.32 32 9 C33.155 8.9175 34.31 8.835 35.5 8.75 C40.39304621 8.71504967 43.86849494 10.53867784 48 13 C44.6072902 14.13090327 43.9311991 13.8773569 40.6640625 12.78125 C36.60044925 11.48325375 32.53363937 10.33085417 28.3984375 9.28125 C27.24859375 8.98863281 26.09875 8.69601562 24.9140625 8.39453125 C22.54734342 7.7963208 20.18015158 7.19997775 17.8125 6.60546875 C11.71054392 5.04912714 5.83890212 3.36439493 0 1 C0 0.67 0 0.34 0 0 Z " fill="#E69561" transform="translate(192,438)"/>
<path d="M0 0 C0 0.99 0 1.98 0 3 C-0.75925781 3.10957031 -1.51851563 3.21914063 -2.30078125 3.33203125 C-3.79158203 3.56986328 -3.79158203 3.56986328 -5.3125 3.8125 C-6.29863281 3.96332031 -7.28476562 4.11414063 -8.30078125 4.26953125 C-11.02663709 4.7626366 -11.02663709 4.7626366 -12.53515625 6.56640625 C-14 8 -14 8 -16.4453125 8.2578125 C-17.77175781 8.19207031 -17.77175781 8.19207031 -19.125 8.125 C-20.74899985 8.05439131 -22.37447634 8.00582625 -24 8 C-24.33 8.33 -24.66 8.66 -25 9 C-26.51928038 9.07179964 -28.04167482 9.08392007 -29.5625 9.0625 C-30.38878906 9.05347656 -31.21507812 9.04445313 -32.06640625 9.03515625 C-32.70449219 9.02355469 -33.34257812 9.01195312 -34 9 C-34 8.67 -34 8.34 -34 8 C-32.865625 7.731875 -31.73125 7.46375 -30.5625 7.1875 C-27.47146169 6.42428066 -24.49988675 5.50180765 -21.5 4.4375 C-18.51454602 3.40447094 -15.76725321 2.75978238 -12.625 2.4375 C-7.76016428 1.85036465 -5.13541796 -0.2282408 0 0 Z " fill="#E9A24B" transform="translate(322,365)"/>
<path d="M0 0 C0.33 0 0.66 0 1 0 C4.58165209 29.34541547 4.58165209 29.34541547 4 41 C3.34 41 2.68 41 2 41 C0.99915817 37.99747451 0.81845816 35.80441075 0.71875 32.66015625 C0.68136719 31.59603516 0.64398438 30.53191406 0.60546875 29.43554688 C0.57066406 28.32244141 0.53585938 27.20933594 0.5 26.0625 C0.2536369 18.42980627 -0.12510876 10.86334377 -0.89648438 3.26342773 C-0.93064453 2.51649658 -0.96480469 1.76956543 -1 1 C-0.67 0.67 -0.34 0.34 0 0 Z " fill="#FEEFD8" transform="translate(88,105)"/>
<path d="M0 0 C0.33 0 0.66 0 1 0 C1.33535762 3.93733035 1.66793947 7.87489032 2 11.8125 C2.09539062 12.93205078 2.19078125 14.05160156 2.2890625 15.20507812 C2.37929687 16.27822266 2.46953125 17.35136719 2.5625 18.45703125 C2.64628906 19.44678955 2.73007813 20.43654785 2.81640625 21.45629883 C2.94950689 23.30041522 3 25.15108652 3 27 C3.77085938 27.04898437 4.54171875 27.09796875 5.3359375 27.1484375 C6.33882813 27.22320312 7.34171875 27.29796875 8.375 27.375 C9.87160156 27.47941406 9.87160156 27.47941406 11.3984375 27.5859375 C14 28 14 28 16 30 C11.35316375 31.30692269 7.68300074 30.90638724 3 30 C1.27612305 28.84057617 1.27612305 28.84057617 0 27 C-0.34057617 24.1809082 -0.34057617 24.1809082 -0.29296875 20.80078125 C-0.28330078 19.59228516 -0.27363281 18.38378906 -0.26367188 17.13867188 C-0.23853516 15.87603516 -0.21339844 14.61339844 -0.1875 13.3125 C-0.17396484 12.03826172 -0.16042969 10.76402344 -0.14648438 9.45117188 C-0.11108199 6.30035943 -0.0616979 3.15038955 0 0 Z " fill="#FCE9CF" transform="translate(114,392)"/>
<path d="M0 0 C5.98773886 -0.21069229 11.14142624 0.47711176 16.9375 1.9375 C17.70384766 2.11990234 18.47019531 2.30230469 19.25976562 2.49023438 C24.85250476 3.85250476 24.85250476 3.85250476 26 5 C26.15714654 6.63256758 26.25085414 8.27135338 26.31640625 9.91015625 C26.35830078 10.89951172 26.40019531 11.88886719 26.44335938 12.90820312 C26.48267578 13.94912109 26.52199219 14.99003906 26.5625 16.0625 C26.60568359 17.10728516 26.64886719 18.15207031 26.69335938 19.22851562 C26.79981225 21.81886884 26.9018276 24.40932186 27 27 C26.01 26.67 25.02 26.34 24 26 C22.80399099 21.50832172 23.0814296 17.26730207 23.4375 12.6875 C23.48970703 11.94693359 23.54191406 11.20636719 23.59570312 10.44335938 C23.72450152 8.62847291 23.86143262 6.81416675 24 5 C22.64068359 4.81824219 22.64068359 4.81824219 21.25390625 4.6328125 C14.41492661 3.69200049 7.71114084 2.61993055 1 1 C1 3.31 1 5.62 1 8 C0.67 8 0.34 8 0 8 C0 5.36 0 2.72 0 0 Z " fill="#F4C8A9" transform="translate(158,304)"/>
<path d="M0 0 C0.99 0 1.98 0 3 0 C3 2.64 3 5.28 3 8 C2.34 8 1.68 8 1 8 C1 13.28 1 18.56 1 24 C0.01 24 -0.98 24 -2 24 C-2.33 18.72 -2.66 13.44 -3 8 C-2.34 8 -1.68 8 -1 8 C-1.020625 6.865625 -1.04125 5.73125 -1.0625 4.5625 C-1 1 -1 1 0 0 Z " fill="#FE9B29" transform="translate(347,168)"/>
<path d="M0 0 C0.33 0 0.66 0 1 0 C1.125 5.75 1.125 5.75 0 8 C-5.58497113 10.71455573 -11.38768345 11.3994135 -17.51953125 11.69140625 C-20.11922514 12.01483273 -21.68694543 12.83183763 -24 14 C-26.140625 14.1953125 -26.140625 14.1953125 -28.25 14.125 C-30.10625 14.063125 -30.10625 14.063125 -32 14 C-29.57771358 11.57771358 -28.12760916 11.38555136 -24.8125 10.625 C-18.5489593 9.14631908 -12.35583006 7.47885101 -6.15234375 5.76953125 C-3 5 -3 5 0 5 C0 3.35 0 1.7 0 0 Z " fill="#FBE0C4" transform="translate(368,413)"/>
<path d="M0 0 C0.66 0 1.32 0 2 0 C2.02717692 2.06242617 2.0464758 4.12495703 2.0625 6.1875 C2.07410156 7.33605469 2.08570313 8.48460937 2.09765625 9.66796875 C2.01158538 12.60470675 1.61577407 15.14272308 1 18 C-2.93557529 19.17322847 -6.87375727 20.33745371 -10.8125 21.5 C-11.93205078 21.83386719 -13.05160156 22.16773438 -14.20507812 22.51171875 C-15.27822266 22.82753906 -16.35136719 23.14335937 -17.45703125 23.46875 C-18.9416687 23.90864258 -18.9416687 23.90864258 -20.45629883 24.35742188 C-23 25 -23 25 -26 25 C-25.505 23.515 -25.505 23.515 -25 22 C-24.35933594 21.87882812 -23.71867187 21.75765625 -23.05859375 21.6328125 C-19.10451141 20.86674588 -15.24329422 20.07131038 -11.375 18.9375 C-8 18 -8 18 0 17 C0 11.39 0 5.78 0 0 Z " fill="#DD925D" transform="translate(367,400)"/>
<path d="M0 0 C1.98 0 3.96 0 6 0 C7.17402193 7.33763707 7.09377123 14.58165418 7 22 C8.65 22 10.3 22 12 22 C12.33 22.66 12.66 23.32 13 24 C13.99 24.66 14.98 25.32 16 26 C11.65636456 25.48898407 8.01668054 24.70656894 4 23 C3.98541748 22.37432129 3.97083496 21.74864258 3.95581055 21.10400391 C3.88147196 18.27703598 3.78476766 15.45126792 3.6875 12.625 C3.66494141 11.64015625 3.64238281 10.6553125 3.61914062 9.640625 C3.58369141 8.69960938 3.54824219 7.75859375 3.51171875 6.7890625 C3.48553467 5.91975098 3.45935059 5.05043945 3.43237305 4.15478516 C3.18654782 1.61399973 3.18654782 1.61399973 0 0 Z " fill="#E18849" transform="translate(180,307)"/>
<path d="M0 0 C0.99 0 1.98 0 3 0 C3.62825257 13.34034171 4.17678395 26.64299051 4 40 C3.67 40 3.34 40 3 40 C2.56515916 36.07216902 2.13830385 32.14355308 1.71826172 28.21411133 C1.50501853 26.23409827 1.28578423 24.25473336 1.06640625 22.27539062 C0.27318768 14.81535884 -0.21130272 7.50222493 0 0 Z " fill="#E0915C" transform="translate(107,304)"/>
<path d="M0 0 C0.33 0 0.66 0 1 0 C1 11.22 1 22.44 1 34 C10.55767371 33.23579766 10.55767371 33.23579766 20 32 C17.10592285 33.53372752 14.25407684 34.65995761 11.125 35.625 C9.89136719 36.01558594 9.89136719 36.01558594 8.6328125 36.4140625 C6 37 6 37 0 37 C0 24.79 0 12.58 0 0 Z " fill="#FEF8E0" transform="translate(250,346)"/>
<path d="M0 0 C7.23766805 0.44322193 13.7298144 1.86114815 20.625 4.0625 C21.53378906 4.34416016 22.44257813 4.62582031 23.37890625 4.91601562 C25.58873894 5.60222683 27.79548541 6.29692992 30 7 C30 7.33 30 7.66 30 8 C24.71582085 8.32352117 20.86519157 8.21384578 16.03125 5.796875 C12.36188081 4.35735324 8.4586733 3.98530584 4.57421875 3.4296875 C2 3 2 3 0 2 C0 1.34 0 0.68 0 0 Z " fill="#E09058" transform="translate(194,374)"/>
<path d="M0 0 C0 0.99 0 1.98 0 3 C-10.56 3 -21.12 3 -32 3 C-31.67 2.34 -31.34 1.68 -31 1 C-26.5833785 0.83212195 -22.16669597 0.66590635 -17.75 0.5 C-16.49574219 0.45230469 -15.24148437 0.40460938 -13.94921875 0.35546875 C-12.74394531 0.31035156 -11.53867188 0.26523438 -10.296875 0.21875 C-9.18666992 0.17685547 -8.07646484 0.13496094 -6.93261719 0.09179688 C-4.6226736 0.01949095 -2.31107497 0 0 0 Z " fill="#D99360" transform="translate(234,166)"/>
<path d="M0 0 C0.66 0.33 1.32 0.66 2 1 C2 3.64 2 6.28 2 9 C1.34 9 0.68 9 0 9 C0 14.28 0 19.56 0 25 C-0.66 25 -1.32 25 -2 25 C-2 17.08 -2 9.16 -2 1 C-1.34 0.67 -0.68 0.34 0 0 Z " fill="#F29B41" transform="translate(344,167)"/>
<path d="M0 0 C0.99644531 0.15597656 1.99289063 0.31195313 3.01953125 0.47265625 C8.18090437 1.21185114 13.3698954 1.37526139 18.57421875 1.62109375 C21.63903724 1.96007595 23.42468581 2.38961366 26 4 C26 4.99 26 5.98 26 7 C24.41590006 6.88512252 22.83271037 6.75765492 21.25 6.625 C20.36828125 6.55539062 19.4865625 6.48578125 18.578125 6.4140625 C15.95368905 5.99256218 14.34242281 5.20670266 12 4 C9.92841208 3.41501792 7.84357192 2.87563676 5.75 2.375 C4.67234375 2.11460937 3.5946875 1.85421875 2.484375 1.5859375 C1.66453125 1.39257812 0.8446875 1.19921875 0 1 C0 0.67 0 0.34 0 0 Z " fill="#F8DCC6" transform="translate(178,368)"/>
<path d="M0 0 C0.33 0 0.66 0 1 0 C1.62808876 16.67107923 2.17667551 33.31397958 2 50 C1.34 49.67 0.68 49.34 0 49 C0.33 45.04 0.66 41.08 1 37 C0.01 37 -0.98 37 -2 37 C-2 36.34 -2 35.68 -2 35 C-1.34 35 -0.68 35 0 35 C0 23.45 0 11.9 0 0 Z " fill="#E68539" transform="translate(204,285)"/>
<path d="M0 0 C0.33 0 0.66 0 1 0 C1.02684312 2.81256281 1.04676188 5.62487241 1.0625 8.4375 C1.07087891 9.23994141 1.07925781 10.04238281 1.08789062 10.86914062 C1.0965143 12.91295221 1.0522815 14.95683902 1 17 C0.67 17.33 0.34 17.66 0 18 C-1.81759736 24.64559036 -2.32933286 31.35775677 -2.65625 38.21484375 C-3 41 -3 41 -5 44 C-4.88869202 40.83269988 -4.7584174 37.66643974 -4.625 34.5 C-4.5940625 33.613125 -4.563125 32.72625 -4.53125 31.8125 C-4.28680022 26.27163824 -3.53261755 21.33301067 -2 16 C-1.34 16 -0.68 16 0 16 C0 10.72 0 5.44 0 0 Z " fill="#FCEAD0" transform="translate(395,128)"/>
<path d="M0 0 C0 5.28 0 10.56 0 16 C-1.32 16 -2.64 16 -4 16 C-4.08075665 13.70890403 -4.13907731 11.41700733 -4.1875 9.125 C-4.22230469 7.84882813 -4.25710938 6.57265625 -4.29296875 5.2578125 C-4.19628906 4.18273437 -4.09960938 3.10765625 -4 2 C-1 0 -1 0 0 0 Z " fill="#FC9B2A" transform="translate(334,335)"/>
<path d="M0 0 C0.33 0 0.66 0 1 0 C3.41141177 10.11388236 4.12262674 18.63729162 3 29 C-1.72532053 20.83633648 -0.13233209 9.1162105 0 0 Z " fill="#FCE0CC" transform="translate(160,319)"/>
<path d="M0 0 C3.96 0 7.92 0 12 0 C12 0.66 12 1.32 12 2 C14.31 2 16.62 2 19 2 C19 2.66 19 3.32 19 4 C12.55929529 4.10655578 6.37358711 3.96205088 0 3 C0 2.01 0 1.02 0 0 Z " fill="#EE872D" transform="translate(205,438)"/>
<path d="M0 0 C2.12493141 -0.02693575 4.24995912 -0.04636628 6.375 -0.0625 C7.55835938 -0.07410156 8.74171875 -0.08570313 9.9609375 -0.09765625 C13 0 13 0 15 1 C15 1.66 15 2.32 15 3 C11.68929162 4.00109515 8.69915231 4.10356134 5.25 4.0625 C4.26515625 4.05347656 3.2803125 4.04445313 2.265625 4.03515625 C1.51796875 4.02355469 0.7703125 4.01195312 0 4 C0 2.68 0 1.36 0 0 Z " fill="#FC8128" transform="translate(256,434)"/>
<path d="M0 0 C0.33 0 0.66 0 1 0 C1.33 4.29 1.66 8.58 2 13 C3.485 13.0825 4.97 13.165 6.5 13.25 C11.8049573 13.75631359 15.40414692 15.3616399 20 18 C16.67424363 19.12865035 14.87796829 18.8691177 11.625 17.625 C8.08853571 16.34485838 4.74690769 15.48037278 1 15 C-0.09506492 11.71480525 -0.09960608 9.26336585 -0.0625 5.8125 C-0.05347656 4.72582031 -0.04445313 3.63914062 -0.03515625 2.51953125 C-0.02355469 1.68808594 -0.01195313 0.85664063 0 0 Z " fill="#DF9C6B" transform="translate(116,404)"/>
<path d="M0 0 C0.66 0 1.32 0 2 0 C2 4.95 2 9.9 2 15 C0.68 15 -0.64 15 -2 15 C-1.85973717 12.68715544 -1.71264442 10.37472409 -1.5625 8.0625 C-1.48128906 6.77472656 -1.40007812 5.48695313 -1.31640625 4.16015625 C-1 1 -1 1 0 0 Z " fill="#E5EEF6" transform="translate(172,336)"/>
<path d="M0 0 C-2.05962852 0.67548578 -4.12284322 1.34004312 -6.1875 2 C-7.33605469 2.37125 -8.48460937 2.7425 -9.66796875 3.125 C-12.64320812 3.90630553 -14.95283896 4.18363306 -18 4 C-18 4.66 -18 5.32 -18 6 C-20.31 6 -22.62 6 -25 6 C-24.34 5.67 -23.68 5.34 -23 5 C-23 4.34 -23 3.68 -23 3 C-5.50790068 -1.56690278 -5.50790068 -1.56690278 0 0 Z " fill="#E38B4C" transform="translate(338,426)"/>
<path d="M0 0 C-0.33 1.32 -0.66 2.64 -1 4 C-5.62 4 -10.24 4 -15 4 C-14.67 3.01 -14.34 2.02 -14 1 C-9.27685687 0.22887459 -4.78478822 -0.09764874 0 0 Z " fill="#FB8128" transform="translate(192,378)"/>
<path d="M0 0 C1.32 0 2.64 0 4 0 C4 1.32 4 2.64 4 4 C3.01 4 2.02 4 1 4 C1.33 6.31 1.66 8.62 2 11 C-0.76276177 10.47731534 -3.3260876 9.89130413 -6 9 C-6 8.34 -6 7.68 -6 7 C-4.35 6.67 -2.7 6.34 -1 6 C-1.020625 5.195625 -1.04125 4.39125 -1.0625 3.5625 C-1 1 -1 1 0 0 Z " fill="#E3F0F4" transform="translate(172,354)"/>
<path d="M0 0 C0.33 0 0.66 0 1 0 C1.08696177 3.93736123 1.14037835 7.87447628 1.1875 11.8125 C1.21263672 12.93205078 1.23777344 14.05160156 1.26367188 15.20507812 C1.27333984 16.27822266 1.28300781 17.35136719 1.29296875 18.45703125 C1.3086792 19.44678955 1.32438965 20.43654785 1.34057617 21.45629883 C0.95047123 24.3699213 0.27991712 25.22497802 -2 27 C-2.34915606 17.84435229 -1.27041977 9.04039783 0 0 Z " fill="#FEF6E2" transform="translate(297,304)"/>
<path d="M0 0 C1.58294782 -0.05437607 3.16644256 -0.09296271 4.75 -0.125 C5.63171875 -0.14820313 6.5134375 -0.17140625 7.421875 -0.1953125 C10.1135858 0.00860498 11.69904974 0.63448279 14 2 C14 2.66 14 3.32 14 4 C9.38 4 4.76 4 0 4 C0 2.68 0 1.36 0 0 Z " fill="#E6EEF7" transform="translate(161,314)"/>
<path d="M0 0 C0.33 0 0.66 0 1 0 C1.19390729 2.31197155 1.37996367 4.6246029 1.5625 6.9375 C1.66691406 8.22527344 1.77132813 9.51304687 1.87890625 10.83984375 C1.91886719 11.88269531 1.95882813 12.92554688 2 14 C1.67 14.33 1.34 14.66 1 15 C0.76298761 17.85877909 0.57780818 20.69883297 0.4375 23.5625 C0.39431641 24.36880859 0.35113281 25.17511719 0.30664062 26.00585938 C0.20024738 28.00368805 0.09959112 30.0018207 0 32 C-0.66 32 -1.32 32 -2 32 C-2.39389482 21.23354159 -1.18260948 10.68572134 0 0 Z " fill="#FDE3C5" transform="translate(389,176)"/>
<path d="M0 0 C-2.61174087 1.74116058 -4.16423672 2.47244488 -7.08984375 3.2890625 C-7.87423828 3.50820313 -8.65863281 3.72734375 -9.46679688 3.953125 C-10.28212891 4.17484375 -11.09746094 4.3965625 -11.9375 4.625 C-12.74896484 4.85445313 -13.56042969 5.08390625 -14.39648438 5.3203125 C-18.15641258 6.3566832 -21.04534024 7 -25 7 C-25 6.34 -25 5.68 -25 5 C-22.36 4.67 -19.72 4.34 -17 4 C-17 3.34 -17 2.68 -17 2 C-15.10507994 1.66151348 -13.20901534 1.32943089 -11.3125 1 C-9.72888672 0.7215625 -9.72888672 0.7215625 -8.11328125 0.4375 C-5.35095938 0.04931926 -2.78257957 -0.08259976 0 0 Z " fill="#DC8A50" transform="translate(313,432)"/>
<path d="M0 0 C0.33 0 0.66 0 1 0 C2.91116587 10.24661217 0.85171173 19.90450949 -1 30 C-1.33 30 -1.66 30 -2 30 C-2 24.39 -2 18.78 -2 13 C-1.34 13 -0.68 13 0 13 C0 8.71 0 4.42 0 0 Z " fill="#ECAB5A" transform="translate(324,331)"/>
<path d="M0 0 C-0.61875 0.28875 -1.2375 0.5775 -1.875 0.875 C-4.13325765 1.93720042 -4.13325765 1.93720042 -6 4 C-8.3828125 4.1953125 -8.3828125 4.1953125 -11.125 4.125 C-12.49011719 4.09792969 -12.49011719 4.09792969 -13.8828125 4.0703125 C-14.58148438 4.04710937 -15.28015625 4.02390625 -16 4 C-16 4.66 -16 5.32 -16 6 C-18.64 6 -21.28 6 -24 6 C-16.7862715 2.10353351 -8.23898515 -0.76641722 0 0 Z " fill="#F9DBC0" transform="translate(320,432)"/>
<path d="M0 0 C1.32 0 2.64 0 4 0 C4 1.32 4 2.64 4 4 C3.01 4 2.02 4 1 4 C1 4.99 1 5.98 1 7 C3.64 7 6.28 7 9 7 C9 7.33 9 7.66 9 8 C7.58376784 8.05447047 6.16691809 8.09300508 4.75 8.125 C3.96109375 8.14820313 3.1721875 8.17140625 2.359375 8.1953125 C-0.20731941 7.9828378 -1.7916067 7.28654105 -4 6 C-2.84826645 3.53199953 -1.95216435 1.95216435 0 0 Z " fill="#ED843B" transform="translate(204,434)"/>
<path d="M0 0 C0.94875 0.04125 1.8975 0.0825 2.875 0.125 C-1.8337893 3.26419287 -5.65991296 4.57298369 -11.25 5.6875 C-15.82287879 6.50746364 -15.82287879 6.50746364 -20.125 8.125 C-22.12460012 8.164992 -24.12547242 8.16846799 -26.125 8.125 C-20.59849143 5.24972189 -14.90586288 3.19679567 -8.6875 2.5625 C-4.57533269 2.057497 -4.0219401 0.1608776 0 0 Z " fill="#FCEFD3" transform="translate(298.125,368.875)"/>
<path d="M0 0 C-1.65883579 2.28804937 -2.62283307 3.56463437 -5 5 C-8.70298665 5.44207004 -12.28831877 5.29251428 -16 5 C-16 4.34 -16 3.68 -16 3 C-14.27318563 2.49193553 -12.54342021 1.99389533 -10.8125 1.5 C-9.84957031 1.2215625 -8.88664062 0.943125 -7.89453125 0.65625 C-5.14654124 0.03322392 -2.80401584 -0.12302812 0 0 Z " fill="#F9DFC5" transform="translate(336,427)"/>
<path d="M0 0 C0.99 0.33 1.98 0.66 3 1 C2.01 8.59 1.02 16.18 0 24 C-0.33 24 -0.66 24 -1 24 C-1.11547323 15.92970447 -0.90041311 8.02332397 0 0 Z " fill="#E4A144" transform="translate(328,288)"/>
<path d="M0 0 C0 2.31 0 4.62 0 7 C-0.99 7.495 -0.99 7.495 -2 8 C-2 6.02 -2 4.04 -2 2 C-7.94 2.33 -13.88 2.66 -20 3 C-20 2.67 -20 2.34 -20 2 C-13.2168636 0.57997892 -6.93302093 -0.22731216 0 0 Z " fill="#FDECC6" transform="translate(300,280)"/>
<path d="M0 0 C2.64 0 5.28 0 8 0 C8 0.66 8 1.32 8 2 C8.90363281 2.10957031 9.80726563 2.21914063 10.73828125 2.33203125 C11.91777344 2.49058594 13.09726563 2.64914062 14.3125 2.8125 C15.48425781 2.96332031 16.65601563 3.11414063 17.86328125 3.26953125 C20.99420274 3.99864995 22.09645193 4.49171464 24 7 C15.59354948 6.22162495 7.96300327 3.72418533 0 1 C0 0.67 0 0.34 0 0 Z " fill="#E79E6E" transform="translate(192,438)"/>
<path d="M0 0 C8.02770189 0.55363461 15.33854067 2.65687944 23 5 C23 5.33 23 5.66 23 6 C20.35319096 5.88660796 17.70822482 5.75987127 15.0625 5.625 C14.30775391 5.5940625 13.55300781 5.563125 12.77539062 5.53125 C10.84492605 5.4273685 8.92057919 5.22104386 7 5 C6.67 4.34 6.34 3.68 6 3 C4.02111039 2.27306096 2.02045442 1.60183749 0 1 C0 0.67 0 0.34 0 0 Z " fill="#F9E1C5" transform="translate(173,434)"/>
<path d="M0 0 C2.4814731 0.44791933 4.9596645 0.90773818 7.4375 1.375 C8.14455078 1.50132812 8.85160156 1.62765625 9.58007812 1.7578125 C11.40052 2.10622243 13.20271648 2.547043 15 3 C15.33 3.66 15.66 4.32 16 5 C9.86946489 5.32712342 5.37330889 5.39366878 0 2 C0 1.34 0 0.68 0 0 Z " fill="#FEEED6" transform="translate(130,422)"/>
<path d="M0 0 C7.3980335 1.77552804 14.69302596 3.88590358 22 6 C22 6.33 22 6.66 22 7 C16.63108121 6.50130596 11.30764827 5.97772468 6 5 C6 4.34 6 3.68 6 3 C5.195625 2.87625 4.39125 2.7525 3.5625 2.625 C2.716875 2.41875 1.87125 2.2125 1 2 C0.67 1.34 0.34 0.68 0 0 Z " fill="#E1975E" transform="translate(170,366)"/>
<path d="M0 0 C1.134375 0.020625 2.26875 0.04125 3.4375 0.0625 C-1.0556289 3.05791927 -4.43878261 4.3697604 -9.8125 5.1875 C-10.89015625 5.35507812 -11.9678125 5.52265625 -13.078125 5.6953125 C-13.89796875 5.81648438 -14.7178125 5.93765625 -15.5625 6.0625 C-15.5625 5.4025 -15.5625 4.7425 -15.5625 4.0625 C-14.78003906 3.85753906 -13.99757812 3.65257812 -13.19140625 3.44140625 C-12.17949219 3.17199219 -11.16757813 2.90257812 -10.125 2.625 C-9.11566406 2.35816406 -8.10632813 2.09132813 -7.06640625 1.81640625 C-1.09763514 0.01925676 -1.09763514 0.01925676 0 0 Z " fill="#E1A650" transform="translate(265.5625,337.9375)"/>
<path d="M0 0 C4.95 0 9.9 0 15 0 C15 0.66 15 1.32 15 2 C11.7 2 8.4 2 5 2 C4.67 2.99 4.34 3.98 4 5 C2 3.625 2 3.625 0 2 C0 1.34 0 0.68 0 0 Z " fill="#BBBBBB" transform="translate(283,40)"/>
<path d="M0 0 C2.64 0 5.28 0 8 0 C8 0.66 8 1.32 8 2 C6.12922332 2.53580497 4.2531083 3.05298887 2.375 3.5625 C1.33085937 3.85253906 0.28671875 4.14257812 -0.7890625 4.44140625 C-4.19022902 5.03309337 -6.65448342 4.75851802 -10 4 C-10 3.67 -10 3.34 -10 3 C-6.7 2.67 -3.4 2.34 0 2 C0 1.34 0 0.68 0 0 Z " fill="#E0884C" transform="translate(248,447)"/>
<path d="M0 0 C1.1446875 0.2475 1.1446875 0.2475 2.3125 0.5 C5.03596236 1.09145396 5.03596236 1.09145396 8 1 C7.34 2.65 6.68 4.3 6 6 C5.34 6 4.68 6 4 6 C3.67 9.3 3.34 12.6 3 16 C2.67 16 2.34 16 2 16 C2 11.05 2 6.1 2 1 C1.34 0.67 0.68 0.34 0 0 Z " fill="#ECA74B" transform="translate(336,166)"/>
<path d="M0 0 C0 0.66 0 1.32 0 2 C-0.99 2.33 -1.98 2.66 -3 3 C-3.33 3.66 -3.66 4.32 -4 5 C-7.56454416 6.37097852 -11.23355995 6.07243154 -15 6 C-12 4 -12 4 -8 4 C-8 3.01 -8 2.02 -8 1 C-5.10765685 0.17361624 -3.11257569 0 0 0 Z " fill="#FBECDC" transform="translate(264,447)"/>
<path d="M0 0 C0.99 0 1.98 0 3 0 C3 3.96 3 7.92 3 12 C2.01 12 1.02 12 0 12 C0 8.04 0 4.08 0 0 Z " fill="#F9822A" transform="translate(202,322)"/>
<path d="M0 0 C1.45792884 -0.05399736 2.91642712 -0.09279177 4.375 -0.125 C5.18710938 -0.14820313 5.99921875 -0.17140625 6.8359375 -0.1953125 C9 0 9 0 11 2 C13.13190374 2.6036217 13.13190374 2.6036217 15.5 3 C19.77777778 3.77777778 19.77777778 3.77777778 22 6 C17.11899811 5.26861959 12.39975848 4.15925104 7.625 2.9375 C6.88894531 2.75123047 6.15289062 2.56496094 5.39453125 2.37304688 C3.59580556 1.91752543 1.79782471 1.4590645 0 1 C0 0.67 0 0.34 0 0 Z " fill="#DF945B" transform="translate(166,431)"/>
<path d="M0 0 C7.03128878 0.43384548 13.329015 1.74321997 20 4 C20 4.33 20 4.66 20 5 C17.58240563 4.76715792 15.16584045 4.52784993 12.75 4.27734375 C11.04342817 4.1052321 9.33512681 3.94860355 7.625 3.81640625 C5.5 3.625 5.5 3.625 2 3 C1.34 2.01 0.68 1.02 0 0 Z " fill="#FCE4CB" transform="translate(150,428)"/>
<path d="M0 0 C10.15317287 -0.63019694 10.15317287 -0.63019694 13.6875 2 C14.120625 2.66 14.55375 3.32 15 4 C11.8568669 5.57156655 9.634536 4.11705576 6.375 3.0625 C4.59222656 2.49208984 4.59222656 2.49208984 2.7734375 1.91015625 C1.85820312 1.60980469 0.94296875 1.30945313 0 1 C0 0.67 0 0.34 0 0 Z " fill="#F7DEC3" transform="translate(204,375)"/>
<path d="M0 0 C0.33 0 0.66 0 1 0 C1 1.98 1 3.96 1 6 C4.3 6.33 7.6 6.66 11 7 C11 5.35 11 3.7 11 2 C11.66 2 12.32 2 13 2 C13 4.31 13 6.62 13 9 C11.3954444 8.85851011 9.79136233 8.71164314 8.1875 8.5625 C7.29417969 8.48128906 6.40085938 8.40007812 5.48046875 8.31640625 C3 8 3 8 0 7 C0 4.69 0 2.38 0 0 Z " fill="#F6DBC1" transform="translate(163,358)"/>
<path d="M0 0 C0 0.66 0 1.32 0 2 C-1.98 2 -3.96 2 -6 2 C-6 2.66 -6 3.32 -6 4 C-8.40545638 5.20272819 -9.94996953 5.10071472 -12.625 5.0625 C-13.85089844 5.04896484 -13.85089844 5.04896484 -15.1015625 5.03515625 C-16.04128906 5.01775391 -16.04128906 5.01775391 -17 5 C-14.22005549 3.14670366 -12.21743449 2.31436395 -9.0625 1.375 C-8.20785156 1.11460937 -7.35320312 0.85421875 -6.47265625 0.5859375 C-4 0 -4 0 0 0 Z " fill="#FBDEBB" transform="translate(296,438)"/>
<path d="M0 0 C0 0.66 0 1.32 0 2 C0.66 2 1.32 2 2 2 C2 2.99 2 3.98 2 5 C-1.63 4.67 -5.26 4.34 -9 4 C-5.8155864 0.8155864 -4.35822804 0 0 0 Z " fill="#FB7F2A" transform="translate(166,423)"/>
<path d="M0 0 C2.0625 0.4375 2.0625 0.4375 4 1 C-1.25432063 3.45946923 -6.30860098 4.90301833 -12 6 C-11.67 5.01 -11.34 4.02 -11 3 C-10.28972656 2.86722656 -9.57945312 2.73445313 -8.84765625 2.59765625 C-7.92855469 2.42105469 -7.00945312 2.24445313 -6.0625 2.0625 C-4.68771484 1.80146484 -4.68771484 1.80146484 -3.28515625 1.53515625 C-1.04710156 1.22285012 -1.04710156 1.22285012 0 0 Z " fill="#DD8A4D" transform="translate(353,419)"/>
<path d="M0 0 C0.33 0 0.66 0 1 0 C1.33 3.63 1.66 7.26 2 11 C0.68 11.33 -0.64 11.66 -2 12 C-1.85962479 10.18706911 -1.71255111 8.3746557 -1.5625 6.5625 C-1.48128906 5.55316406 -1.40007812 4.54382813 -1.31640625 3.50390625 C-1 1 -1 1 0 0 Z " fill="#FD9B24" transform="translate(331,356)"/>
<path d="M0 0 C0.33 0 0.66 0 1 0 C1.22370596 2.20682907 1.42830391 4.41559973 1.625 6.625 C1.74101562 7.85476562 1.85703125 9.08453125 1.9765625 10.3515625 C2.00034163 14.05318114 1.37441976 16.59017997 0 20 C-0.33 20 -0.66 20 -1 20 C-1.10152799 13.2314676 -1.03026944 6.69675136 0 0 Z " fill="#E7AA5C" transform="translate(337,184)"/>
<path d="M0 0 C0.33 0 0.66 0 1 0 C1.33 4.62 1.66 9.24 2 14 C1.34 14 0.68 14 0 14 C0 15.32 0 16.64 0 18 C-0.66 18 -1.32 18 -2 18 C-1.34 12.06 -0.68 6.12 0 0 Z " fill="#FDF7E8" transform="translate(371,394)"/>
<path d="M0 0 C-0.61488281 0.19335938 -1.22976563 0.38671875 -1.86328125 0.5859375 C-3.07564453 0.97652344 -3.07564453 0.97652344 -4.3125 1.375 C-5.51326172 1.75785156 -5.51326172 1.75785156 -6.73828125 2.1484375 C-9.22724528 2.98831811 -9.22724528 2.98831811 -12 5 C-14.26171875 5.1953125 -14.26171875 5.1953125 -16.6875 5.125 C-17.89986328 5.09792969 -17.89986328 5.09792969 -19.13671875 5.0703125 C-20.05904297 5.03550781 -20.05904297 5.03550781 -21 5 C-21 4.67 -21 4.34 -21 4 C-19.865625 3.731875 -18.73125 3.46375 -17.5625 3.1875 C-13.62236134 2.22171113 -9.86886227 0.92685241 -6.078125 -0.51171875 C-3.69404368 -1.07188823 -2.29713852 -0.77088658 0 0 Z " fill="#E8B574" transform="translate(309,369)"/>
<path d="M0 0 C3 1 3 1 3 1 Z M-2 1 C-1.34 1 -0.68 1 0 1 C-0.33 2.32 -0.66 3.64 -1 5 C-5.1196377 6.29243536 -8.66831683 7.26252625 -13 7 C-13 6.34 -13 5.68 -13 5 C-10.24921116 4.08307039 -8.64051087 3.89113917 -5.8125 3.9375 C-3.9253125 3.9684375 -3.9253125 3.9684375 -2 4 C-2 3.01 -2 2.02 -2 1 Z " fill="#E9A550" transform="translate(285,331)"/>
<path d="M0 0 C0.99 0 1.98 0 3 0 C3 2.64 3 5.28 3 8 C1.68 8 0.36 8 -1 8 C-1.04241723 5.66705225 -1.04092937 3.33297433 -1 1 C-0.67 0.67 -0.34 0.34 0 0 Z " fill="#F3A125" transform="translate(347,168)"/>
<path d="M0 0 C0.33 0 0.66 0 1 0 C1 2.97 1 5.94 1 9 C-5.0546875 11.44140625 -5.0546875 11.44140625 -7 12 C-7.66 11.67 -8.32 11.34 -9 11 C-8.67 10.01 -8.34 9.02 -8 8 C-5.36 8 -2.72 8 0 8 C0 5.36 0 2.72 0 0 Z " fill="#E3AD61" transform="translate(293,324)"/>
<path d="M0 0 C-6.17639651 3.27320553 -12.95500989 5.55618343 -20 5 C-18.68 4.67 -17.36 4.34 -16 4 C-16 3.34 -16 2.68 -16 2 C-15.06027344 1.90912109 -15.06027344 1.90912109 -14.1015625 1.81640625 C-12.87566406 1.69072266 -12.87566406 1.69072266 -11.625 1.5625 C-10.81289063 1.48128906 -10.00078125 1.40007812 -9.1640625 1.31640625 C-0.13601322 -0.0035793 -0.13601322 -0.0035793 0 0 Z " fill="#FEEEC4" transform="translate(270,378)"/>
<path d="M0 0 C1.32 0.33 2.64 0.66 4 1 C0.88741553 4.21299042 -1.29736646 5.30419139 -5.6875 5.375 C-9.69230769 5.30769231 -9.69230769 5.30769231 -12 3 C-4.25 2.875 -4.25 2.875 -2 4 C-1.34 2.68 -0.68 1.36 0 0 Z " fill="#FEF9E2" transform="translate(282,336)"/>
<path d="M0 0 C0.20625 0.639375 0.4125 1.27875 0.625 1.9375 C1.88417172 4.3508355 1.88417172 4.3508355 5.0625 4.625 C6.5165625 4.810625 6.5165625 4.810625 8 5 C8.33 5.66 8.66 6.32 9 7 C9.99 7.66 10.98 8.32 12 9 C7.6822542 8.49202991 3.96697886 7.80317221 0 6 C0 4.02 0 2.04 0 0 Z " fill="#DF9C68" transform="translate(184,324)"/>
<path d="M0 0 C2.31 0 4.62 0 7 0 C6.67 0.66 6.34 1.32 6 2 C5.34 1.67 4.68 1.34 4 1 C4 2.65 4 4.3 4 6 C2.68 6 1.36 6 0 6 C0 4.02 0 2.04 0 0 Z " fill="#FBE9E1" transform="translate(226,170)"/>
<path d="M0 0 C2.64 0 5.28 0 8 0 C8 1.32 8 2.64 8 4 C5.36 3.67 2.72 3.34 0 3 C0 2.01 0 1.02 0 0 Z " fill="#DDF3F3" transform="translate(224,370)"/>
<path d="M0 0 C0.99 0 1.98 0 3 0 C3 4.62 3 9.24 3 14 C2.67 14 2.34 14 2 14 C2 11.36 2 8.72 2 6 C1.34 6 0.68 6 0 6 C0 4.02 0 2.04 0 0 Z " fill="#E5F1FA" transform="translate(203,170)"/>
<path d="M0 0 C0.66 0 1.32 0 2 0 C2 3.96 2 7.92 2 12 C-1 9 -1 9 -1.25 5.4375 C-1 2 -1 2 0 0 Z " fill="#F29E27" transform="translate(340,172)"/>
<path d="M0 0 C0.99 0 1.98 0 3 0 C3.1875 3.375 3.1875 3.375 3 7 C2.01 7.66 1.02 8.32 0 9 C0 6.03 0 3.06 0 0 Z " fill="#EDA139" transform="translate(243,160)"/>
<path d="M0 0 C2.97 0 5.94 0 9 0 C6 3 6 3 2.8125 3.1875 C1.4203125 3.0946875 1.4203125 3.0946875 0 3 C0 2.01 0 1.02 0 0 Z " fill="#FD7C2F" transform="translate(256,442)"/>
<path d="M0 0 C-0.99 1.485 -0.99 1.485 -2 3 C-5.2578125 3.29296875 -5.2578125 3.29296875 -9.125 3.1875 C-11.04699219 3.14689453 -11.04699219 3.14689453 -13.0078125 3.10546875 C-13.99523437 3.07066406 -14.98265625 3.03585937 -16 3 C-12.90203725 0.9346915 -11.04666313 0.4516727 -7.4375 -0.1875 C-6.46683594 -0.36667969 -5.49617188 -0.54585938 -4.49609375 -0.73046875 C-2 -1 -2 -1 0 0 Z " fill="#F8D8AA" transform="translate(282,337)"/>
<path d="M0 0 C2.475 0.495 2.475 0.495 5 1 C5 3.64 5 6.28 5 9 C3.68 8.34 2.36 7.68 1 7 C1.66 5.35 2.32 3.7 3 2 C2.01 2 1.02 2 0 2 C0 1.34 0 0.68 0 0 Z " fill="#F8EBDC" transform="translate(177,308)"/>
<path d="M0 0 C2.97 0 5.94 0 9 0 C9 0.99 9 1.98 9 3 C6.03 2.67 3.06 2.34 0 2 C0 1.34 0 0.68 0 0 Z " fill="#DFF1F5" transform="translate(224,378)"/>
<path d="M0 0 C1.32 0 2.64 0 4 0 C3.67 1.98 3.34 3.96 3 6 C2.01 6 1.02 6 0 6 C0 4.02 0 2.04 0 0 Z " fill="#E3F1F9" transform="translate(164,352)"/>
<path d="M0 0 C1.670625 0.061875 1.670625 0.061875 3.375 0.125 C3.045 1.115 2.715 2.105 2.375 3.125 C-0.265 2.795 -2.905 2.465 -5.625 2.125 C-3.625 0.125 -3.625 0.125 0 0 Z " fill="#FE9927" transform="translate(290.625,375.875)"/>
<path d="M0 0 C1.22589844 0.01353516 1.22589844 0.01353516 2.4765625 0.02734375 C3.41628906 0.04474609 3.41628906 0.04474609 4.375 0.0625 C1.42547042 1.56247444 -1.53989173 2.86273567 -4.625 4.0625 C-4.625 3.4025 -4.625 2.7425 -4.625 2.0625 C-5.285 1.7325 -5.945 1.4025 -6.625 1.0625 C-4.21954362 -0.14022819 -2.67503047 -0.03821472 0 0 Z " fill="#F4A64E" transform="translate(270.625,378.9375)"/>
<path d="M0 0 C2.31 0 4.62 0 7 0 C0.8 4.13333333 0.8 4.13333333 -2.25 3.625 C-2.8275 3.41875 -3.405 3.2125 -4 3 C-3.01 3 -2.02 3 -1 3 C-0.67 2.01 -0.34 1.02 0 0 Z " fill="#E5AB5D" transform="translate(262,338)"/>
<path d="M0 0 C0.99 0 1.98 0 3 0 C3 1.98 3 3.96 3 6 C2.01 6.33 1.02 6.66 0 7 C0 4.69 0 2.38 0 0 Z " fill="#ECA239" transform="translate(243,336)"/>
<path d="M0 0 C2.64 0.33 5.28 0.66 8 1 C8 1.99 8 2.98 8 4 C6.68 4 5.36 4 4 4 C4 3.34 4 2.68 4 2 C2.68 1.34 1.36 0.68 0 0 Z " fill="#EF864D" transform="translate(184,434)"/>
<path d="M0 0 C0.33 0.66 0.66 1.32 1 2 C-0.125 3.5625 -0.125 3.5625 -2 5 C-5.1875 4.6875 -5.1875 4.6875 -8 4 C-5.53721199 1.53721199 -3.29323018 1.00228745 0 0 Z " fill="#FAF2CE" transform="translate(294,332)"/>
</svg>
