<?xml version="1.0" encoding="UTF-8"?>
<svg version="1.1" xmlns="http://www.w3.org/2000/svg" width="1300" height="1026">
<path d="M0 0 C429 0 858 0 1300 0 C1300 338.58 1300 677.16 1300 1026 C871 1026 442 1026 0 1026 C0 687.42 0 348.84 0 0 Z " fill="#FEFEFE" transform="translate(0,0)"/>
<path d="M0 0 C1.75604428 1.38289635 3.52847138 2.73925885 5.31347656 4.08447266 C25.19172737 19.06938786 44.64464923 36.1542967 60.83691406 55.09619141 C62.48861049 57.02740569 64.15680784 58.93983647 65.83691406 60.84619141 C72.8472902 68.8220435 79.54254261 76.94030744 85.86816406 85.47119141 C86.35752441 86.12394043 86.84688477 86.77668945 87.35107422 87.44921875 C96.25949884 99.35948561 104.25252261 111.7004556 111.86816406 124.47119141 C112.36670898 125.29925293 112.86525391 126.12731445 113.37890625 126.98046875 C119.908958 137.87321492 125.76983393 149.04701929 131.30566406 160.47119141 C131.74578323 161.37538818 131.74578323 161.37538818 132.1947937 162.29785156 C135.72674352 169.58043777 138.91652054 176.91125445 141.75317383 184.49169922 C142.72703908 187.09407529 143.74317252 189.67102473 144.79003906 192.24462891 C164.12388943 240.50100124 173.1205755 293.46320159 173.05566406 345.34619141 C173.05572449 346.09932617 173.05578491 346.85246094 173.05584717 347.62841797 C173.04103793 360.71564827 172.41772463 373.67679054 171.13720703 386.70654297 C170.8907808 389.2387849 170.6733419 391.77145806 170.46582031 394.30712891 C166.60221365 438.8623171 153.26963852 483.78688952 134.86816406 524.47119141 C134.39185547 525.52935059 133.91554688 526.58750977 133.42480469 527.67773438 C115.01179312 568.17802275 90.02088126 606.24086208 59.49316406 638.66259766 C57.42942496 640.87067566 55.44361146 643.10228735 53.49316406 645.40869141 C45.68884927 654.4210451 36.96163535 662.7767157 27.86816406 670.47119141 C26.74688402 671.4538707 25.62726017 672.43844121 24.50878906 673.42431641 C-43.20958339 732.97631299 -128.43481688 768.76861452 -261.69433594 780.65869141 C-262.47419861 780.65841949 -263.25406128 780.65814758 -264.05755615 780.65786743 C-276.52703815 780.63803128 -288.85329639 780.14630044 -301.25683594 778.78320312 C-304.27548895 778.45560135 -307.29649604 778.16755871 -310.31933594 777.88134766 C-363.68028794 772.57133387 -416.9079372 755.92467602 -464.13183594 730.47119141 C-465.03272949 729.98714844 -465.93362305 729.50310547 -466.86181641 729.00439453 C-485.11108386 719.12106239 -502.57908561 708.00105969 -519.13183594 695.47119141 C-520.15019531 694.70677734 -521.16855469 693.94236328 -522.21777344 693.15478516 C-532.81732453 685.14049043 -542.92162949 676.5778664 -552.74902344 667.63525391 C-554.32723784 666.20192476 -555.91572879 664.77982361 -557.51464844 663.36962891 C-567.32949537 654.69090573 -576.68391358 645.49205329 -585.13183594 635.47119141 C-586.06562399 634.388204 -587.00063673 633.30627198 -587.93652344 632.22509766 C-603.95002158 613.70300377 -618.04611286 594.1611437 -631.13183594 573.47119141 C-631.52790039 572.85308594 -631.92396484 572.23498047 -632.33203125 571.59814453 C-644.07004073 553.21736915 -654.16148157 533.15739928 -662.14746094 512.88256836 C-663.38596112 509.84867294 -664.7210137 506.86069808 -666.04199219 503.86181641 C-669.16109186 496.59942784 -671.6838814 489.21359093 -674.00683594 481.65869141 C-674.21738617 480.97888214 -674.4279364 480.29907288 -674.64486694 479.59866333 C-687.97896005 436.35854128 -695.38802005 391.9711282 -695.31933594 346.65869141 C-695.31873169 345.90795349 -695.31812744 345.15721558 -695.31750488 344.38372803 C-695.16855074 275.3580146 -678.72744414 204.93436783 -645.16894531 144.34423828 C-643.75757915 141.79527377 -642.38639848 139.22497441 -641.00683594 136.65869141 C-640.05054856 134.92839242 -639.09215665 133.19925514 -638.13183594 131.47119141 C-637.58785156 130.46958984 -637.04386719 129.46798828 -636.48339844 128.43603516 C-624.83695583 107.42821146 -610.59140434 87.82454074 -595.13183594 69.47119141 C-594.70499512 68.95943359 -594.2781543 68.44767578 -593.83837891 67.92041016 C-582.28372387 54.08289545 -570.13900664 39.86490776 -556.38183594 28.15869141 C-553.18998472 25.41321019 -550.09264767 22.58529525 -547.00683594 19.72119141 C-541.20707278 14.4341145 -535.10699187 9.60452111 -528.88720703 4.82373047 C-527.18736628 3.51397834 -525.49641986 2.1935699 -523.80761719 0.86962891 C-516.44445852 -4.8850889 -508.93408899 -10.38098754 -501.13183594 -15.52880859 C-500.34566895 -16.05039551 -499.55950195 -16.57198242 -498.74951172 -17.109375 C-455.23104097 -45.75043094 -406.03465896 -66.39298684 -355.13183594 -77.52880859 C-354.18002441 -77.74585449 -353.22821289 -77.96290039 -352.24755859 -78.18652344 C-339.10973507 -81.16495378 -325.93743631 -83.20715007 -312.56933594 -84.77880859 C-311.86657532 -84.8618927 -311.1638147 -84.94497681 -310.4397583 -85.03057861 C-210.81101594 -96.64736296 -110.36597412 -71.73904641 0 0 Z " fill="#007BB5" transform="translate(912.1318359375,167.52880859375)"/>
<path d="M0 0 C0.70498627 0.00343414 1.40997253 0.00686829 2.13632202 0.01040649 C38.64182519 0.21870221 70.51566941 9.50777046 97.1875 35.5 C116.7867319 55.33342547 127.54274037 82.37366176 133.375 109.25 C133.54439826 110.01383066 133.71379653 110.77766133 133.88832808 111.56463838 C137.17271435 126.68269926 137.93027177 141.17148768 137.82910156 156.60498047 C137.82797008 159.06139609 137.82861279 161.51781306 137.83087158 163.97422791 C137.83177412 169.2128463 137.82064066 174.45128296 137.79792023 179.68984604 C137.76509417 187.26344826 137.75496237 194.83695472 137.74996826 202.41062035 C137.74126291 214.70511725 137.7147783 226.99950662 137.67675781 239.29394531 C137.63991327 251.22069783 137.61170883 263.14742075 137.59472656 275.07421875 C137.59365457 275.81968106 137.59258258 276.56514337 137.59147811 277.33319545 C137.58222389 283.81995761 137.57361403 290.3067206 137.56506729 296.79348373 C137.52758236 324.61242384 137.44785619 352.43107793 137.375 380.25 C99.095 380.25 60.815 380.25 21.375 380.25 C21.31441406 365.41804688 21.25382813 350.58609375 21.19140625 335.3046875 C21.15088742 325.88020582 21.1101388 316.45572604 21.06835938 307.03125 C21.00216107 292.08887701 20.93687186 277.1465042 20.87768555 262.20410156 C20.83456439 251.31866291 20.78821972 240.43324338 20.73812145 229.54783452 C20.71174325 223.79256579 20.68689954 218.0373003 20.66592598 212.28200912 C20.64606747 206.84674021 20.62184568 201.41150695 20.59450912 195.97627068 C20.58529062 193.99884769 20.57756385 192.02141698 20.57158089 190.04398155 C21.4503644 146.8436466 21.4503644 146.8436466 2.57421875 109.23046875 C-9.35401335 97.89494384 -25.2506773 94.64823589 -41.22265625 95.02734375 C-45.57076316 95.31189265 -49.47545022 95.93922164 -53.625 97.25 C-54.48351562 97.50652344 -55.34203125 97.76304687 -56.2265625 98.02734375 C-75.74239331 104.43183471 -85.19359557 117.52482496 -94.36328125 135.03515625 C-97.38898103 142.74460183 -97.9714289 150.79917764 -98.23716736 159.00697327 C-98.27466534 160.00480648 -98.31216331 161.0026397 -98.35079759 162.03071028 C-98.71433075 172.39875071 -98.79903088 182.7649812 -98.83032227 193.13842773 C-98.8399384 195.2107613 -98.84995041 197.28309305 -98.86032104 199.35542297 C-98.88697265 204.89932692 -98.90819308 210.44323904 -98.92832303 215.98716998 C-98.95043271 221.81137183 -98.97769725 227.63554968 -99.00437927 233.45973206 C-99.05397292 244.45206911 -99.09903306 255.44441971 -99.14240164 266.4367829 C-99.20137532 281.31662054 -99.2674796 296.19642647 -99.33315182 311.07623577 C-99.43620407 334.46746904 -99.52983946 357.85873021 -99.625 381.25 C-138.235 381.25 -176.845 381.25 -216.625 381.25 C-216.68558594 364.79769531 -216.74617187 348.34539062 -216.80859375 331.39453125 C-216.84873082 320.72330601 -216.88896742 310.05208143 -216.92993164 299.38085938 C-216.93378523 298.37668439 -216.93378523 298.37668439 -216.93771668 297.35222304 C-216.97626562 287.30984505 -217.01508238 277.26746811 -217.0540989 267.22509193 C-217.06247504 265.06892524 -217.07084251 262.91275852 -217.0792098 260.7565918 C-217.39623186 174.85237279 -217.39623186 174.85237279 -217.9140625 88.94921875 C-217.91944644 88.21720316 -217.92483039 87.48518757 -217.93037748 86.73098969 C-218.12366973 60.57032021 -218.38148703 34.41025102 -218.625 8.25 C-185.625 8.25 -152.625 8.25 -118.625 8.25 C-117.43488316 14.79564263 -116.29113675 21.18507138 -115.5546875 27.76953125 C-115.46873322 28.51659836 -115.38277893 29.26366547 -115.29421997 30.03337097 C-115.11606795 31.58999586 -114.93971135 33.14682727 -114.76513672 34.70385742 C-114.49848278 37.07599713 -114.22421666 39.44717403 -113.94921875 41.81835938 C-113.77558989 43.34369864 -113.60239719 44.86908763 -113.4296875 46.39453125 C-113.34846649 47.09463821 -113.26724548 47.79474518 -113.18356323 48.5160675 C-112.74806741 52.44806884 -112.54571843 56.29477338 -112.625 60.25 C-109.13742853 56.90266305 -106.19997857 53.4808499 -103.375 49.5625 C-84.43724484 24.06215642 -58.50495483 8.67891131 -27.625 2.25 C-26.73731934 2.06308594 -25.84963867 1.87617188 -24.93505859 1.68359375 C-16.62053473 0.10653256 -8.44183592 -0.06724631 0 0 Z " fill="#FEFEFE" transform="translate(789.625,390.75)"/>
<path d="M0 0 C38.28 0 76.56 0 116 0 C116 123.09 116 246.18 116 373 C77.72 373 39.44 373 0 373 C0 249.91 0 126.82 0 0 Z " fill="#FEFEFE" transform="translate(389,399)"/>
<path d="M0 0 C11.27686504 9.9141019 21.08121693 23.1696363 22.39624023 38.65063477 C22.90047887 56.95791255 20.08437298 72.39719056 7.09423828 86.31689453 C-6.52798906 99.0819409 -23.66668429 105.13733948 -42.13232422 104.81689453 C-56.0560937 103.86280326 -69.05597365 99.57281137 -79.78076172 90.56689453 C-80.79138672 89.82439453 -81.80201172 89.08189453 -82.84326172 88.31689453 C-91.55610135 80.85549257 -98.54692649 67.91546695 -99.78076172 56.56689453 C-100.88500052 37.7987787 -98.97594372 23.14624844 -87.09326172 7.94189453 C-66.3649922 -14.88068201 -24.53986609 -19.74897367 0 0 Z " fill="#FCFEFE" transform="translate(485.78076171875,249.43310546875)"/>
<path d="M0 0 C38.28 0 76.56 0 116 0 C116 123.09 116 246.18 116 373 C77.72 373 39.44 373 0 373 C0 249.91 0 126.82 0 0 Z M1 1 C0.95426574 47.97437052 0.91900278 94.9487387 0.89786934 141.92312708 C0.8953678 147.46339986 0.89277917 153.0036726 0.89013672 158.54394531 C0.8896121 159.64695754 0.88908748 160.74996977 0.88854696 161.88640662 C0.87983401 179.7682412 0.86405916 197.65006298 0.84569441 215.53188996 C0.82702008 233.86748003 0.81588852 252.20306337 0.81182301 270.53866255 C0.80907282 281.86125239 0.80037307 293.18380604 0.78416707 304.50638475 C0.77363061 312.26081062 0.77039176 320.01521768 0.77299725 327.76965021 C0.77428377 332.24981233 0.77225171 336.72991105 0.76158905 341.21006203 C0.75191194 345.30580328 0.75132869 349.40143801 0.75820221 353.49718399 C0.7590527 354.98442587 0.75646882 356.47167419 0.75023364 357.95890324 C0.74228915 359.96961837 0.74769435 361.98037336 0.75390434 363.99109459 C0.7531449 365.11126956 0.75238546 366.23144454 0.75160301 367.38556421 C0.73508551 370.15978943 0.73508551 370.15978943 3 372 C5.07325621 372.29779436 5.07325621 372.29779436 7.49246216 372.24050903 C8.91016403 372.24463303 8.91016403 372.24463303 10.35650635 372.24884033 C11.39659851 372.24164978 12.43669067 372.23445923 13.50830078 372.22705078 C15.14733871 372.22748886 15.14733871 372.22748886 16.81948853 372.22793579 C20.44484292 372.22653825 24.06999385 372.21095699 27.6953125 372.1953125 C30.20352059 372.19158388 32.71173012 372.1887362 35.21994019 372.18673706 C41.15562286 372.17987119 47.09123984 372.16409528 53.02688873 372.14403808 C60.44629818 372.11951013 67.86571665 372.1087526 75.28515625 372.09765625 C88.52347486 372.07618515 101.76173279 372.04241739 115 372 C115.02286428 324.88120973 115.04049716 277.76242004 115.05106533 230.64362532 C115.05231611 225.08704252 115.05361043 219.53045974 115.05493164 213.97387695 C115.05519395 212.8676118 115.05545626 211.76134664 115.05572652 210.6215583 C115.06008368 192.68408778 115.06797147 174.74662046 115.0771528 156.80915184 C115.08648807 138.41819539 115.09205534 120.02724062 115.09408849 101.63628191 C115.09546398 90.27838513 115.09981598 78.92049736 115.10791647 67.56260335 C115.11318237 59.78529409 115.11480465 52.00798953 115.11350138 44.23067863 C115.11285775 39.7364822 115.11387824 35.24230157 115.11920547 30.74810791 C115.12403894 26.64072511 115.124339 22.53336888 115.12089889 18.42598491 C115.12047315 16.93337888 115.12176933 15.44077125 115.12488318 13.9481684 C115.12884639 11.93260772 115.1261567 9.91703713 115.12304783 7.90147495 C115.12342755 6.7778825 115.12380727 5.65429004 115.1241985 4.49664932 C115.282886 2.05918563 115.282886 2.05918563 114 1 C112.5325104 0.90434877 111.06043116 0.87811691 109.58982849 0.87974548 C108.16156738 0.87768349 108.16156738 0.87768349 106.70445251 0.87557983 C105.65141434 0.87917511 104.59837616 0.88277039 103.51342773 0.88647461 C102.41112823 0.88632858 101.30882874 0.88618256 100.17312622 0.8860321 C96.50992908 0.88673179 92.84678206 0.89452676 89.18359375 0.90234375 C86.65153532 0.90420773 84.11947652 0.90563173 81.5874176 0.90663147 C75.59151751 0.91006654 69.59563911 0.91795731 63.59974772 0.92798096 C56.77518942 0.93914323 49.95063028 0.94465283 43.12606514 0.94967639 C29.08403336 0.96013996 15.04201767 0.9777387 1 1 Z " fill="#E0FEFF" transform="translate(389,399)"/>
<path d="M0 0 C0.33 0 0.66 0 1 0 C3.88004582 11.89202074 3.2662168 24.07436129 3.22705078 36.21972656 C3.22648603 38.67466731 3.22680447 41.1296084 3.22793579 43.58454895 C3.22838961 48.85056725 3.22275735 54.1165408 3.21146011 59.38254547 C3.19513737 66.99609965 3.18999021 74.60962992 3.18748413 82.2231997 C3.1831176 94.57866371 3.16983692 106.93410117 3.15087891 119.28955078 C3.13249303 131.28466665 3.11837277 143.27977524 3.10986328 155.27490234 C3.10932729 156.02304463 3.10879129 156.77118691 3.10823905 157.54200017 C3.10361274 164.0507718 3.09930744 170.55954364 3.09503365 177.06831551 C3.0762478 205.04556868 3.03639711 233.02275136 3 261 C-35.28 261 -73.56 261 -113 261 C-113 212.49 -113 163.98 -113 114 C-112.67 114 -112.34 114 -112 114 C-111.98969254 115.08135727 -111.97938507 116.16271454 -111.96876526 117.27684021 C-111.43609641 178.32861796 -111.43609641 178.32861796 -110.5 239.375 C-110.48212433 240.37433563 -110.46424866 241.37367126 -110.4458313 242.40328979 C-110.39640557 245.11015256 -110.34034479 247.81677092 -110.28125 250.5234375 C-110.26770981 251.28849106 -110.25416962 252.05354462 -110.24021912 252.84178162 C-110.44419363 256.20899324 -110.44419363 256.20899324 -109 259 C-107.55786001 259.09558036 -106.11105921 259.12188394 -104.66575623 259.12025452 C-103.73041046 259.12162918 -102.7950647 259.12300385 -101.83137512 259.12442017 C-100.79703842 259.12082489 -99.76270172 259.11722961 -98.69702148 259.11352539 C-97.61422913 259.11367142 -96.53143677 259.11381744 -95.41583252 259.1139679 C-91.81756626 259.11326823 -88.21935103 259.10547333 -84.62109375 259.09765625 C-82.13387582 259.09579226 -79.64665752 259.09436827 -77.15943909 259.09336853 C-71.26978809 259.0899335 -65.3801561 259.08204277 -59.49051291 259.07201904 C-52.12974626 259.05976246 -44.76897736 259.05437791 -37.40820312 259.04882812 C-24.27212602 259.03808815 -11.13606417 259.02120089 2 259 C1.89480505 230.04855416 1.78498297 201.09712905 1.66888306 172.14572479 C1.65511684 168.71189609 1.64138924 165.27806723 1.62768555 161.84423828 C1.62495724 161.16075096 1.62222894 160.47726364 1.61941796 159.77306458 C1.57558742 148.7697946 1.53487108 137.76651525 1.49534739 126.76322904 C1.45458861 115.43583524 1.41032085 104.10845964 1.36312145 92.7810905 C1.33678277 86.43429934 1.31194168 80.08751097 1.29092598 73.74069977 C1.2221895 36.85797577 1.2221895 36.85797577 0 0 Z " fill="#D6F5FB" transform="translate(924,510)"/>
<path d="M0 0 C0.609375 1.8125 0.609375 1.8125 1 4 C0.04957304 5.62930336 -0.9054028 7.25613323 -1.88383484 8.86877441 C-7.10086861 18.83027138 -6.47308162 30.49295347 -6.51171875 41.40625 C-6.52873414 43.27105748 -6.54690353 45.13585473 -6.56611633 47.00064087 C-6.61451894 52.09785509 -6.64389526 57.19502357 -6.66955566 62.29239655 C-6.69365955 66.60103711 -6.72913163 70.90955634 -6.76428032 75.21811867 C-6.98864544 103.1164651 -7.02319568 131.01499485 -7.01953125 158.9140625 C-7.0194569 159.6685521 -7.01938255 160.42304171 -7.01930594 161.20039463 C-7.01752493 176.99281551 -7.00736457 192.7851845 -6.97279644 208.57756996 C-6.9620707 213.52995003 -6.95445869 218.48233348 -6.9476853 223.4347204 C-6.94103845 228.02401962 -6.9271753 232.61326688 -6.91218567 237.20254517 C-6.90861166 239.54925494 -6.9053141 241.89596516 -6.90234375 244.24267578 C-6.89718089 245.31289223 -6.89201803 246.38310867 -6.88669872 247.48575592 C-6.88658779 248.93878742 -6.88658779 248.93878742 -6.88647461 250.4211731 C-6.884254 251.26286104 -6.88203339 252.10454899 -6.87974548 252.97174263 C-7 255 -7 255 -8 257 C-46.61 257 -85.22 257 -125 257 C-125.33 256.34 -125.66 255.68 -126 255 C-87.39 255 -48.78 255 -9 255 C-9.01160156 240.10746094 -9.02320313 225.21492187 -9.03515625 209.87109375 C-9.04026906 200.40559878 -9.04512481 190.94010482 -9.04882812 181.47460938 C-9.05474649 166.46866512 -9.06167898 151.4627265 -9.07543945 136.45678711 C-9.08545922 125.52484335 -9.09187066 114.59290419 -9.09408849 103.66095597 C-9.0953833 97.88160987 -9.09839022 92.10227695 -9.10573006 86.3229351 C-9.1126058 80.86387852 -9.11459391 75.40484031 -9.11310768 69.9457798 C-9.11337889 67.96070632 -9.11531455 65.97563212 -9.11920547 63.99056244 C-9.13859483 53.57202419 -9.01068494 43.16882939 -8.61790466 32.75697327 C-8.58748803 31.82815132 -8.5570714 30.89932937 -8.52573305 29.9423613 C-8.15192556 21.20308544 -7.04376404 13.16877624 -2.875 5.375 C-2.33617187 4.35148438 -1.79734375 3.32796875 -1.2421875 2.2734375 C-0.83226562 1.52320313 -0.42234375 0.77296875 0 0 Z " fill="#19739F" transform="translate(699,517)"/>
<path d="M0 0 C33 0 66 0 100 0 C101.28317892 3.84953676 101.06643637 6.94738135 101 11 C98.8480563 7.77208445 98.79913557 6.71599191 99 3 C93.93481285 1.97482024 89.10554583 1.86421642 83.96533203 1.88647461 C82.61123387 1.88629381 82.61123387 1.88629381 81.2297802 1.88610935 C78.32243212 1.8868527 75.41514903 1.89445453 72.5078125 1.90234375 C70.70695018 1.90381496 68.90608744 1.90483457 67.10522461 1.90539551 C60.4451432 1.91062764 53.78507095 1.9245889 47.125 1.9375 C24.788125 1.9684375 24.788125 1.9684375 2 2 C2 42.59 2 83.18 2 125 C1.67 125 1.34 125 1 125 C0.67 83.75 0.34 42.5 0 0 Z " fill="#DEF9FC" transform="translate(571,399)"/>
<path d="M0 0 C0.609375 1.8125 0.609375 1.8125 1 4 C0.04695218 5.63379626 -0.90962101 7.26563761 -1.88383484 8.88690186 C-7.8041004 20.0950121 -6.47662039 33.79218896 -6.51171875 46.046875 C-6.52858761 48.2717588 -6.54674078 50.4966332 -6.56611633 52.72149658 C-6.61338273 58.54102642 -6.64334279 64.36051812 -6.66955566 70.18017578 C-6.69947964 76.1332146 -6.74596902 82.08612231 -6.79101562 88.0390625 C-6.87678269 99.69263942 -6.94424567 111.34624351 -7 123 C-7.99 123.495 -7.99 123.495 -9 124 C-9.02342839 114.09691086 -9.04106739 104.19382859 -9.05181217 94.29071712 C-9.05697558 89.68965089 -9.06395027 85.08860396 -9.07543945 80.48754883 C-9.16078682 45.25531246 -9.16078682 45.25531246 -8.62109375 31.56640625 C-8.59048355 30.71030258 -8.55987335 29.85419891 -8.52833557 28.97215271 C-8.12306758 20.60880814 -6.85762942 12.82078545 -2.875 5.375 C-2.33617187 4.35148438 -1.79734375 3.32796875 -1.2421875 2.2734375 C-0.83226562 1.52320313 -0.42234375 0.77296875 0 0 Z " fill="#318BB2" transform="translate(699,517)"/>
<path d="M0 0 C1.69581452 1.64282032 3.35512306 3.30662546 5 5 C5.80244141 5.82564453 5.80244141 5.82564453 6.62109375 6.66796875 C14.18349747 14.81584888 20.50522865 24.00105078 27 33 C27.43393066 33.5971582 27.86786133 34.19431641 28.31494141 34.80957031 C34 42.64080537 34 42.64080537 34 45 C33.34 45 32.68 45 32 45 C31.525625 44.175 31.05125 43.35 30.5625 42.5 C30.046875 41.675 29.53125 40.85 29 40 C28.01 40 27.02 40 26 40 C25.7834375 39.1028125 25.7834375 39.1028125 25.5625 38.1875 C25.1127561 36.43849596 24.57107659 34.71322977 24 33 C23.34 33.99 22.68 34.98 22 36 C22 35.071875 22 34.14375 22 33.1875 C21.32516048 28.03130428 17.92715572 24.43543481 14.8125 20.453125 C13 18 13 18 12 15 C11.071875 14.8453125 11.071875 14.8453125 10.125 14.6875 C9.42375 14.460625 8.7225 14.23375 8 14 C6.98308736 12.00854609 5.98357352 10.00812926 5 8 C4.29875 7.67 3.5975 7.34 2.875 7 C2.25625 6.67 1.6375 6.34 1 6 C0.25 2.875 0.25 2.875 0 0 Z " fill="#227DAB" transform="translate(979,231)"/>
<path d="M0 0 C1.05000183 0.0036557 1.05000183 0.0036557 2.12121582 0.00738525 C30.64291427 0.12384356 30.64291427 0.12384356 38.375 4.25 C37.32675049 4.1428064 37.32675049 4.1428064 36.25732422 4.03344727 C23.35673678 2.90742404 10.43798781 3.14102356 -2.5 3.1875 C-4.94140533 3.1925248 -7.38281167 3.19708597 -9.82421875 3.20117188 C-15.75783462 3.21210034 -21.69141254 3.2287608 -27.625 3.25 C-27.625 2.92 -27.625 2.59 -27.625 2.25 C-18.38383129 0.34133236 -9.41446011 -0.07139322 0 0 Z " fill="#C9EEF9" transform="translate(789.625,390.75)"/>
<path d="M0 0 C0.66 0.33 1.32 0.66 2 1 C1.55269531 1.58265625 1.10539062 2.1653125 0.64453125 2.765625 C-6.40015149 12.31875554 -11.15679696 22.17021612 -11.09765625 34.17578125 C-11.09443359 35.33271484 -11.09121094 36.48964844 -11.08789062 37.68164062 C-11.07951172 38.87982422 -11.07113281 40.07800781 -11.0625 41.3125 C-11.05798828 42.53001953 -11.05347656 43.74753906 -11.04882812 45.00195312 C-11.03706578 48.00135226 -11.02062826 51.00065089 -11 54 C-11.66 53.67 -12.32 53.34 -13 53 C-14.24085534 48.82193011 -14.15545574 44.57166914 -14.125 40.25 C-14.12016602 39.5369873 -14.11533203 38.82397461 -14.11035156 38.08935547 C-14.01385989 29.61545687 -13.39855137 23.14674057 -9.9375 15.359375 C-8.91251285 12.99479384 -8.91251285 12.99479384 -8.48828125 10.33203125 C-7.83078445 7.19182653 -6.37426598 6.10292129 -4 4 C-3.2575 3.2575 -2.515 2.515 -1.75 1.75 C-0.88375 0.88375 -0.88375 0.88375 0 0 Z " fill="#2785AF" transform="translate(398,256)"/>
<path d="M0 0 C0 0.33 0 0.66 0 1 C-1.65 1 -3.3 1 -5 1 C-5 1.99 -5 2.98 -5 4 C-9.76942989 5.3157048 -14.00793749 6.47543452 -19 6 C-19.66 5.34 -20.32 4.68 -21 4 C-18.69 4 -16.38 4 -14 4 C-14 3.34 -14 2.68 -14 2 C-14.928125 2.165 -15.85625 2.33 -16.8125 2.5 C-21.85733621 3.23700282 -26.91435711 3.08276815 -32 3 C-32 2.67 -32 2.34 -32 2 C-21.28712612 0.73300752 -10.8029818 -0.34910893 0 0 Z " fill="#157DAF" transform="translate(621,82)"/>
<path d="M0 0 C1.15665526 3.78322659 0.49106871 5.36552001 -1 9 C-0.67 9.99 -0.34 10.98 0 12 C-0.763125 12.061875 -1.52625 12.12375 -2.3125 12.1875 C-5.16745857 12.76811239 -5.16745857 12.76811239 -6.75 15.25 C-7.94378818 17.87633399 -8.59340853 20.15385972 -9 23 C-10.32 22.34 -11.64 21.68 -13 21 C-13.66 21.66 -14.32 22.32 -15 23 C-15.66 22.34 -16.32 21.68 -17 21 C-16.46890625 20.55269531 -15.9378125 20.10539062 -15.390625 19.64453125 C-8.5425129 13.78364699 -4.21679628 7.93241596 0 0 Z " fill="#2481AF" transform="translate(503,319)"/>
<path d="M0 0 C3.3 0.33 6.6 0.66 10 1 C10.33 2.32 10.66 3.64 11 5 C11.556875 5.0825 12.11375 5.165 12.6875 5.25 C15.70190759 6.2276457 17.56738186 7.99309004 20 10 C21.11375 10.495 21.11375 10.495 22.25 11 C24 12 24 12 24.5625 13.9375 C24.706875 14.618125 24.85125 15.29875 25 16 C25.495 16.495 25.99 16.99 26.5 17.5 C28.27253927 19.27253927 28.58037981 20.56620292 29 23 C26.54239849 20.57263261 24.12577178 18.13994642 21.81640625 15.5703125 C15.33270471 8.53600199 8.63004981 4.75543954 0 1 C0 0.67 0 0.34 0 0 Z " fill="#2382AD" transform="translate(470,241)"/>
<path d="M0 0 C0.33 0.99 0.66 1.98 1 3 C-0.14453125 4.82421875 -0.14453125 4.82421875 -1.8125 6.6875 C-2.35519531 7.31011719 -2.89789062 7.93273437 -3.45703125 8.57421875 C-5 10 -5 10 -7 10 C-7.2475 10.61875 -7.495 11.2375 -7.75 11.875 C-9.20628639 14.35068687 -10.37812506 14.95125002 -13 16 C-13 16.66 -13 17.32 -13 18 C-13.66 18 -14.32 18 -15 18 C-15 18.66 -15 19.32 -15 20 C-15.66 20 -16.32 20 -17 20 C-17.2475 20.598125 -17.495 21.19625 -17.75 21.8125 C-19.19482573 24.34094503 -20.48280545 25.55070617 -23 27 C-23.99 26.67 -24.98 26.34 -26 26 C-25.57332031 25.64550781 -25.14664063 25.29101562 -24.70703125 24.92578125 C-20.04455089 20.95546292 -15.64776241 16.7579894 -11.3125 12.4375 C-10.76634033 11.89585205 -10.22018066 11.3542041 -9.6574707 10.79614258 C-6.22363996 7.34978912 -3.06354106 3.77969352 0 0 Z " fill="#E6F9FD" transform="translate(972,805)"/>
<path d="M0 0 C1.65 0 3.3 0 5 0 C4 2 4 2 1.6550293 2.97729492 C-1.66427489 4.05812707 -4.98459434 5.13338726 -8.3125 6.1875 C-9.46685547 6.56841797 -10.62121094 6.94933594 -11.81054688 7.34179688 C-13.47633789 7.87450195 -13.47633789 7.87450195 -15.17578125 8.41796875 C-16.19583252 8.74563232 -17.21588379 9.0732959 -18.2668457 9.41088867 C-21.0029106 10.00062736 -22.40702976 9.94919504 -25 9 C-23.58398286 8.51891725 -22.16715563 8.04021859 -20.75 7.5625 C-19.96109375 7.29566406 -19.1721875 7.02882813 -18.359375 6.75390625 C-16.25178012 6.08045292 -14.15246027 5.50849405 -12 5 C-11.67 3.68 -11.34 2.36 -11 1 C-5.555 1.495 -5.555 1.495 0 2 C0 1.34 0 0.68 0 0 Z " fill="#167BAA" transform="translate(793,921)"/>
<path d="M0 0 C0.33 0.99 0.66 1.98 1 3 C1.66 3 2.32 3 3 3 C3.66 2.34 4.32 1.68 5 1 C5 1.66 5 2.32 5 3 C5.66 3 6.32 3 7 3 C6.62875 4.051875 6.2575 5.10375 5.875 6.1875 C4.89513799 10.45689877 5.27303865 11.18250649 7 15 C7.47028603 17.9885919 7.75044543 20.98564348 8 24 C3.41514478 17.12271717 1.21802984 8.89753048 -1 1 C-0.67 0.67 -0.34 0.34 0 0 Z " fill="#177EB1" transform="translate(240,649)"/>
<path d="M0 0 C3.46692792 5.20039187 2.75345408 11.87287736 3 18 C3.05414063 19.13695312 3.10828125 20.27390625 3.1640625 21.4453125 C3.3169731 26.99179693 3.4082159 31.32948192 0 36 C-1.485 36.495 -1.485 36.495 -3 37 C-2.7834375 36.34 -2.566875 35.68 -2.34375 35 C0.89743354 23.47579187 0.28301106 11.87049986 0 0 Z " fill="#1B7DAC" transform="translate(507,282)"/>
<path d="M0 0 C2.97826756 3.51682139 5.23589872 7.01302029 7.3125 11.125 C7.84488281 12.15882813 8.37726563 13.19265625 8.92578125 14.2578125 C10 17 10 17 9 20 C7.35 20 5.7 20 4 20 C4 16.04 4 12.08 4 8 C2.68 8.33 1.36 8.66 0 9 C0 6.03 0 3.06 0 0 Z " fill="#0E7BAF" transform="translate(1029,302)"/>
<path d="M0 0 C-4.99127184 3.18886812 -9.5277729 3.48279411 -15.390625 3.7890625 C-17.98121468 3.83490293 -17.98121468 3.83490293 -20 5 C-22.87910588 5.23274209 -25.74146495 5.41972757 -28.625 5.5625 C-29.42679688 5.60568359 -30.22859375 5.64886719 -31.0546875 5.69335938 C-33.0362511 5.79951457 -35.01810271 5.90026855 -37 6 C-37 5.67 -37 5.34 -37 5 C-32.21449236 4.11770886 -27.42735089 3.24515228 -22.63842773 2.3815918 C-21.00935998 2.08641556 -19.38077189 1.78857927 -17.75268555 1.48803711 C-15.41315616 1.05663958 -13.07207171 0.63482044 -10.73046875 0.21484375 C-10.00224411 0.07843979 -9.27401947 -0.05796417 -8.52372742 -0.19850159 C-5.21421913 -0.78309428 -3.24237066 -1.08079022 0 0 Z " fill="#CCEFF8" transform="translate(749,938)"/>
<path d="M0 0 C0.33 0 0.66 0 1 0 C0.98839844 0.78246094 0.97679687 1.56492187 0.96484375 2.37109375 C0.95582031 3.38300781 0.94679687 4.39492188 0.9375 5.4375 C0.92589844 6.44683594 0.91429687 7.45617187 0.90234375 8.49609375 C0.71387324 10.94021067 0.71387324 10.94021067 2 12 C2.07271741 14.35313555 2.08370868 16.70833668 2.0625 19.0625 C2.05347656 20.35285156 2.04445312 21.64320313 2.03515625 22.97265625 C2.02355469 23.97167969 2.01195312 24.97070312 2 26 C0 25 0 25 -1 22 C-1.09126911 20.63905708 -1.13065452 19.27415442 -1.1328125 17.91015625 C-1.13410156 17.12576172 -1.13539063 16.34136719 -1.13671875 15.53320312 C-1.13285156 14.71787109 -1.12898437 13.90253906 -1.125 13.0625 C-1.12886719 12.25103516 -1.13273438 11.43957031 -1.13671875 10.60351562 C-1.13542969 9.81783203 -1.13414062 9.03214844 -1.1328125 8.22265625 C-1.13168457 7.50859619 -1.13055664 6.79453613 -1.12939453 6.05883789 C-0.99573643 3.93216104 -0.57960342 2.04645477 0 0 Z " fill="#0879AC" transform="translate(220,469)"/>
<path d="M0 0 C1.02653826 3.76673312 1.28495693 7.08184221 1 11 C-0.4375 12.6875 -0.4375 12.6875 -2 14 C-2.35169068 15.32860925 -2.68770276 16.66158328 -3 18 C-3.66 18.33 -4.32 18.66 -5 19 C-5.33 19.99 -5.66 20.98 -6 22 C-6.66 22 -7.32 22 -8 22 C-5.92957946 14.39162534 -3.14169523 7.2271408 0 0 Z " fill="#1280AD" transform="translate(253,340)"/>
<path d="M0 0 C0.99 0.33 1.98 0.66 3 1 C1.0894422 2.96463019 -0.82795314 4.92166401 -2.75 6.875 C-3.55824219 7.70837891 -3.55824219 7.70837891 -4.3828125 8.55859375 C-9.37208686 13.60871292 -9.37208686 13.60871292 -13 15 C-13 13.35 -13 11.7 -13 10 C-12.030625 9.566875 -11.06125 9.13375 -10.0625 8.6875 C-6.72268235 7.2985139 -6.72268235 7.2985139 -6 4 C-5.01 4.33 -4.02 4.66 -3 5 C-3 4.01 -3 3.02 -3 2 C-2.01 2 -1.02 2 0 2 C0 1.34 0 0.68 0 0 Z " fill="#2180AF" transform="translate(957,818)"/>
<path d="M0 0 C0 3.28176588 -0.47835901 5.10888212 -2 8 C-3.32303717 8.3721042 -4.65737935 8.70630173 -6 9 C-6.29132813 9.59425781 -6.58265625 10.18851563 -6.8828125 10.80078125 C-8.19230562 13.37855966 -9.68592132 14.74982695 -11.875 16.625 C-12.55304688 17.21539062 -13.23109375 17.80578125 -13.9296875 18.4140625 C-15.88666469 19.91318087 -17.76048537 20.98569068 -20 22 C-16.20517556 17.4872358 -12.29588495 13.09598947 -8.3125 8.75 C-7.83707764 8.23083008 -7.36165527 7.71166016 -6.87182617 7.17675781 C-4.62748642 4.73558784 -2.37273948 2.3171904 0 0 Z " fill="#1F81A4" transform="translate(347,204)"/>
<path d="M0 0 C0.99 0.33 1.98 0.66 3 1 C-15.34042553 9.95744681 -15.34042553 9.95744681 -24 12 C-20.51279384 7.6409923 -17.27239085 7.05447817 -12 6 C-12 5.34 -12 4.68 -12 4 C-10.68 4 -9.36 4 -8 4 C-8 3.34 -8 2.68 -8 2 C-7.05125 1.855625 -6.1025 1.71125 -5.125 1.5625 C-2.1065506 1.17064601 -2.1065506 1.17064601 0 0 Z " fill="#207DA9" transform="translate(839,903)"/>
<path d="M0 0 C0.66 0.33 1.32 0.66 2 1 C-1.63 7.27 -5.26 13.54 -9 20 C-9.33 18.68 -9.66 17.36 -10 16 C-9.34 16 -8.68 16 -8 16 C-8.33 14.68 -8.66 13.36 -9 12 C-8.01 12 -7.02 12 -6 12 C-6.309375 10.824375 -6.309375 10.824375 -6.625 9.625 C-6.74875 8.75875 -6.8725 7.8925 -7 7 C-6.34 6.34 -5.68 5.68 -5 5 C-4.01 5 -3.02 5 -2 5 C-2.33 4.01 -2.66 3.02 -3 2 C-2.01 1.34 -1.02 0.68 0 0 Z " fill="#187DB1" transform="translate(1033,716)"/>
<path d="M0 0 C0.33 0.66 0.66 1.32 1 2 C0.07421875 3.9453125 0.07421875 3.9453125 -1.3125 6.125 C-1.76238281 6.84945313 -2.21226562 7.57390625 -2.67578125 8.3203125 C-3.11277344 8.87460937 -3.54976562 9.42890625 -4 10 C-4.66 10 -5.32 10 -6 10 C-6.226875 10.5775 -6.45375 11.155 -6.6875 11.75 C-8.33038023 14.5663661 -10.39533227 16.08077114 -13 18 C-13 14.54808751 -12.59541234 14.16465814 -10.41015625 11.6796875 C-9.87326172 11.06222656 -9.33636719 10.44476563 -8.78320312 9.80859375 C-7.93145508 8.85146484 -7.93145508 8.85146484 -7.0625 7.875 C-6.21655273 6.90626953 -6.21655273 6.90626953 -5.35351562 5.91796875 C-1.39285714 1.39285714 -1.39285714 1.39285714 0 0 Z " fill="#DBF6FA" transform="translate(700,424)"/>
<path d="M0 0 C0.33 0.66 0.66 1.32 1 2 C-0.4375 4.625 -0.4375 4.625 -2 7 C-3.65 6.67 -5.3 6.34 -7 6 C-7.33 7.32 -7.66 8.64 -8 10 C-9.65 10.33 -11.3 10.66 -13 11 C-13.66 10.01 -14.32 9.02 -15 8 C-14.00097656 7.50628906 -13.00195312 7.01257813 -11.97265625 6.50390625 C-10.6692186 5.85687605 -9.36583602 5.20973489 -8.0625 4.5625 C-7.40314453 4.23701172 -6.74378906 3.91152344 -6.06445312 3.57617188 C-2.81709965 2.10888654 -2.81709965 2.10888654 0 0 Z " fill="#167DAF" transform="translate(485,341)"/>
<path d="M0 0 C5.28 2.31 10.56 4.62 16 7 C16 7.33 16 7.66 16 8 C10.06 8.495 10.06 8.495 4 9 C4.33 8.34 4.66 7.68 5 7 C5.66 7 6.32 7 7 7 C7 6.34 7 5.68 7 5 C6.05125 5.20625 5.1025 5.4125 4.125 5.625 C3.09375 5.74875 2.0625 5.8725 1 6 C0.34 5.34 -0.32 4.68 -1 4 C-0.67 2.68 -0.34 1.36 0 0 Z " fill="#107CAF" transform="translate(410,343)"/>
<path d="M0 0 C2.64 0.33 5.28 0.66 8 1 C5.57542028 3.68234235 2.92489603 5.36856725 -0.1875 7.1875 C-1.08855469 7.71730469 -1.98960937 8.24710938 -2.91796875 8.79296875 C-3.60503906 9.19128906 -4.29210937 9.58960938 -5 10 C-5.66 8.68 -6.32 7.36 -7 6 C-3.86501708 4.14223235 -1.62528568 3.79859524 2 4 C2 3.34 2 2.68 2 2 C1.34 2 0.68 2 0 2 C0 1.34 0 0.68 0 0 Z " fill="#137EAC" transform="translate(873,880)"/>
<path d="M0 0 C0 4.02197773 -1.2932859 5.07959795 -4 8 C-6 9.33333333 -8 10.66666667 -10 12 C-11.33827304 13.66270287 -12.67189785 15.32916181 -14 17 C-16.625 18.875 -16.625 18.875 -19 20 C-19.66 19.67 -20.32 19.34 -21 19 C-18.62755857 16.76809748 -16.25158354 14.53999075 -13.875 12.3125 C-13.20984375 11.68666016 -12.5446875 11.06082031 -11.859375 10.41601562 C-8.00540164 6.80763861 -4.09340161 3.33465583 0 0 Z " fill="#2280AA" transform="translate(369,184)"/>
<path d="M0 0 C0.99 0 1.98 0 3 0 C3.66 2.31 4.32 4.62 5 7 C6.65 6.67 8.3 6.34 10 6 C9.88637738 7.4800841 9.75877092 8.95910074 9.625 10.4375 C9.55539062 11.26121094 9.48578125 12.08492187 9.4140625 12.93359375 C9.27742188 13.61550781 9.14078125 14.29742188 9 15 C8.01 15.495 8.01 15.495 7 16 C4.69 10.72 2.38 5.44 0 0 Z " fill="#177DAC" transform="translate(254,689)"/>
<path d="M0 0 C3.53600465 1.91135386 5.78972846 3.62642766 8 7 C7.01 7 6.02 7 5 7 C4.67 7.66 4.34 8.32 4 9 C2.02 8.34 0.04 7.68 -2 7 C-2.125 4.625 -2.125 4.625 -2 2 C-1.34 1.34 -0.68 0.68 0 0 Z " fill="#137EB4" transform="translate(786,495)"/>
<path d="M0 0 C0.33 0 0.66 0 1 0 C1.33 4.95 1.66 9.9 2 15 C3.65 13.35 5.3 11.7 7 10 C9 8 9 8 11 6 C10.37662098 10.05196362 8.62549075 12.89086621 6 16 C3.69 16.33 1.38 16.66 -1 17 C-0.67 11.39 -0.34 5.78 0 0 Z " fill="#CFEEF7" transform="translate(675,436)"/>
<path d="M0 0 C3 1 3 1 5.375 3.5625 C7.75223198 6.25499333 7.75223198 6.25499333 10.8125 6.3125 C11.8953125 6.1578125 11.8953125 6.1578125 13 6 C13.33 6.99 13.66 7.98 14 9 C16.00016466 10.20882096 16.00016466 10.20882096 18 11 C17.67 11.99 17.34 12.98 17 14 C14.34186556 12.43665425 11.70105417 10.84613472 9.0625 9.25 C8.30775391 8.8065625 7.55300781 8.363125 6.77539062 7.90625 C6.05673828 7.46796875 5.33808594 7.0296875 4.59765625 6.578125 C3.93258057 6.18012695 3.26750488 5.78212891 2.58227539 5.37207031 C0.64806016 3.69481532 0.37267567 2.49067718 0 0 Z " fill="#2182B1" transform="translate(404,868)"/>
<path d="M0 0 C0.75 1.5625 0.75 1.5625 1 4 C0.08734375 5.5159375 0.08734375 5.5159375 -0.84375 7.0625 C-3.37921541 11.32068194 -4.30163143 15.61403525 -5.25 20.4375 C-5.42273438 21.26443359 -5.59546875 22.09136719 -5.7734375 22.94335938 C-6.19308998 24.96002266 -6.5980833 26.97972725 -7 29 C-7.33 29 -7.66 29 -8 29 C-7.75735794 20.47113158 -7.15038764 13.51681317 -3 6 C-2.4225 4.824375 -1.845 3.64875 -1.25 2.4375 C-0.8375 1.633125 -0.425 0.82875 0 0 Z " fill="#2F87AF" transform="translate(699,517)"/>
<path d="M0 0 C6.0018137 -0.21824777 11.19233704 0.4943096 17 2 C17 1.34 17 0.68 17 0 C17.99 0 18.98 0 20 0 C20.33 0.99 20.66 1.98 21 3 C21.99 3.33 22.98 3.66 24 4 C24 4.66 24 5.32 24 6 C22.15535156 5.58427734 22.15535156 5.58427734 20.2734375 5.16015625 C18.64064416 4.79418533 17.00783059 4.42830468 15.375 4.0625 C14.56675781 3.88009766 13.75851562 3.69769531 12.92578125 3.50976562 C8.63101819 2.54955437 4.35222151 1.66903081 0 1 C0 0.67 0 0.34 0 0 Z " fill="#1F7FB0" transform="translate(818,392)"/>
<path d="M0 0 C0 3 0 3 -2.4375 5.5 C-3.283125 6.325 -4.12875 7.15 -5 8 C-5.33 8.99 -5.66 9.98 -6 11 C-7.11375 11.12375 -7.11375 11.12375 -8.25 11.25 C-11.51221354 12.1396946 -12.80954878 13.48503749 -15 16 C-15.33 15.01 -15.66 14.02 -16 13 C-10.72 8.71 -5.44 4.42 0 0 Z " fill="#1A7DA9" transform="translate(386,170)"/>
<path d="M0 0 C3.26008643 3.16952847 6.22237877 6.39937989 9 10 C7.741875 9.835 6.48375 9.67 5.1875 9.5 C2.73543415 9.17841759 0.48349306 9 -2 9 C-2.33 8.34 -2.66 7.68 -3 7 C-2.34 6.01 -1.68 5.02 -1 4 C-0.34 4 0.32 4 1 4 C0.67 2.68 0.34 1.36 0 0 Z " fill="#E8F7F8" transform="translate(323,798)"/>
<path d="M0 0 C0.99 0.495 0.99 0.495 2 1 C2.625 3.0625 2.625 3.0625 3 5 C3.66 5 4.32 5 5 5 C5 4.34 5 3.68 5 3 C5.99 3.33 6.98 3.66 8 4 C6.63055898 6.94956528 5.12169591 9.52468811 3 12 C2.34 12 1.68 12 1 12 C0.67 8.04 0.34 4.08 0 0 Z " fill="#0E7DB0" transform="translate(676,439)"/>
<path d="M0 0 C0 3.55816066 -0.83264416 4.31247876 -3 7 C-3.33 7.66 -3.66 8.32 -4 9 C-4.66 9 -5.32 9 -6 9 C-6 9.66 -6 10.32 -6 11 C-6.66 11 -7.32 11 -8 11 C-8.103125 11.639375 -8.20625 12.27875 -8.3125 12.9375 C-8.539375 13.618125 -8.76625 14.29875 -9 15 C-9.99 15.33 -10.98 15.66 -12 16 C-12 16.66 -12 17.32 -12 18 C-12.66 17.67 -13.32 17.34 -14 17 C-9.70351846 10.87151618 -5.50510597 5.09222302 0 0 Z " fill="#2182AC" transform="translate(714,498)"/>
<path d="M0 0 C0.99 0.495 0.99 0.495 2 1 C2.64419682 3.44972092 3.16936533 5.82743131 3.625 8.3125 C3.7590625 8.98990234 3.893125 9.66730469 4.03125 10.36523438 C4.66310531 13.66313223 5 16.62737674 5 20 C4.01 20 3.02 20 2 20 C-0.29612756 6.3667426 -0.29612756 6.3667426 0 0 Z " fill="#2681AD" transform="translate(1073,418)"/>
<path d="M0 0 C0.66 0.33 1.32 0.66 2 1 C0.54550599 2.0055761 -0.91372443 3.00430435 -2.375 4 C-3.59316406 4.8353125 -3.59316406 4.8353125 -4.8359375 5.6875 C-7 7 -7 7 -9 7 C-9.2475 7.61875 -9.495 8.2375 -9.75 8.875 C-11.20628639 11.35068687 -12.37812506 11.95125002 -15 13 C-15.99 12.34 -16.98 11.68 -18 11 C-15.04968544 9.13283045 -12.08856877 7.28354701 -9.125 5.4375 C-8.28324219 4.90447266 -7.44148438 4.37144531 -6.57421875 3.82226562 C-5.76855469 3.32275391 -4.96289062 2.82324219 -4.1328125 2.30859375 C-3.01737061 1.60947876 -3.01737061 1.60947876 -1.87939453 0.89624023 C-1.25919434 0.60048096 -0.63899414 0.30472168 0 0 Z " fill="#2B81A8" transform="translate(435,137)"/>
<path d="M0 0 C2.47923801 -0.02685095 4.9581884 -0.04676547 7.4375 -0.0625 C8.14455078 -0.07087891 8.85160156 -0.07925781 9.58007812 -0.08789062 C11.38693559 -0.09653588 13.19387603 -0.05220011 15 0 C15.33 0.33 15.66 0.66 16 1 C17.34747084 1.23075082 18.70377565 1.41153063 20.0625 1.5625 C21.361875 1.706875 22.66125 1.85125 24 2 C20.7707136 4.2874112 18.24148102 4.02375554 14.4375 3.42578125 C13.2309375 3.21501953 13.2309375 3.21501953 12 3 C10.4221875 2.74283203 10.4221875 2.74283203 8.8125 2.48046875 C5.8728827 1.9986211 2.93588868 1.50399422 0 1 C0 0.67 0 0.34 0 0 Z " fill="#2281AE" transform="translate(566,939)"/>
<path d="M0 0 C2.2645763 3.39686446 2.76342282 5.95048138 3.5625 9.9375 C4.47761619 14.57925662 4.47761619 14.57925662 5.5859375 19.17578125 C6.32442217 22.42929391 6.05538505 25.67689691 6 29 C4.4507266 26.15561186 3.56436224 23.58190256 2.9296875 20.41015625 C2.75566406 19.54326172 2.58164063 18.67636719 2.40234375 17.78320312 C2.22832031 16.88537109 2.05429688 15.98753906 1.875 15.0625 C1.69324219 14.16853516 1.51148438 13.27457031 1.32421875 12.35351562 C0.49424706 8.15061388 -0.09806443 4.29912535 0 0 Z " fill="#267FAA" transform="translate(223,583)"/>
<path d="M0 0 C1.33333333 0.66666667 2.66666667 1.33333333 4 2 C5.03125 2.433125 6.0625 2.86625 7.125 3.3125 C10.49684854 5.29162849 10.69797512 6.46593248 12 10 C14.02463255 10.65213292 14.02463255 10.65213292 16 11 C16.33 11.99 16.66 12.98 17 14 C12.19556743 12.51142813 9.25334099 9.82136612 5.6875 6.4375 C5.13771484 5.93025391 4.58792969 5.42300781 4.02148438 4.90039062 C2.6560137 3.62651674 1.32468546 2.31623451 0 1 C0 0.67 0 0.34 0 0 Z " fill="#1D79A7" transform="translate(365,839)"/>
<path d="M0 0 C0.103125 0.639375 0.20625 1.27875 0.3125 1.9375 C0.539375 2.618125 0.76625 3.29875 1 4 C1.99 4.33 2.98 4.66 4 5 C4 5.66 4 6.32 4 7 C3.37609375 7.20367187 2.7521875 7.40734375 2.109375 7.6171875 C-0.94145325 9.61717491 -1.00523846 11.62462074 -1.75 15.125 C-1.99234375 16.22070312 -2.2346875 17.31640625 -2.484375 18.4453125 C-2.65453125 19.28835938 -2.8246875 20.13140625 -3 21 C-3.66 21 -4.32 21 -5 21 C-4.35451147 18.24991865 -3.70862234 15.49993244 -3.0625 12.75 C-2.88009766 11.97269531 -2.69769531 11.19539063 -2.50976562 10.39453125 C-2.33251953 9.64042969 -2.15527344 8.88632812 -1.97265625 8.109375 C-1.72914429 7.07248535 -1.72914429 7.07248535 -1.48071289 6.01464844 C-1.0014338 4.00600899 -0.50453398 2.00243058 0 0 Z " fill="#2384B3" transform="translate(234,392)"/>
<path d="M0 0 C0.79921875 0.00902344 1.5984375 0.01804687 2.421875 0.02734375 C3.02515625 0.03894531 3.6284375 0.05054688 4.25 0.0625 C4.25 0.7225 4.25 1.3825 4.25 2.0625 C1.62605694 2.89929277 -0.99904384 3.73206942 -3.625 4.5625 C-4.37136719 4.80097656 -5.11773438 5.03945313 -5.88671875 5.28515625 C-11.5234375 7.0625 -11.5234375 7.0625 -13.75 7.0625 C-13.75 6.4025 -13.75 5.7425 -13.75 5.0625 C-12.1 4.4025 -10.45 3.7425 -8.75 3.0625 C-8.75 2.4025 -8.75 1.7425 -8.75 1.0625 C-5.75519083 0.1901588 -3.11424089 -0.04579766 0 0 Z " fill="#187CA9" transform="translate(749.75,393.9375)"/>
<path d="M0 0 C1.09180878 3.30529345 0.88297902 5.42086032 0.00390625 8.765625 C-0.33930664 10.09980469 -0.33930664 10.09980469 -0.68945312 11.4609375 C-0.93630859 12.38132812 -1.18316406 13.30171875 -1.4375 14.25 C-1.68048828 15.18585937 -1.92347656 16.12171875 -2.17382812 17.0859375 C-2.77412867 19.3929749 -3.38310665 21.69735439 -4 24 C-4.33 24 -4.66 24 -5 24 C-6.125 16.375 -6.125 16.375 -5 13 C-4.34 13 -3.68 13 -3 13 C-2.86722656 12.31292969 -2.73445313 11.62585938 -2.59765625 10.91796875 C-2.42105469 10.01691406 -2.24445313 9.11585938 -2.0625 8.1875 C-1.88847656 7.29417969 -1.71445313 6.40085937 -1.53515625 5.48046875 C-1 3 -1 3 0 0 Z " fill="#1C7AAA" transform="translate(1073,608)"/>
<path d="M0 0 C1.32 0.33 2.64 0.66 4 1 C-2.93 6.445 -2.93 6.445 -10 12 C-10.33 11.01 -10.66 10.02 -11 9 C-10.195625 8.7525 -9.39125 8.505 -8.5625 8.25 C-5.828919 7.27761141 -5.828919 7.27761141 -5.1875 4.875 C-5.125625 4.25625 -5.06375 3.6375 -5 3 C-3.35 2.67 -1.7 2.34 0 2 C0 1.34 0 0.68 0 0 Z " fill="#DAF5FB" transform="translate(385,168)"/>
<path d="M0 0 C2.54189312 0.79094536 5.08351841 1.58273429 7.625 2.375 C8.69427734 2.70757812 8.69427734 2.70757812 9.78515625 3.046875 C13.87193248 4.32164924 17.94357149 5.63079542 22 7 C18.61981469 8.04005702 15.5219721 8.08004482 12 8 C12 7.01 12 6.02 12 5 C8.37 4.34 4.74 3.68 1 3 C0.67 2.01 0.34 1.02 0 0 Z " fill="#237EAD" transform="translate(781,100)"/>
<path d="M0 0 C0.99 0.33 1.98 0.66 3 1 C3 7.6 3 14.2 3 21 C2.67 21 2.34 21 2 21 C1.6616656 18.62561751 1.32920998 16.25065041 1 13.875 C0.90460938 13.20984375 0.80921875 12.5446875 0.7109375 11.859375 C0.16388547 7.87371019 -0.10022182 4.02140062 0 0 Z " fill="#207FAC" transform="translate(218,542)"/>
<path d="M0 0 C1.32 0.66 2.64 1.32 4 2 C4 4.97 4 7.94 4 11 C1.35247996 8.42215154 -0.94432065 6.08351902 -3 3 C-2.01 2.01 -1.02 1.02 0 0 Z " fill="#E7F7FA" transform="translate(986,232)"/>
<path d="M0 0 C0.99 0 1.98 0 3 0 C3.33 1.98 3.66 3.96 4 6 C4.66 6 5.32 6 6 6 C6.33 5.01 6.66 4.02 7 3 C7.66 3.33 8.32 3.66 9 4 C9 5.32 9 6.64 9 8 C8.34 8 7.68 8 7 8 C7 9.65 7 11.3 7 13 C3.67006966 9.17058011 1.94675475 4.62477778 0 0 Z " fill="#177DAA" transform="translate(268,717)"/>
<path d="M0 0 C0.33 0 0.66 0 1 0 C1 3.3 1 6.6 1 10 C0.34 10 -0.32 10 -1 10 C-1.33 13.3 -1.66 16.6 -2 20 C-2.66 20 -3.32 20 -4 20 C-3.34034961 13.13963599 -1.7637236 6.65556077 0 0 Z " fill="#D1F0F8" transform="translate(1074,608)"/>
<path d="M0 0 C2.64 0 5.28 0 8 0 C8.268125 0.969375 8.53625 1.93875 8.8125 2.9375 C9.204375 3.948125 9.59625 4.95875 10 6 C10.99 6.33 11.98 6.66 13 7 C12.34 7.66 11.68 8.32 11 9 C9.54033966 7.87672229 8.08231636 6.75131706 6.625 5.625 C5.81289063 4.99851562 5.00078125 4.37203125 4.1640625 3.7265625 C2 2 2 2 0 0 Z " fill="#EEFCFC" transform="translate(781,491)"/>
<path d="M0 0 C1.65 0 3.3 0 5 0 C5 0.66 5 1.32 5 2 C6.65 1.67 8.3 1.34 10 1 C9.67 1.99 9.34 2.98 9 4 C10.65 3.67 12.3 3.34 14 3 C14.33 4.65 14.66 6.3 15 8 C10.05 5.69 5.1 3.38 0 1 C0 0.67 0 0.34 0 0 Z " fill="#1C80B1" transform="translate(452,899)"/>
<path d="M0 0 C0.598125 0.165 1.19625 0.33 1.8125 0.5 C4.11344336 1.1114124 4.11344336 1.1114124 7 1 C7.99 2.98 8.98 4.96 10 7 C9.34 7 8.68 7 8 7 C7.01 8.485 7.01 8.485 6 10 C4.99723227 8.52270825 3.99785546 7.04311423 3 5.5625 C2.443125 4.73878906 1.88625 3.91507813 1.3125 3.06640625 C0 1 0 1 0 0 Z " fill="#157EB1" transform="translate(290,754)"/>
<path d="M0 0 C0.33 0 0.66 0 1 0 C1.08226668 3.04386724 0.97608217 5.07175348 0 8 C0.87914688 10.6569191 0.87914688 10.6569191 2 13 C1.34 13.66 0.68 14.32 0 15 C-0.69937202 13.5682384 -1.38412718 12.12932968 -2.0625 10.6875 C-2.44535156 9.88699219 -2.82820312 9.08648438 -3.22265625 8.26171875 C-4 6 -4 6 -3 3 C-3 3.66 -3 4.32 -3 5 C-2.34 5 -1.68 5 -1 5 C-0.67 3.35 -0.34 1.7 0 0 Z " fill="#117AAB" transform="translate(253,672)"/>
<path d="M0 0 C0.66 0 1.32 0 2 0 C7.44607843 13.8627451 7.44607843 13.8627451 7 21 C5.22554485 18.33831727 4.51793179 16.76390481 3.7109375 13.76953125 C3.38222656 12.56586914 3.38222656 12.56586914 3.046875 11.33789062 C2.82515625 10.50451172 2.6034375 9.67113281 2.375 8.8125 C2.14554688 7.96751953 1.91609375 7.12253906 1.6796875 6.25195312 C1.11489745 4.16928982 0.55680036 2.08481356 0 0 Z " fill="#1C7DAA" transform="translate(232,627)"/>
<path d="M0 0 C0 0.99 0 1.98 0 3 C-0.61488281 3.25394531 -1.22976563 3.50789063 -1.86328125 3.76953125 C-2.67152344 4.11371094 -3.47976563 4.45789063 -4.3125 4.8125 C-5.11300781 5.14894531 -5.91351562 5.48539062 -6.73828125 5.83203125 C-8.96515745 6.98200704 -10.34987767 8.13626961 -12 10 C-12.99 9.67 -13.98 9.34 -15 9 C-12.04272325 5.70474877 -9.30729258 3.98883968 -5.25 2.25 C-4.26515625 1.82203125 -3.2803125 1.3940625 -2.265625 0.953125 C-1.51796875 0.63859375 -0.7703125 0.3240625 0 0 Z " fill="#207EA9" transform="translate(732,488)"/>
<path d="M0 0 C0.66 0.33 1.32 0.66 2 1 C2 1.66 2 2.32 2 3 C2.66 3 3.32 3 4 3 C3.6875 4.875 3.6875 4.875 3 7 C2.01 7.66 1.02 8.32 0 9 C0 8.01 0 7.02 0 6 C-0.66 6 -1.32 6 -2 6 C-2.33 6.99 -2.66 7.98 -3 9 C-3.33 8.34 -3.66 7.68 -4 7 C-3.22265625 5.2734375 -3.22265625 5.2734375 -2.0625 3.375 C-1.381875 2.26125 -0.70125 1.1475 0 0 Z " fill="#0F7CAF" transform="translate(282,285)"/>
<path d="M0 0 C0.66 0.66 1.32 1.32 2 2 C1.01 3.98 0.02 5.96 -1 8 C-1.99 7.67 -2.98 7.34 -4 7 C-4.66 8.65 -5.32 10.3 -6 12 C-6.99 12 -7.98 12 -9 12 C-7.68858144 10.18671738 -6.37583526 8.37439486 -5.0625 6.5625 C-3.96615234 5.04849609 -3.96615234 5.04849609 -2.84765625 3.50390625 C-1 1 -1 1 0 0 Z " fill="#1A7CAB" transform="translate(303,255)"/>
<path d="M0 0 C2.31 0 4.62 0 7 0 C7 0.99 7 1.98 7 3 C6.34 3 5.68 3 5 3 C5 5.64 5 8.28 5 11 C3.33167423 8.49751135 2.37618326 6.58850813 1.375 3.8125 C1.11460937 3.09707031 0.85421875 2.38164062 0.5859375 1.64453125 C0.39257812 1.10183594 0.19921875 0.55914062 0 0 Z " fill="#0F7BAC" transform="translate(911,464)"/>
<path d="M0 0 C-0.875 3.875 -0.875 3.875 -2 5 C-4.01594582 5.23427778 -6.038474 5.41336124 -8.0625 5.5625 C-9.16722656 5.64628906 -10.27195312 5.73007813 -11.41015625 5.81640625 C-12.26480469 5.87699219 -13.11945313 5.93757813 -14 6 C-11.47732009 4.31821339 -9.18908177 3.09893258 -6.4375 1.875 C-5.65246094 1.52179688 -4.86742187 1.16859375 -4.05859375 0.8046875 C-2 0 -2 0 0 0 Z " fill="#1E7FAE" transform="translate(491,111)"/>
<path d="M0 0 C2.66735273 2.48952921 4.55746343 4.63408134 6 8 C5.34 8 4.68 8 4 8 C4 8.66 4 9.32 4 10 C3.01 10 2.02 10 1 10 C-0.60725635 6.78548731 -0.05748185 3.56387464 0 0 Z " fill="#167FAF" transform="translate(794,502)"/>
<path d="M0 0 C-1.00976646 3.63515926 -1.94643718 4.95669389 -4.9375 7.375 C-6.4534375 8.179375 -6.4534375 8.179375 -8 9 C-8.99 8.67 -9.98 8.34 -11 8 C-9.54712339 6.66072279 -8.08752741 5.32873153 -6.625 4 C-5.81289063 3.2575 -5.00078125 2.515 -4.1640625 1.75 C-2 0 -2 0 0 0 Z " fill="#DFF8FC" transform="translate(714,414)"/>
<path d="M0 0 C1.32 0.66 2.64 1.32 4 2 C2.71186658 2.83878455 1.41936744 3.67086783 0.125 4.5 C-0.59429688 4.9640625 -1.31359375 5.428125 -2.0546875 5.90625 C-4 7 -4 7 -6 7 C-6.33 5.68 -6.66 4.36 -7 3 C-6.01 2.34 -5.02 1.68 -4 1 C-3.01 1.66 -2.02 2.32 -1 3 C-0.67 2.01 -0.34 1.02 0 0 Z " fill="#157DAC" transform="translate(721,405)"/>
<path d="M0 0 C0.66 0.33 1.32 0.66 2 1 C-2.78659975 6.34972913 -7.08787021 7.78021239 -14 9 C-9.80022081 5.3421278 -5.12798061 2.20634136 0 0 Z " fill="#D9F5FB" transform="translate(866,890)"/>
<path d="M0 0 C1.32 0 2.64 0 4 0 C4 0.66 4 1.32 4 2 C4.969375 2.12375 5.93875 2.2475 6.9375 2.375 C8.4534375 2.684375 8.4534375 2.684375 10 3 C10.33 3.66 10.66 4.32 11 5 C12.64142963 6.0409066 14.30712215 7.04504326 16 8 C15.01 8.495 15.01 8.495 14 9 C11.54961707 7.75717988 9.226675 6.47117661 6.875 5.0625 C6.21628906 4.67642578 5.55757813 4.29035156 4.87890625 3.89257812 C3.248387 2.93553422 1.62363816 1.96867185 0 1 C0 0.67 0 0.34 0 0 Z M10 2 C12 3 12 3 12 3 Z " fill="#2280AB" transform="translate(422,882)"/>
<path d="M0 0 C0.33 0.66 0.66 1.32 1 2 C1.66 2 2.32 2 3 2 C1.98408579 7.46864457 0.92908943 12.76390013 -1 18 C-1.33 18 -1.66 18 -2 18 C-1.835 17.05125 -1.67 16.1025 -1.5 15.125 C-0.90363357 11.08296088 -0.96395949 7.11617614 -1.0625 3.0390625 C-1 1 -1 1 0 0 Z " fill="#167CAC" transform="translate(1065,630)"/>
<path d="M0 0 C0.99 0.495 0.99 0.495 2 1 C2.68473395 3.32809543 3.34853151 5.66237777 4 8 C4.556875 9.051875 5.11375 10.10375 5.6875 11.1875 C7.13666571 14.29285509 6.98875764 14.90100795 6 18 C4.98819502 15.94326547 3.99098523 13.87934652 3 11.8125 C2.443125 10.66394531 1.88625 9.51539063 1.3125 8.33203125 C0.08236325 5.20909481 -0.29804612 3.29713518 0 0 Z " fill="#D7F5FB" transform="translate(387,307)"/>
<path d="M0 0 C1 3 1 3 0.375 5.375 C-1.28001449 8.53457311 -3.42450864 10.55658512 -6 13 C-6.33 13.66 -6.66 14.32 -7 15 C-7.66 14.67 -8.32 14.34 -9 14 C-6.03 9.38 -3.06 4.76 0 0 Z " fill="#237DA7" transform="translate(293,268)"/>
<path d="M0 0 C-2.7819368 3.27286682 -6.27954067 4.96427697 -10 7 C-10.1875 4.625 -10.1875 4.625 -10 2 C-6.3558226 -0.4294516 -4.28758728 -0.16179575 0 0 Z " fill="#147EB0" transform="translate(418,243)"/>
<path d="M0 0 C1.67542976 0.28604898 3.34385343 0.61781233 5 1 C2.5 3 2.5 3 0 5 C-0.86625 5.763125 -1.7325 6.52625 -2.625 7.3125 C-3.40875 7.869375 -4.1925 8.42625 -5 9 C-5.99 8.67 -6.98 8.34 -8 8 C-4.25 5 -4.25 5 -2 5 C-1.855625 4.360625 -1.71125 3.72125 -1.5625 3.0625 C-1 1 -1 1 0 0 Z " fill="#DBF3FA" transform="translate(402,154)"/>
<path d="M0 0 C6.03280791 1.6166348 9.950809 3.16709462 14 8 C13.67 8.66 13.34 9.32 13 10 C10.8304939 8.52485505 8.66436293 7.0451561 6.5 5.5625 C5.87996094 5.14162109 5.25992188 4.72074219 4.62109375 4.28710938 C3.06289602 3.21691863 1.52921949 2.11120482 0 1 C0 0.67 0 0.34 0 0 Z " fill="#DCF7FC" transform="translate(888,150)"/>
<path d="M0 0 C2.93804996 -0.08086376 5.87388075 -0.1404283 8.8125 -0.1875 C9.64587891 -0.21263672 10.47925781 -0.23777344 11.33789062 -0.26367188 C12.54155273 -0.27817383 12.54155273 -0.27817383 13.76953125 -0.29296875 C14.87711792 -0.31653442 14.87711792 -0.31653442 16.00708008 -0.34057617 C18.52230522 0.08925833 19.39441516 1.07463062 21 3 C20.40574219 2.93941406 19.81148437 2.87882812 19.19921875 2.81640625 C12.80300071 2.16982122 6.40328386 1.57215654 0 1 C0 0.67 0 0.34 0 0 Z " fill="#D1EEF8" transform="translate(685,81)"/>
<path d="M0 0 C0.66 0 1.32 0 2 0 C2 0.66 2 1.32 2 2 C2.66 2 3.32 2 4 2 C4.33 2.66 4.66 3.32 5 4 C5.99 4.66 6.98 5.32 8 6 C4.29218328 7.23593891 3.32489747 6.5678132 -0.1875 5.0625 C-1.08855469 4.68222656 -1.98960937 4.30195312 -2.91796875 3.91015625 C-3.60503906 3.60980469 -4.29210937 3.30945313 -5 3 C-5 2.67 -5 2.34 -5 2 C-3.35 1.67 -1.7 1.34 0 1 C0 0.67 0 0.34 0 0 Z " fill="#1A7EB1" transform="translate(494,914)"/>
<path d="M0 0 C-0.8125 2.4375 -0.8125 2.4375 -2 5 C-2.99 5.33 -3.98 5.66 -5 6 C-5 5.34 -5 4.68 -5 4 C-8.0745356 4.7763932 -8.0745356 4.7763932 -10 7 C-10.99 6.34 -11.98 5.68 -13 5 C-11.21046815 4.16209211 -9.41830305 3.32980604 -7.625 2.5 C-6.62726562 2.0359375 -5.62953125 1.571875 -4.6015625 1.09375 C-2 0 -2 0 0 0 Z " fill="#E2F6FB" transform="translate(842,904)"/>
<path d="M0 0 C0.66 0 1.32 0 2 0 C2.19335938 0.61488281 2.38671875 1.22976563 2.5859375 1.86328125 C2.84632813 2.67152344 3.10671875 3.47976563 3.375 4.3125 C3.63023437 5.11300781 3.88546875 5.91351562 4.1484375 6.73828125 C4.98831811 9.22724528 4.98831811 9.22724528 7 12 C6.67 12.99 6.34 13.98 6 15 C4.80017556 13.07010782 3.61547182 11.13080772 2.4375 9.1875 C1.44556641 7.56908203 1.44556641 7.56908203 0.43359375 5.91796875 C-1 3 -1 3 0 0 Z " fill="#157FB4" transform="translate(283,739)"/>
<path d="M0 0 C0.33 0.99 0.66 1.98 1 3 C2.83013208 4.3421094 2.83013208 4.3421094 5 5.5 C8.88888889 7.66666667 8.88888889 7.66666667 10 11 C6.26130751 11 5.63449295 10.09514308 2.9375 7.625 C2.24527344 6.99851562 1.55304687 6.37203125 0.83984375 5.7265625 C-0.46076965 4.50602933 -1.73879097 3.26120903 -3 2 C-2.01 1.34 -1.02 0.68 0 0 Z " fill="#2081AE" transform="translate(875,412)"/>
<path d="M0 0 C1.32 1.32 2.64 2.64 4 4 C3.34 5.32 2.68 6.64 2 8 C-0.64 6.68 -3.28 5.36 -6 4 C-6 3.67 -6 3.34 -6 3 C-4.02 2.67 -2.04 2.34 0 2 C0 1.34 0 0.68 0 0 Z " fill="#1480B2" transform="translate(860,400)"/>
<path d="M0 0 C0.33 0 0.66 0 1 0 C1.38133299 1.9914056 1.71325582 3.99279077 2 6 C1.67 6.33 1.34 6.66 1 7 C0.84344973 8.48638992 0.74933057 9.97949127 0.68359375 11.47265625 C0.64169922 12.37177734 0.59980469 13.27089844 0.55664062 14.19726562 C0.51732422 15.14279297 0.47800781 16.08832031 0.4375 17.0625 C0.39431641 18.01189453 0.35113281 18.96128906 0.30664062 19.93945312 C0.20020724 22.29281353 0.09818992 24.64628354 0 27 C-0.33 27 -0.66 27 -1 27 C-1.02913821 23.4375173 -1.04684529 19.87506546 -1.0625 16.3125 C-1.07087891 15.30509766 -1.07925781 14.29769531 -1.08789062 13.25976562 C-1.09111328 12.28330078 -1.09433594 11.30683594 -1.09765625 10.30078125 C-1.10289307 9.40528564 -1.10812988 8.50979004 -1.11352539 7.5871582 C-0.99840198 4.96358241 -0.58234285 2.55706947 0 0 Z " fill="#DEF8FC" transform="translate(387,279)"/>
<path d="M0 0 C3.25548753 3.02295271 5.68977058 6.20462309 8 10 C8 10.66 8 11.32 8 12 C7.34 12 6.68 12 6 12 C5.525625 11.175 5.05125 10.35 4.5625 9.5 C4.046875 8.675 3.53125 7.85 3 7 C2.01 7 1.02 7 0 7 C-0.93423645 3.98968256 -1.04449911 3.13349732 0 0 Z " fill="#2582AF" transform="translate(1005,264)"/>
<path d="M0 0 C2.93200474 2.85276137 5.64315404 5.65079784 8 9 C7.67 9.66 7.34 10.32 7 11 C3.8255824 9.90537324 3.01085843 9.01822665 1.25 6.0625 C0 3 0 3 0 0 Z " fill="#DAF5FB" transform="translate(296,764)"/>
<path d="M0 0 C1.98 0 3.96 0 6 0 C3.14723863 2.93200474 0.34920216 5.64315404 -3 8 C-3 6.68 -3 5.36 -3 4 C-2.34 4 -1.68 4 -1 4 C-0.67 2.68 -0.34 1.36 0 0 Z " fill="#187FB4" transform="translate(699,420)"/>
<path d="M0 0 C0.93423645 3.01031744 1.04449911 3.86650268 0 7 C-1.32 6.34 -2.64 5.68 -4 5 C-4.66 5.66 -5.32 6.32 -6 7 C-6.66 6.34 -7.32 5.68 -8 5 C-5.31158141 2.74754119 -3.35358125 1.11786042 0 0 Z " fill="#127FAF" transform="translate(494,335)"/>
<path d="M0 0 C3.3502463 3.81234923 5.16974789 7.33285711 7 12 C6.34 12 5.68 12 5 12 C4.67 10.68 4.34 9.36 4 8 C2.68 8.33 1.36 8.66 0 9 C0 6.03 0 3.06 0 0 Z " fill="#1F82AD" transform="translate(1029,302)"/>
<path d="M0 0 C0 0.99 0 1.98 0 3 C-0.66 3 -1.32 3 -2 3 C-2.33 4.32 -2.66 5.64 -3 7 C-3.66 7 -4.32 7 -5 7 C-5.33 7.99 -5.66 8.98 -6 10 C-6.33 9.34 -6.66 8.68 -7 8 C-7.99 7.67 -8.98 7.34 -10 7 C-6.7 4.69 -3.4 2.38 0 0 Z " fill="#1A7EAE" transform="translate(401,159)"/>
<path d="M0 0 C0 0.99 0 1.98 0 3 C-0.99 3.33 -1.98 3.66 -3 4 C-3.33 4.99 -3.66 5.98 -4 7 C-6.64 7 -9.28 7 -12 7 C-8.35140239 3.95950199 -4.2555467 2.03481238 0 0 Z " fill="#227FA8" transform="translate(458,125)"/>
<path d="M0 0 C-5.1468192 3.16727335 -9.158256 3.35050464 -15 3 C-12.623045 0.623045 -11.31588099 0.44788865 -8.0625 -0.1875 C-7.18722656 -0.36667969 -6.31195312 -0.54585937 -5.41015625 -0.73046875 C-3 -1 -3 -1 0 0 Z " fill="#DEF9FD" transform="translate(749,938)"/>
<path d="M0 0 C0.66 0.33 1.32 0.66 2 1 C1.34 2.32 0.68 3.64 0 5 C-0.99 5 -1.98 5 -3 5 C-3.33 5.99 -3.66 6.98 -4 8 C-5.65 7.67 -7.3 7.34 -9 7 C-6.3765992 4.08511023 -3.28183606 2.11496102 0 0 Z " fill="#D5F4F7" transform="translate(884,879)"/>
<path d="M0 0 C3.465 1.98 3.465 1.98 7 4 C6.67 4.99 6.34 5.98 6 7 C3.37886292 7 1.49064888 6.68707555 -1 6 C-0.34 5.34 0.32 4.68 1 4 C1.66 4.33 2.32 4.66 3 5 C3 4.34 3 3.68 3 3 C2.01 2.67 1.02 2.34 0 2 C0 1.34 0 0.68 0 0 Z " fill="#EAF8F9" transform="translate(394,864)"/>
<path d="M0 0 C0.66 0.33 1.32 0.66 2 1 C1.01 2.485 1.01 2.485 0 4 C-0.99 4 -1.98 4 -3 4 C-3.20625 4.61875 -3.4125 5.2375 -3.625 5.875 C-5.54775888 8.84653645 -7.66594527 9.13024659 -11 10 C-7.50640535 6.40365256 -3.88901869 3.16548033 0 0 Z " fill="#D3F2F9" transform="translate(411,247)"/>
<path d="M0 0 C4.69165109 2.97519337 8.84703191 6.31393365 13 10 C12.01 10.495 12.01 10.495 11 11 C9.85050412 10.21366078 8.70551011 9.42073742 7.5625 8.625 C6.92441406 8.18414062 6.28632812 7.74328125 5.62890625 7.2890625 C4 6 4 6 3 4 C2.01 3.67 1.02 3.34 0 3 C0 2.01 0 1.02 0 0 Z " fill="#237DA6" transform="translate(916,171)"/>
<path d="M0 0 C2.64 0 5.28 0 8 0 C8 0.66 8 1.32 8 2 C10.64 2.33 13.28 2.66 16 3 C15.67 3.66 15.34 4.32 15 5 C13.06077578 4.54901762 11.12366406 4.08894441 9.1875 3.625 C8.10855469 3.36976563 7.02960937 3.11453125 5.91796875 2.8515625 C3 2 3 2 0 0 Z " fill="#1C7FA6" transform="translate(520,927)"/>
<path d="M0 0 C0.66 0.33 1.32 0.66 2 1 C0.8141763 4.37503669 -0.27573689 6.64722731 -3 9 C-3.66 7.35 -4.32 5.7 -5 4 C-4.34 4 -3.68 4 -3 4 C-3 3.34 -3 2.68 -3 2 C-2.01 2 -1.02 2 0 2 C0 1.34 0 0.68 0 0 Z " fill="#0F7DAF" transform="translate(1019,738)"/>
<path d="M0 0 C0.99 0 1.98 0 3 0 C3 1.32 3 2.64 3 4 C4.98 4.66 6.96 5.32 9 6 C8.67 6.66 8.34 7.32 8 8 C3.545 6.02 3.545 6.02 -1 4 C-0.67 2.68 -0.34 1.36 0 0 Z " fill="#147BAF" transform="translate(844,395)"/>
<path d="M0 0 C3.39417765 3.12621626 5.6062718 5.56541027 7 10 C6.34 9.67 5.68 9.34 5 9 C4.01 10.485 4.01 10.485 3 12 C2.814375 10.4221875 2.814375 10.4221875 2.625 8.8125 C2.08859218 5.54041229 1.36119965 2.99463924 0 0 Z " fill="#137BAC" transform="translate(998,255)"/>
<path d="M0 0 C0.99 0.33 1.98 0.66 3 1 C0.03 4.63 -2.94 8.26 -6 12 C-6.33 11.01 -6.66 10.02 -7 9 C-6.34 9 -5.68 9 -5 9 C-4.5978125 8.1646875 -4.5978125 8.1646875 -4.1875 7.3125 C-2.89877353 4.80287477 -1.47073522 2.40665764 0 0 Z " fill="#D5F5FB" transform="translate(318,232)"/>
<path d="M0 0 C2.97 0.495 2.97 0.495 6 1 C2.2440786 4.42931954 -2.23466745 5.56429083 -7 7 C-7 6.34 -7 5.68 -7 5 C-6.030625 4.54625 -5.06125 4.0925 -4.0625 3.625 C-0.92920418 2.34213779 -0.92920418 2.34213779 0 0 Z " fill="#157BA6" transform="translate(808,914)"/>
<path d="M0 0 C-1.28716647 1.00578589 -2.57988658 2.00446798 -3.875 3 C-4.95394531 3.8353125 -4.95394531 3.8353125 -6.0546875 4.6875 C-8 6 -8 6 -10 6 C-10 4.68 -10 3.36 -10 2 C-3.375 -1.125 -3.375 -1.125 0 0 Z " fill="#1A7BA6" transform="translate(916,858)"/>
<path d="M0 0 C0.99 0.33 1.98 0.66 3 1 C0.36 4.3 -2.28 7.6 -5 11 C-5.33 10.01 -5.66 9.02 -6 8 C-5.34 8 -4.68 8 -4 8 C-3.67 6.35 -3.34 4.7 -3 3 C-2.01 2.67 -1.02 2.34 0 2 C0 1.34 0 0.68 0 0 Z " fill="#1C7DAB" transform="translate(991,779)"/>
<path d="M0 0 C0.66 0 1.32 0 2 0 C-0.89066059 9.59453303 -0.89066059 9.59453303 -4 13 C-4 11.02 -4 9.04 -4 7 C-3.34 7 -2.68 7 -2 7 C-1.855625 6.21625 -1.71125 5.4325 -1.5625 4.625 C-1 2 -1 2 0 0 Z " fill="#1B7BA9" transform="translate(1049,681)"/>
<path d="M0 0 C1.56962213 6.27848851 -0.43368101 10.30946658 -3 16 C-3.66 15.67 -4.32 15.34 -5 15 C-3.35 10.05 -1.7 5.1 0 0 Z " fill="#2781AA" transform="translate(244,362)"/>
<path d="M0 0 C2.98704569 0.49784095 4.39324263 1.26216175 7 3 C5.02 3.99 3.04 4.98 1 6 C0.34 4.35 -0.32 2.7 -1 1 C-0.67 0.67 -0.34 0.34 0 0 Z " fill="#E8F6F8" transform="translate(437,130)"/>
<path d="M0 0 C3.21852831 0.63065757 5.50801069 1.78020695 8.25 3.5625 C8.95640625 4.01753906 9.6628125 4.47257813 10.390625 4.94140625 C11.18726563 5.46541016 11.18726563 5.46541016 12 6 C11.01 6.33 10.02 6.66 9 7 C7.30485863 6.04906703 5.63631892 5.04892238 4 4 C3.34 4 2.68 4 2 4 C2 3.01 2 2.02 2 1 C1.34 0.67 0.68 0.34 0 0 Z " fill="#D9F5FA" transform="translate(410,876)"/>
<path d="M0 0 C4.41889613 1.35021826 6.34345343 3.26115668 9 7 C5.80780296 7 4.60391451 6.76394209 2 5 C0.75 2.375 0.75 2.375 0 0 Z " fill="#D8F6FB" transform="translate(872,415)"/>
<path d="M0 0 C3.63 0.66 7.26 1.32 11 2 C7.5647952 4.29013653 6.014669 4.17842973 2 4 C1.34 2.68 0.68 1.36 0 0 Z " fill="#1B7FBA" transform="translate(733,88)"/>
<path d="M0 0 C2.97 0.33 5.94 0.66 9 1 C9.66 2.65 10.32 4.3 11 6 C6.95743617 4.77782954 3.50711041 3.37245704 0 1 C0 0.67 0 0.34 0 0 Z " fill="#1A7DAB" transform="translate(438,891)"/>
<path d="M0 0 C1.32 0 2.64 0 4 0 C2.8141763 3.37503669 1.72426311 5.64722731 -1 8 C-1.125 2.25 -1.125 2.25 0 0 Z " fill="#1580AC" transform="translate(1012,747)"/>
<path d="M0 0 C3.44216672 2.6598561 3.99504674 5.90288286 5 10 C3.02 9.01 1.04 8.02 -1 7 C-0.67 4.69 -0.34 2.38 0 0 Z " fill="#187CA8" transform="translate(1051,349)"/>
<path d="M0 0 C2.64 1.98 5.28 3.96 8 6 C7.67 6.66 7.34 7.32 7 8 C5.1875 7.8125 5.1875 7.8125 3 7 C0 2.82142857 0 2.82142857 0 0 Z " fill="#1A81B0" transform="translate(931,183)"/>
<path d="M0 0 C0 0.66 0 1.32 0 2 C-4.05431692 3.15837626 -6.21812119 2.83691257 -10 1 C-10 0.67 -10 0.34 -10 0 C-6.30458414 -0.95024979 -3.69541586 -0.95024979 0 0 Z " fill="#E9F6F4" transform="translate(428,347)"/>
<path d="M0 0 C1.32 0 2.64 0 4 0 C4.625 1.875 4.625 1.875 5 4 C4.34 4.66 3.68 5.32 3 6 C1.68 4.68 0.36 3.36 -1 2 C-0.67 1.34 -0.34 0.68 0 0 Z " fill="#E4F4F4" transform="translate(408,338)"/>
<path d="M0 0 C-2.31 0.66 -4.62 1.32 -7 2 C-7 2.66 -7 3.32 -7 4 C-8.875 4.625 -8.875 4.625 -11 5 C-11.66 4.34 -12.32 3.68 -13 3 C-11.5903653 2.29819469 -10.17192359 1.61406042 -8.75 0.9375 C-7.96109375 0.55464844 -7.1721875 0.17179688 -6.359375 -0.22265625 C-3.74006478 -1.08564091 -2.55144824 -0.93045933 0 0 Z " fill="#CCEEF7" transform="translate(430,241)"/>
<path d="M0 0 C1.14926266 0.95421808 2.29430541 1.91352045 3.4375 2.875 C4.07558594 3.40867188 4.71367188 3.94234375 5.37109375 4.4921875 C7 6 7 6 8 8 C5.03 7.505 5.03 7.505 2 7 C1.34 4.69 0.68 2.38 0 0 Z " fill="#207DAE" transform="translate(969,220)"/>
<path d="M0 0 C2.75 -0.25 2.75 -0.25 6 0 C8.375 2 8.375 2 10 4 C8.375 4.75 8.375 4.75 6 5 C2.75 3.125 2.75 3.125 0 1 C0 0.67 0 0.34 0 0 Z " fill="#E0F4F8" transform="translate(880,145)"/>
<path d="M0 0 C1.46067199 0.45082469 2.91848032 0.91093537 4.375 1.375 C5.18710937 1.63023438 5.99921875 1.88546875 6.8359375 2.1484375 C9 3 9 3 11 5 C9.02 5 7.04 5 5 5 C5 4.34 5 3.68 5 3 C3.35 2.67 1.7 2.34 0 2 C0 1.34 0 0.68 0 0 Z " fill="#1C80AB" transform="translate(827,118)"/>
<path d="M0 0 C4.29 0 8.58 0 13 0 C11.515 1.98 11.515 1.98 10 4 C6.7 3.01 3.4 2.02 0 1 C0 0.67 0 0.34 0 0 Z " fill="#E3F5FC" transform="translate(800,106)"/>
<path d="M0 0 C0.99 0.99 1.98 1.98 3 3 C2.01 4.485 2.01 4.485 1 6 C-2.875 4.25 -2.875 4.25 -4 2 C-2.68 1.34 -1.36 0.68 0 0 Z " fill="#157DAF" transform="translate(396,859)"/>
<path d="M0 0 C2.64752004 2.57784846 4.94432065 4.91648098 7 8 C4.69 7.67 2.38 7.34 0 7 C0 4.69 0 2.38 0 0 Z " fill="#E4F9FB" transform="translate(332,808)"/>
<path d="M0 0 C0.33 0 0.66 0 1 0 C1.125 3.375 1.125 3.375 1 7 C0.34 7.66 -0.32 8.32 -1 9 C-1.6425235 11.06874034 -1.6425235 11.06874034 -2 13 C-2.66 13 -3.32 13 -4 13 C-3.52140759 11.39566191 -3.04210442 9.79153584 -2.5625 8.1875 C-2.29566406 7.29417969 -2.02882813 6.40085937 -1.75390625 5.48046875 C-1.19612127 3.64526945 -0.60655425 1.81966274 0 0 Z " fill="#D0F2F9" transform="translate(1055,670)"/>
<path d="M0 0 C0.99 0.495 0.99 0.495 2 1 C2 3.64 2 6.28 2 9 C2.66 9 3.32 9 4 9 C3.67 9.99 3.34 10.98 3 12 C2.34 12 1.68 12 1 12 C0.67 8.04 0.34 4.08 0 0 Z " fill="#227E9F" transform="translate(676,439)"/>
<path d="M0 0 C2 1 4 2 6 3 C5.34 4.32 4.68 5.64 4 7 C2.68 6.34 1.36 5.68 0 5 C0 3.35 0 1.7 0 0 Z " fill="#1580B5" transform="translate(690,425)"/>
<path d="M0 0 C0.66 0.33 1.32 0.66 2 1 C-0.85021875 3.32240046 -3.46355091 4.93906527 -7 6 C-9.15625 5.546875 -9.15625 5.546875 -11 5 C-9.21289414 4.13633178 -7.4201535 3.28431406 -5.625 2.4375 C-4.62726562 1.96183594 -3.62953125 1.48617188 -2.6015625 0.99609375 C-1.74304688 0.66738281 -0.88453125 0.33867187 0 0 Z " fill="#DDF6FB" transform="translate(736,401)"/>
<path d="M0 0 C1 3 1 3 0 6 C0.66 6 1.32 6 2 6 C2 6.66 2 7.32 2 8 C0.68 8 -0.64 8 -2 8 C-2.6875 6.25 -2.6875 6.25 -3 4 C-1.5625 1.75 -1.5625 1.75 0 0 Z " fill="#147CAC" transform="translate(308,248)"/>
<path d="M0 0 C0 3.3408643 -0.32717969 5.11058309 -2 8 C-5.125 8.8125 -5.125 8.8125 -8 9 C-7.04270084 7.87411986 -6.08412105 6.7493285 -5.125 5.625 C-4.59132813 4.99851563 -4.05765625 4.37203125 -3.5078125 3.7265625 C-2.38567993 2.44163349 -1.20628025 1.20628025 0 0 Z " fill="#318CB1" transform="translate(347,204)"/>
<path d="M0 0 C0 0.33 0 0.66 0 1 C-1.93475671 1.53093324 -3.87293155 2.04942317 -5.8125 2.5625 C-7.43091797 2.99755859 -7.43091797 2.99755859 -9.08203125 3.44140625 C-12 4 -12 4 -15 3 C-11.17568051 -0.82431949 -5.15489695 -0.12572919 0 0 Z " fill="#DFF7FE" transform="translate(557,90)"/>
<path d="M0 0 C2.31 1.98 4.62 3.96 7 6 C4.3333581 7.33332095 2.83319697 6.67102033 0 6 C0 4.02 0 2.04 0 0 Z " fill="#DFF4F7" transform="translate(356,832)"/>
<path d="M0 0 C0.66 0.33 1.32 0.66 2 1 C1.75 2.875 1.75 2.875 1 5 C-1.0625 6.25 -1.0625 6.25 -3 7 C-3.1875 4.625 -3.1875 4.625 -3 2 C-2.01 1.34 -1.02 0.68 0 0 Z " fill="#147CB0" transform="translate(947,826)"/>
<path d="M0 0 C0.99 0.33 1.98 0.66 3 1 C3 2.98 3 4.96 3 7 C2.01 7 1.02 7 0 7 C0 6.34 0 5.68 0 5 C-0.66 5 -1.32 5 -2 5 C-1.34 3.35 -0.68 1.7 0 0 Z " fill="#EEF9FA" transform="translate(1029,726)"/>
<path d="M0 0 C0.99 0.33 1.98 0.66 3 1 C1.88121617 2.17262904 0.75476949 3.33795138 -0.375 4.5 C-1.00148438 5.1496875 -1.62796875 5.799375 -2.2734375 6.46875 C-4 8 -4 8 -6 8 C-6 7.01 -6 6.02 -6 5 C-5.01 5 -4.02 5 -3 5 C-3 4.34 -3 3.68 -3 3 C-1.5 1.375 -1.5 1.375 0 0 Z " fill="#D9FAFD" transform="translate(492,332)"/>
<path d="M0 0 C-1.32 1.32 -2.64 2.64 -4 4 C-4.99 3.67 -5.98 3.34 -7 3 C-6.67 2.01 -6.34 1.02 -6 0 C-3.50907189 -1.24546405 -2.58919267 -0.7767578 0 0 Z " fill="#0579AB" transform="translate(410,244)"/>
<path d="M0 0 C2.97 0.99 5.94 1.98 9 3 C8.34 3.66 7.68 4.32 7 5 C4.69 4.34 2.38 3.68 0 3 C0 2.01 0 1.02 0 0 Z M-2 3 C-1.01 3.495 -1.01 3.495 0 4 C-0.99 4.495 -0.99 4.495 -2 5 C-2 4.34 -2 3.68 -2 3 Z " fill="#1A7CAC" transform="translate(818,114)"/>
<path d="M0 0 C1.77007714 -0.08114106 3.54122098 -0.13925505 5.3125 -0.1875 C6.29863281 -0.22230469 7.28476562 -0.25710937 8.30078125 -0.29296875 C11 0 11 0 12.85546875 1.51171875 C13.23316406 2.00285156 13.61085938 2.49398437 14 3 C9.30976546 2.43393721 4.65499974 1.81462495 0 1 C0 0.67 0 0.34 0 0 Z " fill="#D9F5FB" transform="translate(730,87)"/>
<path d="M0 0 C0.66 0 1.32 0 2 0 C2 0.66 2 1.32 2 2 C3.32 2.66 4.64 3.32 6 4 C5.67 4.99 5.34 5.98 5 7 C3.02 5.68 1.04 4.36 -1 3 C-0.67 2.01 -0.34 1.02 0 0 Z " fill="#137BAB" transform="translate(416,875)"/>
<path d="M0 0 C0.33 0.99 0.66 1.98 1 3 C-0.21484375 4.82421875 -0.21484375 4.82421875 -1.9375 6.6875 C-2.50339844 7.31011719 -3.06929687 7.93273437 -3.65234375 8.57421875 C-4.09707031 9.04472656 -4.54179688 9.51523437 -5 10 C-5.33 9.01 -5.66 8.02 -6 7 C-4.78515625 5.17578125 -4.78515625 5.17578125 -3.0625 3.3125 C-2.49660156 2.68988281 -1.93070313 2.06726563 -1.34765625 1.42578125 C-0.90292969 0.95527344 -0.45820312 0.48476563 0 0 Z " fill="#D9F4FA" transform="translate(972,805)"/>
<path d="M0 0 C2.18975773 3.28463659 2.99806563 6.20696275 4 10 C2.68 10.33 1.36 10.66 0 11 C0 7.37 0 3.74 0 0 Z " fill="#CCEDF5" transform="translate(246,670)"/>
<path d="M0 0 C2 2 2 2 2.1953125 4.6015625 C2.17210937 5.59929688 2.14890625 6.59703125 2.125 7.625 C2.10695312 8.62789062 2.08890625 9.63078125 2.0703125 10.6640625 C2.03550781 11.82035156 2.03550781 11.82035156 2 13 C0.0286529 9.34697313 -0.61567954 6.15066099 -1 2 C-0.67 1.34 -0.34 0.68 0 0 Z " fill="#147AA9" transform="translate(230,611)"/>
<path d="M0 0 C2.64752004 2.57784846 4.94432065 4.91648098 7 8 C5.1875 7.8125 5.1875 7.8125 3 7 C0 2.82142857 0 2.82142857 0 0 Z " fill="#CAEFF7" transform="translate(890,431)"/>
<path d="M0 0 C0.91058531 3.07322544 1.08886184 5.80097361 1 9 C-0.32 9.33 -1.64 9.66 -3 10 C-2.39009109 6.44219804 -1.4216319 3.3171411 0 0 Z " fill="#1F7EAF" transform="translate(253,340)"/>
<path d="M0 0 C0.66 0.33 1.32 0.66 2 1 C0.68 3.64 -0.64 6.28 -2 9 C-2.66 7.68 -3.32 6.36 -4 5 C-3.67 4.01 -3.34 3.02 -3 2 C-2.34 2 -1.68 2 -1 2 C-0.67 1.34 -0.34 0.68 0 0 Z " fill="#DEF7FA" transform="translate(268,306)"/>
<path d="M0 0 C0.66 0.33 1.32 0.66 2 1 C2.5625 2.75 2.5625 2.75 3 5 C3.185625 5.9075 3.37125 6.815 3.5625 7.75 C3.706875 8.4925 3.85125 9.235 4 10 C-0.875 5.375 -0.875 5.375 -2 2 C-1.34 2 -0.68 2 0 2 C0 1.34 0 0.68 0 0 Z " fill="#E2F8F8" transform="translate(996,246)"/>
<path d="M0 0 C0.66 0 1.32 0 2 0 C2.33 0.99 2.66 1.98 3 3 C0.525 4.485 0.525 4.485 -2 6 C-2.99 4.68 -3.98 3.36 -5 2 C-2.525 2.495 -2.525 2.495 0 3 C0 2.01 0 1.02 0 0 Z " fill="#EAF7F8" transform="translate(391,162)"/>
<path d="M0 0 C-3.08559304 2.26881841 -4.42209376 3.05451946 -8.3125 2.6875 C-9.199375 2.460625 -10.08625 2.23375 -11 2 C-6.98764085 -0.6749061 -4.6342454 -1.48957888 0 0 Z " fill="#D0EEF6" transform="translate(776,931)"/>
<path d="M0 0 C0 0.66 0 1.32 0 2 C-2 3.625 -2 3.625 -4 5 C-5.32 3.68 -6.64 2.36 -8 1 C-2.25 0 -2.25 0 0 0 Z " fill="#117AAE" transform="translate(407,865)"/>
<path d="M0 0 C2.31 0.66 4.62 1.32 7 2 C7 3.32 7 4.64 7 6 C3.63279613 4.60667426 2.0140476 3.0210714 0 0 Z " fill="#2B81AC" transform="translate(349,825)"/>
<path d="M0 0 C1.65 1.65 3.3 3.3 5 5 C3.02 5.99 3.02 5.99 1 7 C1 6.01 1 5.02 1 4 C0.34 4 -0.32 4 -1 4 C-0.67 2.68 -0.34 1.36 0 0 Z " fill="#ECFDFC" transform="translate(339,816)"/>
<path d="M0 0 C1.76462683 3.08809695 2 4.23312136 2 8 C1.01 7.67 0.02 7.34 -1 7 C-1.625 4.625 -1.625 4.625 -2 2 C-1.34 1.34 -0.68 0.68 0 0 Z " fill="#EDF8F6" transform="translate(990,784)"/>
<path d="M0 0 C1.98 0 3.96 0 6 0 C5.67 1.65 5.34 3.3 5 5 C3.0625 4.1875 3.0625 4.1875 1 3 C0.67 2.01 0.34 1.02 0 0 Z " fill="#1479B0" transform="translate(297,764)"/>
<path d="M0 0 C0.99 0.33 1.98 0.66 3 1 C2.34 3.31 1.68 5.62 1 8 C0.34 8 -0.32 8 -1 8 C-1.625 6.125 -1.625 6.125 -2 4 C-1.34 3.34 -0.68 2.68 0 2 C0 1.34 0 0.68 0 0 Z " fill="#137DAD" transform="translate(1042,693)"/>
<path d="M0 0 C0.33 0.99 0.66 1.98 1 3 C0.00390625 4.82421875 0.00390625 4.82421875 -1.4375 6.6875 C-1.91058594 7.31011719 -2.38367188 7.93273437 -2.87109375 8.57421875 C-3.24363281 9.04472656 -3.61617187 9.51523437 -4 10 C-4.65234375 8.203125 -4.65234375 8.203125 -5 6 C-3.63510623 3.66629928 -1.8580962 1.99405446 0 0 Z " fill="#DBF4FA" transform="translate(685,442)"/>
<path d="M0 0 C0.99 0.33 1.98 0.66 3 1 C3 1.66 3 2.32 3 3 C0.64561267 4.42944945 -0.48032433 5.08661261 -3.25 4.625 C-3.8275 4.41875 -4.405 4.2125 -5 4 C-4.01 3.67 -3.02 3.34 -2 3 C-2 2.34 -2 1.68 -2 1 C-1.34 0.67 -0.68 0.34 0 0 Z " fill="#0A7AAD" transform="translate(875,409)"/>
<path d="M0 0 C0.33 0.66 0.66 1.32 1 2 C-0.01553817 5.0466145 -1.20762558 7.31143836 -3 10 C-3.66 10 -4.32 10 -5 10 C-3.66511872 6.40608886 -2.03977277 3.24509304 0 0 Z " fill="#2381AE" transform="translate(274,299)"/>
<path d="M0 0 C2.31 0 4.62 0 7 0 C7 0.99 7 1.98 7 3 C6.34 3.66 5.68 4.32 5 5 C3.35 3.35 1.7 1.7 0 0 Z " fill="#E3F8FB" transform="translate(904,161)"/>
<path d="M0 0 C-1.485 1.98 -1.485 1.98 -3 4 C-4.65 3.67 -6.3 3.34 -8 3 C-5.53387212 -0.1151089 -3.89156016 -0.31553191 0 0 Z " fill="#157DA6" transform="translate(425,146)"/>
<path d="M0 0 C1.98 0.99 3.96 1.98 6 3 C5.01 3.66 4.02 4.32 3 5 C2.67 4.67 2.34 4.34 2 4 C0.33382885 3.95936168 -1.33388095 3.957279 -3 4 C-2.67 3.34 -2.34 2.68 -2 2 C-1.34 2 -0.68 2 0 2 C0 1.34 0 0.68 0 0 Z " fill="#157BB4" transform="translate(853,130)"/>
<path d="M0 0 C1.98 1.65 3.96 3.3 6 5 C4.02 5.99 4.02 5.99 2 7 C1.87625 6.195625 1.7525 5.39125 1.625 4.5625 C1.315625 3.2940625 1.315625 3.2940625 1 2 C0.34 1.67 -0.32 1.34 -1 1 C-0.67 0.67 -0.34 0.34 0 0 Z " fill="#EAFBFB" transform="translate(346,823)"/>
<path d="M0 0 C1.65 0 3.3 0 5 0 C3.35 1.98 1.7 3.96 0 6 C-1 3 -1 3 0 0 Z " fill="#167CAE" transform="translate(978,793)"/>
<path d="M0 0 C0.99 0.99 1.98 1.98 3 3 C2.34 4.98 1.68 6.96 1 9 C0.34 8.67 -0.32 8.34 -1 8 C-0.67 5.36 -0.34 2.72 0 0 Z " fill="#117FB6" transform="translate(307,770)"/>
<path d="M0 0 C0.6875 1.6875 0.6875 1.6875 1 4 C-0.3125 6.75 -0.3125 6.75 -2 9 C-2.66 9 -3.32 9 -4 9 C-2.80100302 5.9168649 -1.52299523 2.93720508 0 0 Z " fill="#DCF6FB" transform="translate(1035,715)"/>
<path d="M0 0 C0.99 0 1.98 0 3 0 C4.85776765 3.13498292 5.20140476 5.37471432 5 9 C2.67527795 6.14693203 1.2491742 3.45925163 0 0 Z " fill="#1D82AE" transform="translate(262,706)"/>
<path d="M0 0 C2.6855594 2.6855594 3.06049974 5.37621328 4 9 C2.68 8.34 1.36 7.68 0 7 C0 4.69 0 2.38 0 0 Z " fill="#CEEFF8" transform="translate(252,685)"/>
<path d="M0 0 C1.65 0 3.3 0 5 0 C5.33 1.32 5.66 2.64 6 4 C5.01 3.67 4.02 3.34 3 3 C2.01 3.495 2.01 3.495 1 4 C0.34 3.67 -0.32 3.34 -1 3 C-0.67 2.01 -0.34 1.02 0 0 Z " fill="#F6F9F9" transform="translate(706,497)"/>
<path d="M0 0 C1.98 0.99 1.98 0.99 4 2 C4 2.99 4 3.98 4 5 C4.66 5.33 5.32 5.66 6 6 C5.67 7.32 5.34 8.64 5 10 C3.35 6.7 1.7 3.4 0 0 Z " fill="#257CA9" transform="translate(900,443)"/>
<path d="M0 0 C2.3125 0.1875 2.3125 0.1875 5 1 C6.875 3.4375 6.875 3.4375 8 6 C7.67 6.66 7.34 7.32 7 8 C5.83035398 6.8572081 4.66435444 5.71068285 3.5 4.5625 C2.8503125 3.92441406 2.200625 3.28632813 1.53125 2.62890625 C0 1 0 1 0 0 Z " fill="#2A89AE" transform="translate(884,424)"/>
<path d="M0 0 C1.32 0.66 2.64 1.32 4 2 C4 2.66 4 3.32 4 4 C3.01 4 2.02 4 1 4 C1.33 4.99 1.66 5.98 2 7 C1.01 7.495 1.01 7.495 0 8 C-0.79953138 4.71303767 -1.09658936 3.28976808 0 0 Z " fill="#0779BD" transform="translate(251,351)"/>
<path d="M0 0 C2.11180592 2.57089417 3.66306057 4.63060567 4 8 C3.34 8.66 2.68 9.32 2 10 C0.68373308 6.38026598 0 3.90432869 0 0 Z " fill="#1F82AC" transform="translate(1046,336)"/>
<path d="M0 0 C2.31 0 4.62 0 7 0 C7.33 1.32 7.66 2.64 8 4 C2.25 2.25 2.25 2.25 0 0 Z " fill="#D9F6FA" transform="translate(823,115)"/>
<path d="M0 0 C1.2065625 0.0309375 1.2065625 0.0309375 2.4375 0.0625 C0.7875 1.7125 -0.8625 3.3625 -2.5625 5.0625 C-3.125 3.125 -3.125 3.125 -3.5625 1.0625 C-2.5625 0.0625 -2.5625 0.0625 0 0 Z " fill="#0D7DA6" transform="translate(900.5625,865.9375)"/>
<path d="M0 0 C1.98 0.66 3.96 1.32 6 2 C6.33 3.65 6.66 5.3 7 7 C5.83040013 6.02433888 4.66438823 5.044375 3.5 4.0625 C2.8503125 3.51722656 2.200625 2.97195313 1.53125 2.41015625 C1.0259375 1.94480469 0.520625 1.47945312 0 1 C0 0.67 0 0.34 0 0 Z " fill="#3084AB" transform="translate(335,811)"/>
<path d="M0 0 C0.66 0.33 1.32 0.66 2 1 C-0.475 4.465 -0.475 4.465 -3 8 C-4 5 -4 5 -3 2 C-2.01 1.34 -1.02 0.68 0 0 Z " fill="#227DA6" transform="translate(1006,760)"/>
<path d="M0 0 C1.32 0.33 2.64 0.66 4 1 C3.67 1.33 3.34 1.66 3 2 C2.63239269 4.32817964 2.29758419 6.6618385 2 9 C0.14223235 5.86501708 -0.20140476 3.62528568 0 0 Z " fill="#207FB0" transform="translate(923,501)"/>
<path d="M0 0 C2.31 0.33 4.62 0.66 7 1 C6.67 2.32 6.34 3.64 6 5 C3.98079663 3.69593116 1.98075027 2.36176581 0 1 C0 0.67 0 0.34 0 0 Z " fill="#D4F5FC" transform="translate(781,491)"/>
<path d="M0 0 C0.33 0 0.66 0 1 0 C0.67 3.3 0.34 6.6 0 10 C-2 7 -2 7 -1.6875 3.875 C-1 1 -1 1 0 0 Z " fill="#E4FAFE" transform="translate(226,419)"/>
<path d="M0 0 C-4.75 4 -4.75 4 -7 4 C-7 2.68 -7 1.36 -7 0 C-3.98968256 -0.93423645 -3.13349732 -1.04449911 0 0 Z " fill="#1B82A9" transform="translate(715,413)"/>
<path d="M0 0 C0.99 0 1.98 0 3 0 C2.01 2.97 1.02 5.94 0 9 C-1.15941038 5.52176885 -0.70820884 3.54104422 0 0 Z " fill="#DEF7FC" transform="translate(251,338)"/>
</svg>
