<?xml version="1.0" encoding="UTF-8"?>
<svg version="1.1" xmlns="http://www.w3.org/2000/svg" width="1242" height="708">
<path d="M0 0 C409.86 0 819.72 0 1242 0 C1242 233.64 1242 467.28 1242 708 C832.14 708 422.28 708 0 708 C0 474.36 0 240.72 0 0 Z " fill="#000000" transform="translate(0,0)"/>
<path d="M0 0 C2.63367063 1.63250222 5.20237779 3.32431165 7.75390625 5.08203125 C8.62789062 5.68273437 9.501875 6.2834375 10.40234375 6.90234375 C16.2287056 11.02587205 21.69002003 15.48579824 27.09985352 20.13110352 C31.19439965 23.64133346 35.38987229 26.9159674 39.75390625 30.08203125 C39.75390625 29.42203125 39.75390625 28.76203125 39.75390625 28.08203125 C41.28227894 26.68603729 42.88040724 25.36615476 44.50390625 24.08203125 C46.01984375 22.87353516 46.01984375 22.87353516 47.56640625 21.640625 C48.09621094 21.21894043 48.62601563 20.79725586 49.171875 20.36279297 C51.66326673 18.34584219 54.07376086 16.23458836 56.50390625 14.14453125 C71.4319807 1.74274632 89.92711027 -10.73763967 108.75390625 -15.91796875 C109.94371094 -16.27246094 111.13351562 -16.62695312 112.359375 -16.9921875 C117.4927572 -18.25422897 122.55605728 -18.21076481 127.81640625 -18.16796875 C129.24823242 -18.17957031 129.24823242 -18.17957031 130.70898438 -18.19140625 C141.71308686 -18.16102916 149.2144106 -14.8428061 157.75390625 -7.91796875 C174.20479739 9.02727304 175.44133769 34.85952163 175.15884399 57.07783508 C174.92904902 68.24157815 173.32913717 79.10823899 171.29394531 90.07128906 C170.33974375 95.39100589 169.55310604 100.73718095 168.75390625 106.08203125 C169.97078125 106.32953125 171.18765625 106.57703125 172.44140625 106.83203125 C182.70942078 109.13709574 192.31072619 112.45880768 201.75390625 117.08203125 C203.00382777 117.67594644 204.25383315 118.26968517 205.50390625 118.86328125 C227.24484647 129.32007876 251.44240313 144.03478724 260.69140625 167.45703125 C263.35612899 176.72563208 262.51360528 187.25111027 258.75390625 196.08203125 C256.35259486 200.29625323 253.6524776 204.1967122 250.75390625 208.08203125 C250.30402344 208.71753906 249.85414063 209.35304688 249.390625 210.0078125 C241.61995572 220.08803054 228.8775214 228.12782621 217.75390625 234.08203125 C217.09390625 234.08203125 216.43390625 234.08203125 215.75390625 234.08203125 C215.75390625 234.74203125 215.75390625 235.40203125 215.75390625 236.08203125 C214.69171875 236.5409375 213.62953125 236.99984375 212.53515625 237.47265625 C211.10802284 238.0923326 209.68094234 238.71213082 208.25390625 239.33203125 C207.5578125 239.63238281 206.86171875 239.93273437 206.14453125 240.2421875 C202.66777943 241.75521839 199.26118505 243.32178287 195.90234375 245.08203125 C191.07525114 247.5276631 186.01627151 249.16489183 180.87890625 250.83203125 C179.93015625 251.14785156 178.98140625 251.46367187 178.00390625 251.7890625 C171.03566356 254.08203125 171.03566356 254.08203125 168.75390625 254.08203125 C169.02654297 255.05076172 169.02654297 255.05076172 169.3046875 256.0390625 C171.04104552 262.54817896 172.33108885 269.05860687 173.37890625 275.70703125 C173.5632019 276.86875854 173.5632019 276.86875854 173.7512207 278.05395508 C177.00016408 299.30531388 178.62095352 323.68466434 170.75390625 344.08203125 C170.01676092 346.26685551 169.2879199 348.4544951 168.56640625 350.64453125 C167.96223958 352.45703125 167.35807292 354.26953125 166.75390625 356.08203125 C166.09390625 356.08203125 165.43390625 356.08203125 164.75390625 356.08203125 C164.56828125 356.74203125 164.38265625 357.40203125 164.19140625 358.08203125 C160.68882066 365.39177508 154.18882288 371.96117731 146.57543945 374.93212891 C127.8037008 380.82017655 109.68353847 376.82610636 92.62768555 368.05273438 C89.63442041 366.45552115 86.69682262 364.77024315 83.75390625 363.08203125 C82.17094229 362.24799648 80.58766501 361.41455577 79.00390625 360.58203125 C73.59274937 357.54773767 68.71040054 353.79604391 63.75390625 350.08203125 C62.78195312 349.37949219 61.81 348.67695313 60.80859375 347.953125 C53.29728021 342.47163118 46.48841233 336.47025953 39.75390625 330.08203125 C35.29176082 333.29477596 31.06617313 336.6541127 26.94604492 340.28881836 C19.31898894 346.99684964 11.3503225 352.68924838 2.75390625 358.08203125 C2.13902344 358.47519531 1.52414062 358.86835938 0.890625 359.2734375 C-18.40155985 371.57982068 -40.944181 382.38155914 -64.36328125 377.421875 C-73.4723538 374.14431151 -81.35935865 367.41822642 -86.24609375 359.08203125 C-86.24609375 358.42203125 -86.24609375 357.76203125 -86.24609375 357.08203125 C-86.90609375 357.08203125 -87.56609375 357.08203125 -88.24609375 357.08203125 C-89.03857039 354.87398566 -89.83009505 352.66560628 -90.62109375 350.45703125 C-91.06195313 349.22726562 -91.5028125 347.9975 -91.95703125 346.73046875 C-92.38242187 345.52648437 -92.8078125 344.3225 -93.24609375 343.08203125 C-93.5797998 342.15036133 -93.91350586 341.21869141 -94.25732422 340.25878906 C-97.42654392 330.07659481 -97.57685095 319.28339124 -97.49609375 308.70703125 C-97.49077637 307.43843262 -97.48545898 306.16983398 -97.47998047 304.86279297 C-97.38795071 295.76815608 -96.70795935 287.06349321 -95.24609375 278.08203125 C-95.07112657 276.75855311 -94.90200959 275.43429045 -94.73828125 274.109375 C-93.89651684 267.32849504 -92.87613233 260.71861691 -91.24609375 254.08203125 C-92.20644531 253.99050781 -93.16679687 253.89898437 -94.15625 253.8046875 C-98.95075186 253.11288359 -103.22334143 251.35138205 -107.68359375 249.51953125 C-108.5552417 249.16673096 -109.42688965 248.81393066 -110.32495117 248.45043945 C-117.31318788 245.57375439 -124.06447343 242.33044717 -130.765625 238.84375 C-133.09107716 237.66666928 -135.45865679 236.56947757 -137.859375 235.5546875 C-146.45997614 231.8148644 -154.03670218 226.01233722 -161.24609375 220.08203125 C-162.35597656 219.20998047 -162.35597656 219.20998047 -163.48828125 218.3203125 C-173.77938307 209.8274828 -183.20539131 196.83230169 -184.6484375 183.3125 C-185.02574524 168.17491356 -179.76877176 157.67448431 -169.41381836 146.77685547 C-148.65174149 125.70092996 -120.30976406 113.17732076 -92.24609375 105.08203125 C-92.84227177 100.85405849 -93.46616717 96.63236986 -94.12158203 92.41307068 C-103.41818215 32.208335 -103.41818215 32.208335 -91.18847656 9.83447266 C-90.06321819 7.81259523 -90.06321819 7.81259523 -88.74609375 4.45703125 C-84.73310473 -4.57219404 -77.58126468 -12.26507578 -68.24609375 -15.91796875 C-43.99178212 -23.95239825 -20.53064209 -12.13062005 0 0 Z " fill="#79DAF9" transform="translate(586.24609375,107.91796875)"/>
<path d="M0 0 C1.18659714 -0.00095673 2.37319427 -0.00191345 3.5957489 -0.00289917 C6.10460463 -0.00357789 8.61346213 -0.00174511 11.12231445 0.00244141 C14.89864217 0.00774152 18.67484809 0.00251313 22.45117188 -0.00390625 C28.43011779 -0.00779976 34.4075781 0.02812356 40.3861084 0.0980835 C42.47384246 0.12038851 44.56168695 0.13463013 46.64953613 0.13873291 C49.2939495 0.1482971 51.9344859 0.19627273 54.578125 0.2578125 C55.32693436 0.25361298 56.07574371 0.24941345 56.84724426 0.24508667 C60.8741858 0.38985935 63.09239131 1.14391013 65.8112793 4.00756836 C67.61684097 6.26639783 69.2202582 8.55085619 70.52734375 11.13671875 C71.87645717 13.70636986 73.26250217 16.20341949 74.80859375 18.66015625 C77.17457158 22.43374114 79.41061764 26.27544943 81.63671875 30.1328125 C82.10899902 30.94733887 82.5812793 31.76186523 83.06787109 32.60107422 C86.63168957 38.75551018 90.14721852 44.93598315 93.63671875 51.1328125 C94.27915527 52.26541504 94.27915527 52.26541504 94.93457031 53.42089844 C96.07710101 55.44315011 97.20364146 57.4733335 98.32421875 59.5078125 C99.25814453 61.19003906 99.25814453 61.19003906 100.2109375 62.90625 C102.00284359 66.96135803 103.18822433 70.80954098 102.140625 75.22265625 C101.82996094 75.83238281 101.51929688 76.44210937 101.19921875 77.0703125 C100.81894531 77.83601563 100.43867187 78.60171875 100.046875 79.390625 C99.58152344 80.29554688 99.11617187 81.20046875 98.63671875 82.1328125 C98.09917969 83.26460938 97.56164062 84.39640625 97.0078125 85.5625 C91.60810757 96.85702844 85.19468822 107.48144458 78.63671875 118.1328125 C78.05567383 119.0810791 77.47462891 120.0293457 76.87597656 121.00634766 C75.11236627 123.88409499 73.34456764 126.75920631 71.57421875 129.6328125 C71.02612549 130.52315186 70.47803223 131.41349121 69.91333008 132.33081055 C69.14025513 133.57858276 69.14025513 133.57858276 68.3515625 134.8515625 C67.899021 135.58310547 67.44647949 136.31464844 66.98022461 137.06835938 C66.31518921 138.09026367 66.31518921 138.09026367 65.63671875 139.1328125 C65.23121796 139.8200943 64.82571716 140.5073761 64.40792847 141.21548462 C61.98614017 143.83706137 60.47955883 143.71926943 56.95385742 143.87451172 C55.20484634 143.95738434 55.20484634 143.95738434 53.42050171 144.04193115 C46.79955695 144.20095729 40.18486798 144.27626589 33.5625 144.265625 C32.0612944 144.26630048 30.5600889 144.26727253 29.05888367 144.26852417 C25.94362323 144.26998467 22.82839179 144.26789693 19.71313477 144.26318359 C15.71730708 144.25743228 11.72154578 144.2608094 7.72572041 144.26675606 C4.64002475 144.27036001 1.55434503 144.2692248 -1.53135109 144.26662827 C-3.00618307 144.26596135 -4.48101649 144.2667792 -5.95584679 144.26910782 C-8.00401152 144.27163744 -10.05218135 144.26710063 -12.1003418 144.26220703 C-13.26470261 144.26141144 -14.42906342 144.26061584 -15.62870789 144.25979614 C-18.36328125 144.1328125 -18.36328125 144.1328125 -20.36328125 143.1328125 C-21.17453492 141.82863602 -21.92321057 140.48511576 -22.63671875 139.125 C-25.21150469 134.35401772 -28.05414419 129.81367602 -30.98828125 125.2578125 C-40.29884721 110.633743 -48.80372938 95.73330279 -56.36328125 80.1328125 C-56.95109375 79.11832031 -57.53890625 78.10382813 -58.14453125 77.05859375 C-59.92841366 72.77613246 -58.87608692 69.61750089 -57.39160156 65.31958008 C-54.39958022 58.20287837 -50.98064792 51.49827541 -47.11328125 44.8203125 C-46.5411792 43.82193359 -45.96907715 42.82355469 -45.37963867 41.79492188 C-43.71679962 38.90205348 -42.04271395 36.01607254 -40.36328125 33.1328125 C-39.92902832 32.38467285 -39.49477539 31.6365332 -39.04736328 30.86572266 C-34.11241397 22.394434 -28.83059062 14.19795345 -23.33203125 6.08203125 C-21.42066788 3.3514533 -21.42066788 3.3514533 -20.36328125 1.1328125 C-13.61723271 -0.13179 -6.84350292 -0.01232417 0 0 Z " fill="#010203" transform="translate(603.36328125,215.8671875)"/>
<path d="M0 0 C0.27880005 0.95084473 0.27880005 0.95084473 0.56323242 1.92089844 C4.26348941 14.47782601 8.15151796 26.59139448 13.60546875 38.5078125 C13.87866943 39.11939209 14.15187012 39.73097168 14.43334961 40.36108398 C15.19878428 42.07295745 15.98159862 43.77702999 16.765625 45.48046875 C19.37730617 52.927066 19.57041486 57.96864908 16.24267578 65.19238281 C15.62755127 66.45840332 15.62755127 66.45840332 15 67.75 C10.5269642 77.51604056 7.00398675 87.3963299 3.75878906 97.62695312 C2.54268345 101.43021779 1.27186839 105.21508334 0 109 C-5.06374281 108.40694904 -9.58018917 107.3200821 -14.4375 105.6875 C-15.67371094 105.27886719 -16.90992188 104.87023437 -18.18359375 104.44921875 C-21.59746656 103.223094 -24.77202481 101.67193708 -27.99291992 100.01098633 C-29.9388858 99.03078384 -31.90217463 98.14461256 -33.90234375 97.28125 C-41.81187573 93.82119495 -49.06159156 89.92178202 -56.125 84.9375 C-56.81070068 84.45539063 -57.49640137 83.97328125 -58.20288086 83.4765625 C-64.4367208 78.94230519 -70.14250634 73.85527879 -74.3125 67.3125 C-75.01826172 66.22388672 -75.01826172 66.22388672 -75.73828125 65.11328125 C-78.85886595 59.88654341 -79.92607413 56.10814853 -79 50 C-71.43769607 29.00175802 -46.60371258 17.87766741 -28 9 C-8.23383769 0 -8.23383769 0 0 0 Z " fill="#010202" transform="translate(501,233)"/>
<path d="M0 0 C7.77107807 6.7776619 9.80889252 15.93005857 11.89453125 25.65234375 C12.08917969 26.55597656 12.28382813 27.45960938 12.484375 28.390625 C15.22324212 50.17113975 11.56220281 72.39954133 6.89453125 93.65234375 C0.88598161 92.97317666 -4.98857732 91.95300373 -10.91796875 90.77734375 C-18.02695815 89.39740424 -25.1406024 88.10004841 -32.29296875 86.96484375 C-33.03329346 86.8457666 -33.77361816 86.72668945 -34.53637695 86.60400391 C-35.61278442 86.43650635 -35.61278442 86.43650635 -36.7109375 86.265625 C-37.7769519 86.09426025 -37.7769519 86.09426025 -38.86450195 85.91943359 C-41.14772659 85.60443931 -41.14772659 85.60443931 -43.63354492 85.63916016 C-47.367186 85.56241016 -50.05728837 85.49883345 -53.03149414 83.09692383 C-54.86425252 80.94950434 -56.46060681 78.74017567 -58.04296875 76.40234375 C-59.23849926 74.75217487 -60.43643933 73.10374915 -61.63671875 71.45703125 C-62.219375 70.64073242 -62.80203125 69.82443359 -63.40234375 68.98339844 C-65.80135522 65.69988905 -68.38735147 62.60456874 -71.04296875 59.52734375 C-71.49099854 59.00430664 -71.93902832 58.48126953 -72.40063477 57.94238281 C-73.63165987 56.50899426 -74.86839245 55.08051313 -76.10546875 53.65234375 C-76.78480469 52.86085937 -77.46414063 52.069375 -78.1640625 51.25390625 C-80.70647538 48.31236189 -83.22519552 45.51505061 -86.10546875 42.90234375 C-86.76546875 42.15984375 -87.42546875 41.41734375 -88.10546875 40.65234375 C-87.61370256 35.99065397 -84.32846636 33.84415878 -80.91796875 31.02734375 C-80.28938965 30.50027832 -79.66081055 29.97321289 -79.01318359 29.43017578 C-64.69936464 17.5787191 -48.72394544 5.87956396 -31.10546875 -0.34765625 C-30.29078125 -0.66476563 -29.47609375 -0.981875 -28.63671875 -1.30859375 C-19.45749014 -4.55708699 -8.40111574 -5.62672131 0 0 Z " fill="#010202" transform="translate(728.10546875,113.34765625)"/>
<path d="M0 0 C0.59176025 0.10957031 1.18352051 0.21914063 1.79321289 0.33203125 C9.89292657 1.81913233 18.00708457 3.21676295 26.12426758 4.60449219 C28.42996001 4.99871084 30.735499 5.39381707 33.04101562 5.7890625 C33.79145645 5.91742493 34.54189728 6.04578735 35.31507874 6.17803955 C36.79872214 6.43228443 38.28215568 6.68775737 39.7653656 6.94451904 C43.06093237 7.51243582 46.35305073 8.05168318 49.66235352 8.53613281 C50.73283936 8.69436523 51.8033252 8.85259766 52.90625 9.015625 C53.82599609 9.14227539 54.74574219 9.26892578 55.69335938 9.39941406 C59.97410851 10.5140037 61.62349812 13.48463658 64 17 C65.69655345 19.19799782 67.4040144 21.38388189 69.125 23.5625 C69.59341309 24.16247803 70.06182617 24.76245605 70.54443359 25.38061523 C78.28224237 35.26174238 86.60935678 44.67157901 95 54 C93.41622661 58.24010217 90.24113821 60.72846295 86.875 63.5625 C85.94772095 64.34814331 85.94772095 64.34814331 85.00170898 65.1496582 C78.02223378 70.95875463 70.6222174 76.07685225 63 81 C62.35353516 81.41942871 61.70707031 81.83885742 61.04101562 82.27099609 C52.71515803 87.61882323 44.4661005 91.93091273 35 95 C33.89527344 95.3609375 32.79054688 95.721875 31.65234375 96.09375 C24.37925311 97.89840992 15.36685286 98.87059633 8.328125 95.85546875 C-0.56000911 88.77596658 -4.07459964 76.89098982 -5.52734375 66.046875 C-7.79527837 44.75324981 -7.18787918 20.33556713 0 0 Z " fill="#000102" transform="translate(515,368)"/>
<path d="M0 0 C0.63654967 2.35152574 1.25900927 4.70557091 1.875 7.0625 C2.13603516 8.01866211 2.13603516 8.01866211 2.40234375 8.99414062 C5.61652909 21.43422833 6.41124599 34.07613791 6.375 46.875 C6.37478851 47.57111389 6.37457703 48.26722778 6.37435913 48.98443604 C6.32793332 64.33663704 5.072629 80.3128452 -5.1875 92.625 C-7 94 -7 94 -9 94 C-9.495 95.485 -9.495 95.485 -10 97 C-27.6534177 97.98317302 -40.77623909 94.06987746 -56 85 C-57.05703125 84.39285156 -58.1140625 83.78570312 -59.203125 83.16015625 C-70.84893981 76.28237432 -81.22261909 67.87895376 -91.109375 58.6796875 C-92.90160628 56.9409778 -92.90160628 56.9409778 -95 56 C-93.43767979 52.32043709 -91.16415918 49.83484207 -88.4375 46.9375 C-79.31228967 37.08470361 -71.16871393 26.44608042 -62.94140625 15.84375 C-62.42263916 15.17537109 -61.90387207 14.50699219 -61.36938477 13.81835938 C-60.19037897 12.25279775 -59.08713284 10.63069925 -58 9 C-55.79541016 8.44750977 -55.79541016 8.44750977 -53.0390625 8.19140625 C-52.01941406 8.08626709 -50.99976563 7.98112793 -49.94921875 7.87280273 C-48.30373047 7.71920288 -48.30373047 7.71920288 -46.625 7.5625 C-34.42157202 6.27141524 -22.52699882 4.22976406 -10.58203125 1.43408203 C-9.79183594 1.25087402 -9.00164062 1.06766602 -8.1875 0.87890625 C-7.47980469 0.71076416 -6.77210938 0.54262207 -6.04296875 0.36938477 C-4 0 -4 0 0 0 Z " fill="#010202" transform="translate(735,368)"/>
<path d="M0 0 C7.73024155 1.44123148 14.75798253 3.97646212 22 7 C22.74749512 7.30824707 23.49499023 7.61649414 24.26513672 7.93408203 C43.32991497 15.87485278 69.46448611 27.79316138 77.875 48.125 C79.65980503 53.67294817 79.46498857 57.41298388 77.0625 62.75 C64.25146528 86.52158665 33.41006121 99.04707813 9.17578125 107.36083984 C6.12156518 108.25805009 3.16419655 108.68102857 0 109 C-0.29132812 108.030625 -0.58265625 107.06125 -0.8828125 106.0625 C-3.87826271 96.21782575 -7.25895575 86.58466789 -11 77 C-11.26490234 76.31921387 -11.52980469 75.63842773 -11.80273438 74.93701172 C-14.90829941 66.7438298 -14.90829941 66.7438298 -18.73828125 58.8828125 C-20.52430908 54.80204302 -19.59286132 52.68116543 -18.16796875 48.640625 C-17.84441406 47.85171875 -17.52085937 47.0628125 -17.1875 46.25 C-16.82785156 45.37085938 -16.46820312 44.49171875 -16.09765625 43.5859375 C-15.14052678 41.33106308 -14.14465308 39.10202472 -13.125 36.875 C-7.77590715 24.93918105 -3.75935355 12.50899942 0 0 Z " fill="#000101" transform="translate(749,233)"/>
<path d="M0 0 C0.66902344 0.46100098 1.33804688 0.92200195 2.02734375 1.39697266 C9.04565266 6.2802564 15.76069016 11.50854042 22.3125 17 C22.85817627 17.45697266 23.40385254 17.91394531 23.96606445 18.38476562 C26.4125733 20.47852203 28.19876151 22.29814227 30 25 C29.16597656 25.88300781 28.33195313 26.76601562 27.47265625 27.67578125 C20.68465858 34.89903675 14.1478781 42.21693498 8 50 C7.04828274 51.19409464 6.0964536 52.3881001 5.14453125 53.58203125 C4.15822878 54.82502485 3.17254435 56.06850913 2.1875 57.3125 C1.73101074 57.88742188 1.27452148 58.46234375 0.80419922 59.0546875 C0.14895264 59.88806641 0.14895264 59.88806641 -0.51953125 60.73828125 C-0.90214111 61.22337158 -1.28475098 61.70846191 -1.67895508 62.20825195 C-3.17261773 64.15717969 -3.17261773 64.15717969 -4.75512695 67.12353516 C-7 70 -7 70 -9.95068359 70.96899414 C-11.08844238 71.07332764 -12.22620117 71.17766113 -13.3984375 71.28515625 C-14.67283691 71.42083008 -15.94723633 71.55650391 -17.26025391 71.69628906 C-18.26829071 71.7857782 -18.26829071 71.7857782 -19.29669189 71.8770752 C-22.80306985 72.18991112 -26.29934529 72.58988988 -29.796875 72.98828125 C-30.49539581 73.06617889 -31.19391663 73.14407654 -31.91360474 73.22433472 C-39.1777535 74.06941791 -46.22279671 75.64164385 -53.31005859 77.42602539 C-57.29522198 78.42408236 -60.85004859 79.30489439 -65 79 C-70.08197455 62.96114415 -71.29826904 47.25793147 -71.375 30.5625 C-71.38276459 29.78536652 -71.39052917 29.00823303 -71.39852905 28.20755005 C-71.51603483 13.27841178 -69.93859621 -2.46933393 -59.5 -14.1875 C-42.59536841 -26.4433579 -14.08840416 -9.77596201 0 0 Z " fill="#000101" transform="translate(580,128)"/>
<path d="M0 0 C9.10880276 6.46968038 14.00371662 13.69688415 16.1875 24.75 C17.71336373 37.94153533 15.75530032 48.51452653 8.0625 59.5625 C0.55287503 68.51565979 -10.78305104 73.96576969 -22.33203125 75.09375 C-29.64733855 75.28396384 -35.98571314 74.39262717 -42.8125 71.75 C-42.8125 71.09 -42.8125 70.43 -42.8125 69.75 C-43.55628906 69.646875 -44.30007813 69.54375 -45.06640625 69.4375 C-52.0306523 67.69396187 -56.83865819 60.98231597 -60.49609375 55.15234375 C-66.24532445 44.66042422 -68.84560897 33.46538875 -65.6875 21.6875 C-61.71157915 10.07265715 -54.59660503 1.56166113 -43.6875 -4.125 C-28.16035471 -11.17631827 -13.97744713 -9.38564973 0 0 Z " fill="#7BDCFC" transform="translate(649.8125,254.25)"/>
<path d="M0 0 C37.13793103 0 37.13793103 0 44.9375 4.8125 C49.43719329 9.58490197 50.5591596 14.4645269 50.5 20.875 C50.49500488 21.58172852 50.49000977 22.28845703 50.48486328 23.01660156 C50.28958348 28.85344752 49.1729189 32.88127485 45 37 C40.29885057 41 40.29885057 41 37 41 C44.58122749 53.30709595 44.58122749 53.30709595 52.8203125 65.1796875 C54 67 54 67 54 69 C48.51832276 70.65999647 43.30126688 71.667193 38 69 C33.47218985 64.22945794 30.13039203 58.64766201 26.84985352 52.98071289 C26.18655029 51.8539917 25.52324707 50.72727051 24.83984375 49.56640625 C24.26613037 48.52427979 23.69241699 47.48215332 23.10131836 46.40844727 C20.75257193 43.18730794 20.75257193 43.18730794 14 43 C14 51.58 14 60.16 14 69 C9.38 69 4.76 69 0 69 C0 46.23 0 23.46 0 0 Z " fill="#FAFAFA" transform="translate(422,531)"/>
<path d="M0 0 C3.57037818 2.48342837 7.01385193 5.11332079 9.9375 8.34765625 C9.9375 9.00765625 9.9375 9.66765625 9.9375 10.34765625 C7.96875 12.07421875 7.96875 12.07421875 5.4375 13.97265625 C4.18453125 14.92011719 4.18453125 14.92011719 2.90625 15.88671875 C2.2565625 16.36882813 1.606875 16.8509375 0.9375 17.34765625 C-1.60344339 16.15507817 -3.35257892 15.09476694 -5.5 13.22265625 C-10.21576659 9.96537418 -16.6116215 10.72178769 -22.0625 11.34765625 C-23.0525 12.00765625 -24.0425 12.66765625 -25.0625 13.34765625 C-25.81310849 16.26148354 -25.81310849 16.26148354 -25.0625 19.34765625 C-20.77425788 22.84129302 -16.63069076 24.16169119 -11.3125 25.22265625 C-2.95141052 27.12281657 3.78199316 29.74136271 9.5625 36.34765625 C12.12621965 41.77885379 11.67852519 48.53294508 10.9375 54.34765625 C9.37846708 58.16221312 7.78788121 60.95101542 4.625 63.59765625 C4.07199219 64.0771875 3.51898437 64.55671875 2.94921875 65.05078125 C-5.56324127 70.53842538 -18.73539839 69.53633884 -28.34765625 67.73046875 C-34.5312713 65.5705043 -38.24621288 61.55398172 -42.0625 56.34765625 C-36.23151408 50.3546985 -36.23151408 50.3546985 -33.0625 48.34765625 C-30.0625 48.34765625 -30.0625 48.34765625 -27.625 50.72265625 C-26.779375 51.58890625 -25.93375 52.45515625 -25.0625 53.34765625 C-21.73216824 55.49014539 -18.98045307 55.61724602 -15.0625 55.59765625 C-14.03125 55.6028125 -13 55.60796875 -11.9375 55.61328125 C-9.08694026 55.34991432 -7.43766228 54.90910552 -5.0625 53.34765625 C-3.64808126 50.51881878 -3.74349668 48.4738888 -4.0625 45.34765625 C-6.80114039 42.80337603 -9.46132765 41.72044026 -13.01953125 40.69921875 C-14.44168945 40.27382813 -14.44168945 40.27382813 -15.89257812 39.83984375 C-17.8679638 39.26546835 -19.84451936 38.69510001 -21.82226562 38.12890625 C-28.50188716 36.12094961 -34.39650489 34.0693587 -38.62109375 28.171875 C-41.0235145 22.33132322 -42.40066442 17.53634842 -40.40234375 11.28125 C-37.72531708 5.17392075 -33.51497973 0.80238075 -27.35546875 -1.79296875 C-18.8885826 -4.00259503 -7.81444625 -4.2582627 0 0 Z " fill="#F9F9F9" transform="translate(796.0625,532.65234375)"/>
<path d="M0 0 C1.30324219 -0.04350586 1.30324219 -0.04350586 2.6328125 -0.08789062 C8.48708216 -0.14502689 13.5880688 0.51557057 18.25 4.3125 C22.77625482 9.49992137 22.78919926 13.75865059 22.640625 20.3046875 C22.63496521 21.25062775 22.62930542 22.19656799 22.62347412 23.1711731 C22.60117571 26.17714142 22.55099138 29.18189511 22.5 32.1875 C22.47992656 34.23175356 22.46167727 36.27602589 22.4453125 38.3203125 C22.40133228 43.31817265 22.33234985 48.31513075 22.25 53.3125 C18.62 53.3125 14.99 53.3125 11.25 53.3125 C11.25 51.6625 11.25 50.0125 11.25 48.3125 C10.70730469 48.66183594 10.16460938 49.01117187 9.60546875 49.37109375 C8.89003906 49.82613281 8.17460938 50.28117188 7.4375 50.75 C6.37595703 51.42869141 6.37595703 51.42869141 5.29296875 52.12109375 C-0.23487532 55.34478867 -6.55340191 54.85432077 -12.75 54.3125 C-17.6522701 52.0763768 -20.44776725 49.18260775 -22.75 44.3125 C-23.59996679 38.57088757 -23.61096478 32.75950481 -20.28125 27.8125 C-12.76524269 20.4498806 -3.0172046 20.19343621 6.8359375 20.27734375 C8.03089844 20.29474609 8.03089844 20.29474609 9.25 20.3125 C8.98606499 16.88019552 8.98606499 16.88019552 8.25 13.3125 C3.58813458 10.20458972 -1.28956933 10.69379508 -6.75 11.3125 C-9.27232816 12.38088946 -10.67943591 13.47199858 -12.75 15.3125 C-15.72 13.3325 -18.69 11.3525 -21.75 9.3125 C-19.6753854 5.27246103 -17.83961139 3.30743238 -13.75 1.3125 C-9.20965252 -0.04783528 -4.70461488 0.05143529 0 0 Z " fill="#FAFAFA" transform="translate(561.75,546.6875)"/>
<path d="M0 0 C0.67289062 -0.01160156 1.34578125 -0.02320313 2.0390625 -0.03515625 C8.36045942 0.00145416 12.90028778 1.60933291 17.75 5.6875 C24.81916237 14.13122172 23 18.16304138 23 30.375 C11.78 30.375 0.56 30.375 -11 30.375 C-8.9177559 38.63993334 -8.9177559 38.63993334 -6.1484375 41.4140625 C-1.93841891 43.297089 2.49647647 42.89790549 7 42.375 C9.02156704 41.41935012 11.02966574 40.43225253 13 39.375 C15 39.9375 15 39.9375 17 41.375 C18.0725 42.07625 19.145 42.7775 20.25 43.5 C21.1575 44.11875 22.065 44.7375 23 45.375 C19.65826007 49.79789108 17.31532913 52.32135011 12 54.375 C8.69864544 54.81848172 5.45216286 54.83969078 2.125 54.8125 C0.83529297 54.8424707 0.83529297 54.8424707 -0.48046875 54.87304688 C-8.03419269 54.86731567 -13.33306929 52.92340046 -18.8125 47.6875 C-25.07786612 38.19994558 -25.49991711 26.78703514 -23.53125 15.74609375 C-21.49291773 9.54616644 -17.50965293 4.68797696 -11.796875 1.69921875 C-7.9120714 0.14335184 -4.1484248 -0.07152457 0 0 Z " fill="#F9F9F9" transform="translate(507,546.625)"/>
<path d="M0 0 C3.03347242 1.63340823 5.06252028 3.10679534 7.25 5.75 C5.7472742 9.95763224 3.01667005 11.5527758 -0.75 13.75 C-1.41 13.75 -2.07 13.75 -2.75 13.75 C-2.75 13.09 -2.75 12.43 -2.75 11.75 C-7.39840378 10.44028808 -11.9589291 10.04451869 -16.75 10.75 C-20.09625024 13.27676039 -21.42977847 14.78933542 -22.75 18.75 C-22.89648082 21.01763574 -22.9709626 23.29032366 -23 25.5625 C-23.02578125 26.76519531 -23.0515625 27.96789062 -23.078125 29.20703125 C-22.71748706 33.10106229 -21.8133185 35.44772623 -19.75 38.75 C-15.52226173 41.56849218 -11.7195569 41.316354 -6.75 40.75 C-5.0670608 39.77763513 -3.39556566 38.78435556 -1.75 37.75 C2.34550699 38.67148907 5.10393083 41.05336928 8.25 43.75 C7.20274189 47.00813633 5.67983232 48.28606177 2.8125 49.9375 C-4.94400774 53.88379341 -14.9348916 54.07699421 -23.4375 52.13671875 C-29.53357841 49.43396524 -33.40493545 44.00937142 -35.89453125 37.9765625 C-36.87566322 34.27603736 -37.09342861 30.80103552 -37.0625 27 C-37.05831055 26.29770264 -37.05412109 25.59540527 -37.04980469 24.87182617 C-36.87916976 16.96906896 -35.63695485 9.46875614 -29.75 3.75 C-21.53905513 -2.28253093 -9.76971602 -3.41105834 0 0 Z " fill="#F9F9F9" transform="translate(632.75,548.25)"/>
<path d="M0 0 C4.62 0 9.24 0 14 0 C14.11334126 7.42402684 14.20490962 14.8475743 14.25906086 22.27228546 C14.28506206 25.72058981 14.32028189 29.16826729 14.37719727 32.61621094 C14.44234009 36.58781206 14.46625905 40.55916684 14.48828125 44.53125 C14.51408768 45.75863892 14.5398941 46.98602783 14.56648254 48.25061035 C14.56880985 55.402827 13.94734486 60.58456084 9 66 C3.73949145 70.44765004 -1.43975364 70.56262139 -8.125 70.375 C-9.00542969 70.37371094 -9.88585937 70.37242187 -10.79296875 70.37109375 C-15.66675599 70.30493374 -18.28299566 69.88680174 -23 68 C-21.515 62.555 -21.515 62.555 -20 57 C-16 56 -16 56 -13 57 C-10.8156629 57.23255026 -10.8156629 57.23255026 -8.5 57.25 C-7.7265625 57.27578125 -6.953125 57.3015625 -6.15625 57.328125 C-3.38845319 56.90693853 -2.69557843 56.20505289 -1 54 C-0.52750495 51.52170423 -0.52750495 51.52170423 -0.56762695 48.70239258 C-0.54783279 47.62149857 -0.52803864 46.54060455 -0.50764465 45.42695618 C-0.50125473 44.26125595 -0.49486481 43.09555573 -0.48828125 41.89453125 C-0.47033005 40.70018967 -0.45237885 39.50584808 -0.43388367 38.27531433 C-0.37962967 34.45441232 -0.34583571 30.63363629 -0.3125 26.8125 C-0.27934035 24.22459178 -0.24485198 21.63670023 -0.20898438 19.04882812 C-0.12389413 12.69930945 -0.05715446 6.34982912 0 0 Z " fill="#FAFAFA" transform="translate(729,531)"/>
<path d="M0 0 C4.29 0 8.58 0 13 0 C13 4.95 13 9.9 13 15 C16.96 15 20.92 15 25 15 C25 18.3 25 21.6 25 25 C21.04 25 17.08 25 13 25 C13.09361965 29.07549941 13.19973161 33.15046336 13.31738281 37.2253418 C13.3556435 38.61131907 13.39050156 39.99739465 13.421875 41.38354492 C13.46758699 43.3770164 13.52658925 45.37016914 13.5859375 47.36328125 C13.63306885 49.16212769 13.63306885 49.16212769 13.68115234 50.99731445 C13.78429494 54.17882706 13.78429494 54.17882706 16 57 C18.43693311 57.36416047 18.43693311 57.36416047 21.125 57.1875 C22.49011719 57.14689453 22.49011719 57.14689453 23.8828125 57.10546875 C24.58148437 57.07066406 25.28015625 57.03585937 26 57 C27.1577506 60.47325181 27.06866652 63.36067448 27 67 C23.40998391 68.19667203 20.4095161 68.20538881 16.625 68.25 C14.66433594 68.28867187 14.66433594 68.28867187 12.6640625 68.328125 C7.93976729 67.90505379 5.35033056 66.54323492 2.25 63 C-0.29101447 58.93437684 -0.13143765 55.11145517 -0.09765625 50.48828125 C-0.0962413 49.76005661 -0.09482635 49.03183197 -0.09336853 48.28153992 C-0.08777659 45.95848461 -0.07522562 43.63552612 -0.0625 41.3125 C-0.05748396 39.73632952 -0.05292123 38.16015752 -0.04882812 36.58398438 C-0.0378098 32.72261902 -0.02055074 28.86132592 0 25 C-2.31 25 -4.62 25 -7 25 C-7 21.7 -7 18.4 -7 15 C-4.69 15 -2.38 15 0 15 C0 10.05 0 5.1 0 0 Z " fill="#F8F8F8" transform="translate(652,533)"/>
<path d="M0 0 C0.66 0 1.32 0 2 0 C5.25106618 7.30174735 8.37386259 14.46774405 10.45703125 22.20703125 C10.84753455 24.00480528 10.84753455 24.00480528 12 25 C12.23287008 26.68183948 12.41264166 28.3712416 12.5625 30.0625 C12.64628906 30.98160156 12.73007812 31.90070313 12.81640625 32.84765625 C12.87699219 33.55792969 12.93757812 34.26820313 13 35 C1.11308001 38.46507602 -10.58312518 41.40661537 -23 42 C-18.07296576 32.9075164 -13.02357542 23.88673857 -7.94726562 14.87695312 C-7.35236328 13.81798828 -6.75746094 12.75902344 -6.14453125 11.66796875 C-5.61190674 10.72203857 -5.07928223 9.7761084 -4.53051758 8.80151367 C-2.94621194 5.90154443 -1.46029595 2.96408076 0 0 Z " fill="#04080A" transform="translate(716,313)"/>
<path d="M0 0 C15.84 0 31.68 0 48 0 C46.06301932 3.87396136 43.79606916 6.82102227 41 10.0625 C40.51813232 10.62670654 40.03626465 11.19091309 39.53979492 11.7722168 C34.80666451 17.28506695 29.93031885 22.66327742 25 28 C15.38728335 24.1065198 4.5058592 9.01171839 0 0 Z " fill="#030809" transform="translate(601,380)"/>
<path d="M0 0 C9.55750496 7.68755834 17.73542105 17.13802969 25 27 C25 27.33 25 27.66 25 28 C9.16 28 -6.68 28 -23 28 C-21.02516232 24.05032465 -18.66983656 21.05127845 -15.8125 17.75 C-15.32072266 17.17588379 -14.82894531 16.60176758 -14.32226562 16.01025391 C-12.88595082 14.33627889 -11.44390236 12.66743104 -10 11 C-9.28199219 10.16726562 -8.56398438 9.33453125 -7.82421875 8.4765625 C-5.29261212 5.56006493 -2.75634319 2.70712278 0 0 Z " fill="#020607" transform="translate(624,167)"/>
<path d="M0 0 C2.20060416 2.0492856 3.70460808 3.98966653 5.12890625 6.6328125 C5.71478516 7.70668213 5.71478516 7.70668213 6.3125 8.80224609 C6.725 9.56875488 7.1375 10.33526367 7.5625 11.125 C11.50055131 18.33839323 15.56930795 25.45592453 19.77563477 32.51611328 C20.36622681 33.50973877 20.36622681 33.50973877 20.96875 34.5234375 C21.31357422 35.10013184 21.65839844 35.67682617 22.01367188 36.27099609 C23.08397384 38.14720365 24.05013744 40.06043166 25 42 C18.00628539 41.29554484 11.11305441 40.25901518 4.1875 39.0625 C2.65319336 38.80823242 2.65319336 38.80823242 1.08789062 38.54882812 C-0.3884082 38.29456055 -0.3884082 38.29456055 -1.89453125 38.03515625 C-2.77987549 37.8844165 -3.66521973 37.73367676 -4.57739258 37.57836914 C-6.9674089 37.00778074 -8.85994229 36.19078593 -11 35 C-10.34910025 31.99584731 -9.68121335 28.99733872 -9 26 C-8.79375 25.071875 -8.5875 24.14375 -8.375 23.1875 C-3.84895833 3.84895833 -3.84895833 3.84895833 0 0 Z " fill="#040809" transform="translate(532,313)"/>
<path d="M0 0 C-1.38689261 3.78491876 -3.14256405 6.98302304 -5.3125 10.375 C-11.56611152 20.37384282 -17.24064283 30.71147802 -23 41 C-26.33494193 38.33216753 -27.17371191 35.19568723 -28.48046875 31.21484375 C-28.69818436 30.55795059 -28.91589996 29.90105743 -29.14021301 29.22425842 C-29.59729108 27.8396131 -30.05005952 26.45353862 -30.4987793 25.06616211 C-31.1871089 22.9387088 -31.88823923 20.81581966 -32.59179688 18.69335938 C-36 8.32763059 -36 8.32763059 -36 6 C-30.83061931 4.1248325 -25.62554795 2.9646381 -20.25 1.875 C-19.40695312 1.69324219 -18.56390625 1.51148438 -17.6953125 1.32421875 C-11.73054826 0.11120095 -6.07951878 -0.21933058 0 0 Z " fill="#020506" transform="translate(556,221)"/>
<path d="M0 0 C6.84836332 0.39094987 13.22490534 1.40259945 19.8515625 3.16796875 C23.30314062 4.08011036 26.76998892 4.89109833 30.25 5.6875 C31.89742187 6.06455078 31.89742187 6.06455078 33.578125 6.44921875 C34.77695312 6.72185547 34.77695312 6.72185547 36 7 C33.1968884 19.05807785 29.64975596 30.50358502 25 42 C22.6341567 39.82525391 21.13062517 37.69889918 19.6171875 34.87109375 C19.18631836 34.07429199 18.75544922 33.27749023 18.31152344 32.45654297 C17.8787207 31.64588379 17.44591797 30.83522461 17 30 C9.73809411 16.47453359 9.73809411 16.47453359 1.1796875 3.75 C0 2 0 2 0 0 Z " fill="#020506" transform="translate(693,220)"/>
<path d="M0 0 C2.7225 -0.04125 5.445 -0.0825 8.25 -0.125 C9.10110352 -0.14320801 9.95220703 -0.16141602 10.82910156 -0.18017578 C17.97113618 -0.23261611 17.97113618 -0.23261611 21 2 C22.88555518 5.77111035 22.4630945 10.400219 21.3125 14.375 C19.44991721 16.68105488 17.83570056 17.11574929 15 18 C12.34490385 18.13756975 9.8323525 18.19029073 7.1875 18.125 C4.815625 18.08375 2.44375 18.0425 0 18 C0 12.06 0 6.12 0 0 Z " fill="#040404" transform="translate(436,544)"/>
<path d="M0 0 C0.35037406 3.39992602 0.52636852 6.61316416 0 10 C-4.59758533 14.18891108 -9.08327496 15.32199862 -15.125 15.2109375 C-17 15 -17 15 -19 13.875 C-20.504106 11.05480125 -20.44912849 9.14389944 -20 6 C-18.30929283 3.23338827 -16.80992359 2.24408656 -13.71875 1.3125 C-9.11969421 0.31511441 -4.71967586 -0.24840399 0 0 Z " fill="#0B0B0B" transform="translate(572,576)"/>
<path d="M0 0 C3.0625 2.125 3.0625 2.125 5 5 C5 6.98 5 8.96 5 11 C-1.6 11 -8.2 11 -15 11 C-14 4 -14 4 -12 1.5625 C-7.90941041 -0.56801541 -4.51982013 -0.93992643 0 0 Z " fill="#040404" transform="translate(512,557)"/>
<path d="M0 0 C0.66 0.33 1.32 0.66 2 1 C0.21427748 2.83947337 -1.57802449 4.67157741 -3.375 6.5 C-3.88289063 7.02464844 -4.39078125 7.54929687 -4.9140625 8.08984375 C-6.23832604 9.43153181 -7.61605865 10.71995815 -9 12 C-9.66 12 -10.32 12 -11 12 C-9.49650623 8.33213607 -7.36271208 6.31089607 -4.375 3.75 C-3.14910156 2.69039063 -3.14910156 2.69039063 -1.8984375 1.609375 C-1.27195312 1.07828125 -0.64546875 0.5471875 0 0 Z " fill="#64B7CF" transform="translate(512,95)"/>
<path d="M0 0 C0.66 0.33 1.32 0.66 2 1 C0.38113585 2.67262717 -1.2452729 4.33795537 -2.875 6 C-3.77992188 6.928125 -4.68484375 7.85625 -5.6171875 8.8125 C-8 11 -8 11 -10 11 C-8.55218207 7.55571735 -6.72305391 5.63869038 -3.875 3.25 C-3.15054688 2.63640625 -2.42609375 2.0228125 -1.6796875 1.390625 C-0.84824219 0.70226562 -0.84824219 0.70226562 0 0 Z " fill="#62B2CA" transform="translate(601,253)"/>
</svg>
