<?xml version="1.0" encoding="UTF-8"?>
<svg version="1.1" xmlns="http://www.w3.org/2000/svg" width="1360" height="660">
<path d="M0 0 C448.8 0 897.6 0 1360 0 C1360 217.8 1360 435.6 1360 660 C911.2 660 462.4 660 0 660 C0 442.2 0 224.4 0 0 Z " fill="#FEFEFE" transform="translate(0,0)"/>
<path d="M0 0 C5.26240576 4.42325475 10.09505047 9.19435445 14.88208008 14.12182617 C19.81559897 19.19642937 24.73573443 23.25047146 31.19458008 26.30932617 C31.96157227 26.68057617 32.72856445 27.05182617 33.51879883 27.43432617 C40.53224659 29.72777478 50.60630445 29.49332831 57.36645508 26.34838867 C63.58655479 22.81303285 68.6361921 19.37763172 73.00317383 13.62963867 C73.59291992 12.97608398 73.59291992 12.97608398 74.19458008 12.30932617 C74.85458008 12.30932617 75.51458008 12.30932617 76.19458008 12.30932617 C75.55769561 17.06288418 73.65123928 20.897181 71.50708008 25.12182617 C71.14549805 25.8352417 70.78391602 26.54865723 70.41137695 27.28369141 C63.63945894 40.38555492 54.05420808 50.12093537 39.87182617 55.12963867 C32.38059209 57.42831872 25.2484136 57.85127656 17.44458008 57.80932617 C16.20901367 57.80360596 14.97344727 57.79788574 13.70043945 57.79199219 C4.3078247 57.60836879 -3.29481684 56.51645449 -11.80541992 52.30932617 C-12.84053711 51.81303711 -13.8756543 51.31674805 -14.94213867 50.80541992 C-23.00591956 46.52056836 -29.34662803 40.65693385 -35.80541992 34.30932617 C-36.41256836 33.74729492 -37.0197168 33.18526367 -37.64526367 32.60620117 C-38.80541992 31.30932617 -38.80541992 31.30932617 -38.80541992 29.30932617 C-39.39838867 29.03862305 -39.99135742 28.76791992 -40.60229492 28.48901367 C-42.77225421 27.32708512 -44.26743024 26.10948155 -46.05541992 24.43432617 C-52.01523284 19.23696267 -57.84025255 16.67537247 -65.80541992 16.30932617 C-66.58916992 16.24616211 -67.37291992 16.18299805 -68.18041992 16.11791992 C-78.01215684 15.64169516 -85.33469071 19.34720715 -92.82104492 25.49291992 C-95.46624265 27.91421312 -97.64398915 30.45065966 -99.80541992 33.30932617 C-101.13287553 29.32695934 -99.82783754 26.95021473 -98.30541992 23.24682617 C-98.03133301 22.57578857 -97.75724609 21.90475098 -97.47485352 21.21337891 C-90.91504274 5.76207983 -79.7848118 -4.64579593 -64.39526367 -10.89379883 C-43.65427122 -17.27564266 -16.89063832 -13.66150831 0 0 Z " fill="#45A8B3" transform="translate(719.805419921875,200.690673828125)"/>
<path d="M0 0 C1.82917969 -0.02416992 1.82917969 -0.02416992 3.6953125 -0.04882812 C10.7289387 -0.05262598 16.53467969 0.50542587 23 3.3125 C24.16144531 3.786875 25.32289063 4.26125 26.51953125 4.75 C34.33654936 8.45914264 40.19873568 12.70155149 46.37890625 18.76171875 C48.94828283 21.35650999 48.94828283 21.35650999 51.83984375 23.51953125 C52.55269531 24.11121094 53.26554688 24.70289063 54 25.3125 C54 25.9725 54 26.6325 54 27.3125 C54.66 27.3125 55.32 27.3125 56 27.3125 C57.16017452 28.47267452 58.31759888 29.63573043 59.4609375 30.8125 C66.65597518 37.82492251 73.8446553 41.37734856 83.9375 41.6875 C95.53206267 41.3059068 104.5612283 36.97432383 112.69140625 28.5625 C114 27.3125 114 27.3125 116 27.3125 C114.2125407 39.37219378 105.61844052 51.97698546 96.3125 59.5625 C84.21626689 67.94414184 72.11127483 70.66873491 57.6875 70.625 C56.63626953 70.64111328 55.58503906 70.65722656 54.50195312 70.67382812 C36.88287422 70.68465731 22.19877349 64.29969278 9.734375 52.08203125 C8.03043658 50.35618505 6.33159048 48.62527763 4.640625 46.88671875 C-5.24381151 36.73939829 -14.38862342 29.15777115 -28.875 28.8125 C-40.41112226 28.88800338 -46.84058459 33.65381818 -54.96875 41.421875 C-57 43.3125 -57 43.3125 -59 44.3125 C-57.60039428 30.84556202 -49.79201214 20.16167741 -40 11.3125 C-36.80169241 8.96148787 -33.56504837 7.04900377 -30 5.3125 C-28.2365625 4.44625 -28.2365625 4.44625 -26.4375 3.5625 C-17.58157691 0.34216433 -9.34713818 -0.02470174 0 0 Z " fill="#4EB2B4" transform="translate(620,258.6875)"/>
<path d="M0 0 C4.29 0 8.58 0 13 0 C13 22.11 13 44.22 13 67 C8.71 67 4.42 67 0 67 C-0.33 65.68 -0.66 64.36 -1 63 C-2.3921875 64.2065625 -2.3921875 64.2065625 -3.8125 65.4375 C-8.30212145 69.32850526 -12.53742348 69.29016558 -18.28125 69.20703125 C-23.5285972 68.80744878 -26.63431731 66.61201088 -30.1875 62.9375 C-36.32142613 55.22581859 -37.05189433 45.5254875 -36 36 C-34.0842684 28.51216737 -30.71745431 22.72008852 -24.4375 18.125 C-18.10938356 16.05398008 -11.60771668 16.01086609 -5.375 18.375 C-3 20 -3 20 -1 22 C-0.67 14.74 -0.34 7.48 0 0 Z " fill="#262B30" transform="translate(735,497)"/>
<path d="M0 0 C5.13264027 3.33807583 9.64686114 8.36478832 11.15625 14.40234375 C11.15625 15.72234375 11.15625 17.04234375 11.15625 18.40234375 C6.53625 18.73234375 1.91625 19.06234375 -2.84375 19.40234375 C-3.46223958 17.64453125 -4.08072917 15.88671875 -4.69921875 14.12890625 C-6.35659391 11.62870208 -7.99591455 11.22414769 -10.84375 10.40234375 C-13.60249271 10.08921138 -13.60249271 10.08921138 -16.40625 10.15234375 C-17.80037109 10.14460938 -17.80037109 10.14460938 -19.22265625 10.13671875 C-21.96239646 10.41436753 -23.58527748 10.83524037 -25.84375 12.40234375 C-27.0153867 15.76994562 -27.0153867 15.76994562 -26.84375 19.40234375 C-24.5336665 23.00634499 -21.95089549 23.78981581 -17.95703125 24.67578125 C-15.06311084 25.24781219 -12.16398509 25.77596677 -9.25976562 26.29296875 C-1.3267702 27.87199715 5.79006672 30.80711619 10.71875 37.52734375 C13.58326678 43.42719711 13.05187194 50.71547792 11.03125 56.77734375 C6.63894127 62.92657598 2.6627966 66.40086952 -4.84375 68.40234375 C-7.98215637 68.81901814 -11.05569242 68.88064095 -14.21875 68.83984375 C-15.05438477 68.83082031 -15.89001953 68.82179688 -16.75097656 68.8125 C-24.1986997 68.60360399 -30.2300322 67.65604831 -35.921875 62.53125 C-41.55487141 56.47463394 -42.84375 52.86011786 -42.84375 44.40234375 C-38.22375 44.40234375 -33.60375 44.40234375 -28.84375 44.40234375 C-28.22526042 46.38802083 -27.60677083 48.37369792 -26.98828125 50.359375 C-25.39233666 53.20810885 -23.80674721 54.06568439 -20.84375 55.40234375 C-17.63082686 55.87411439 -17.63082686 55.87411439 -14.28125 55.77734375 C-13.16621094 55.78507813 -12.05117188 55.7928125 -10.90234375 55.80078125 C-7.55815493 55.36513979 -6.15419532 54.83410124 -3.84375 52.40234375 C-3.04406215 48.27015863 -3.04406215 48.27015863 -3.84375 44.40234375 C-8.12731345 40.77375942 -12.16627729 39.69417866 -17.59375 38.96484375 C-25.69667909 37.6458055 -33.23090399 35.6885359 -38.90625 29.33984375 C-42.54481482 23.82330998 -42.49274124 17.86403914 -41.84375 11.40234375 C-39.40383409 6.01419612 -34.94898381 2.28980137 -29.84375 -0.59765625 C-20.35900811 -3.89377223 -9.23062898 -4.32301124 0 0 Z " fill="#292E33" transform="translate(949.84375,497.59765625)"/>
<path d="M0 0 C3.94104021 2.91714251 5.61904291 6.2792099 7.09375 10.8671875 C7.28125 13.8046875 7.28125 13.8046875 7.09375 15.8671875 C2.68460217 16.96947446 -1.39007401 16.94373286 -5.90625 16.8671875 C-6.298125 15.9390625 -6.69 15.0109375 -7.09375 14.0546875 C-9.11769516 10.49533566 -10.27303926 9.60681807 -13.90625 7.8671875 C-16.88947164 7.39654411 -16.88947164 7.39654411 -19.96875 7.4921875 C-21.50208984 7.48058594 -21.50208984 7.48058594 -23.06640625 7.46875 C-26.26518718 7.91754732 -27.65936544 8.56731038 -29.90625 10.8671875 C-30.55632401 15.46628974 -30.55632401 15.46628974 -28.66674805 19.50805664 C-26.54428471 21.14663012 -24.92113225 21.57093376 -22.30078125 22.11328125 C-21.39908203 22.31115234 -20.49738281 22.50902344 -19.56835938 22.71289062 C-18.62798828 22.90818359 -17.68761719 23.10347656 -16.71875 23.3046875 C-6.86314052 25.3530542 1.10848622 27.3427209 7.09375 35.8671875 C8.96516212 41.48142387 9.17141851 48.46433203 7.375 54.13671875 C4.17944545 60.05107172 -0.62403742 63.40959426 -6.91796875 65.32421875 C-16.7606785 67.11263268 -28.35487965 67.68211934 -36.90625 61.8671875 C-37.77636719 61.30644531 -37.77636719 61.30644531 -38.6640625 60.734375 C-43.2896246 57.3601727 -45.30929097 53.20313503 -46.3046875 47.640625 C-46.55552521 45.72205545 -46.7371714 43.79468357 -46.90625 41.8671875 C-42.28625 41.8671875 -37.66625 41.8671875 -32.90625 41.8671875 C-31.99479167 44.14583333 -31.08333333 46.42447917 -30.171875 48.703125 C-28.63692616 51.32769802 -27.7891859 51.94763036 -24.90625 52.8671875 C-21.76332796 53.1463561 -21.76332796 53.1463561 -18.40625 53.0546875 C-17.2821875 53.04824219 -16.158125 53.04179688 -15 53.03515625 C-12.45061746 52.8967428 -10.3325318 52.61053364 -7.90625 51.8671875 C-7.62876758 50.45564651 -7.38531484 49.03738951 -7.15625 47.6171875 C-7.01703125 46.82828125 -6.8778125 46.039375 -6.734375 45.2265625 C-6.7308804 42.78553421 -6.7308804 42.78553421 -8.21875 40.72265625 C-13.04860418 37.38809122 -18.88911897 36.94205067 -24.578125 35.88867188 C-31.26200547 34.54009001 -37.93380848 32.78538119 -42.24291992 27.10522461 C-45.59603838 21.43043043 -46.90702505 16.33675065 -45.4453125 9.80859375 C-43.50509455 3.77109201 -40.20637734 0.72085019 -34.78515625 -2.32421875 C-23.44104158 -7.67029578 -10.65039151 -6.3291261 0 0 Z " fill="#292E33" transform="translate(891.90625,500.1328125)"/>
<path d="M0 0 C4.62 0 9.24 0 14 0 C14.82164109 3.1228425 15.63243305 6.24788044 16.4375 9.375 C16.66759766 10.24511719 16.89769531 11.11523438 17.13476562 12.01171875 C18.66453991 17.99779202 19.56291951 23.83774561 20 30 C20.66 30 21.32 30 22 30 C22.309375 28.1128125 22.309375 28.1128125 22.625 26.1875 C23.72173713 20.64777669 25.36466773 15.3159793 27.0625 9.9375 C27.3320752 9.07987061 27.60165039 8.22224121 27.87939453 7.33862305 C29.86866163 1.13133837 29.86866163 1.13133837 31 0 C32.85287502 -0.07226502 34.70833878 -0.0838122 36.5625 -0.0625 C37.57441406 -0.05347656 38.58632813 -0.04445313 39.62890625 -0.03515625 C40.41136719 -0.02355469 41.19382812 -0.01195312 42 0 C43.44346025 3.4413493 44.56729736 6.83908757 45.5078125 10.44921875 C45.90419922 11.96805664 45.90419922 11.96805664 46.30859375 13.51757812 C46.57800781 14.56365234 46.84742188 15.60972656 47.125 16.6875 C47.40214844 17.74517578 47.67929687 18.80285156 47.96484375 19.89257812 C50 27.73745382 50 27.73745382 50 30 C50.66 30 51.32 30 52 30 C52.10957031 29.23558594 52.21914063 28.47117187 52.33203125 27.68359375 C55.76923077 4.46153846 55.76923077 4.46153846 58 0 C62.62 0 67.24 0 72 0 C69.95259317 7.57540527 67.84744297 15.13142741 65.67138672 22.67089844 C65.16385331 24.43157798 64.65795309 26.19272842 64.15283203 27.95410156 C63.20947856 31.24123033 62.26138108 34.526963 61.3125 37.8125 C61.00280273 38.89362061 60.69310547 39.97474121 60.37402344 41.08862305 C60.08172852 42.09707275 59.78943359 43.10552246 59.48828125 44.14453125 C59.22571533 45.05565674 58.96314941 45.96678223 58.69262695 46.90551758 C58 49 58 49 57 50 C54.98035801 50.07244053 52.95832876 50.08377188 50.9375 50.0625 C49.28041016 50.04896484 49.28041016 50.04896484 47.58984375 50.03515625 C46.73519531 50.02355469 45.88054688 50.01195312 45 50 C42.00721601 43.73582451 40.43084475 37.29561332 38.8125 30.5625 C38.53986328 29.44939453 38.26722656 28.33628906 37.98632812 27.18945312 C37.31882795 24.46089976 36.65688505 21.73112468 36 19 C32.76927829 29.27383741 29.84431855 39.61357449 27 50 C22.71 50 18.42 50 14 50 C10.31530456 38.72788435 6.74908037 27.44201717 3.625 16 C3.24964111 14.63174072 3.24964111 14.63174072 2.86669922 13.23583984 C1.67248205 8.79839774 0.76008271 4.56049628 0 0 Z " fill="#2B3035" transform="translate(543,515)"/>
<path d="M0 0 C6.8571506 5.54138739 9.36966932 10.91332844 10.8046875 19.5234375 C6.1846875 19.8534375 1.5646875 20.1834375 -3.1953125 20.5234375 C-4.39973958 18.24479167 -5.60416667 15.96614583 -6.80859375 13.6875 C-8.16309974 11.25509707 -8.16309974 11.25509707 -11.1953125 9.5234375 C-15.82711565 8.88848613 -20.87084692 8.47382417 -25.2109375 10.43359375 C-29.13023181 13.5116254 -31.8161644 17.69518013 -32.48168945 22.65966797 C-32.59834639 25.07972765 -32.6045931 27.47594172 -32.5703125 29.8984375 C-32.58191406 30.71054687 -32.59351563 31.52265625 -32.60546875 32.359375 C-32.5718557 39.35088988 -31.34523419 44.99727951 -26.6953125 50.4609375 C-23.01515444 53.4970679 -19.97658446 53.83542102 -15.2578125 53.72265625 C-11.8326293 53.39181469 -9.93469549 52.62575468 -7.1953125 50.5234375 C-5.7950516 47.54325959 -5.03344755 44.73628851 -4.1953125 41.5234375 C1.0846875 41.5234375 6.3646875 41.5234375 11.8046875 41.5234375 C10.29079242 50.60680796 8.37908239 56.82460706 0.8046875 62.5234375 C-7.19506948 67.61146305 -17.02799941 67.75648137 -26.1953125 66.5234375 C-34.03775865 64.42404394 -39.8374757 59.27105576 -44.1953125 52.5234375 C-49.3258854 41.85648368 -50.04090336 28.4611017 -47.0703125 17.0234375 C-43.78737381 8.08654886 -38.73600134 1.83765532 -30.1953125 -2.4765625 C-20.63596023 -6.40272504 -8.60971221 -5.79087405 0 0 Z " fill="#292E33" transform="translate(827.1953125,499.4765625)"/>
<path d="M0 0 C0.79994385 0.00354492 1.5998877 0.00708984 2.42407227 0.01074219 C9.84606546 0.220476 13.93773069 2.20991555 19.0625 7.5 C21.64174025 12.35504048 21.25797224 17.72078853 21.22265625 23.08203125 C21.2212413 23.89621017 21.21982635 24.7103891 21.21836853 25.54924011 C21.21279317 28.13703156 21.20024524 30.72473492 21.1875 33.3125 C21.18248181 35.07226437 21.17791946 36.83203011 21.17382812 38.59179688 C21.16283181 42.89456494 21.14558421 47.19726756 21.125 51.5 C17.165 51.5 13.205 51.5 9.125 51.5 C9.125 49.52 9.125 47.54 9.125 45.5 C8.49851562 45.92152344 7.87203125 46.34304688 7.2265625 46.77734375 C6.40929687 47.32519531 5.59203125 47.87304688 4.75 48.4375 C3.93789063 48.98277344 3.12578125 49.52804687 2.2890625 50.08984375 C-2.58073108 53.26312079 -7.16971505 53.17663757 -12.875 52.5 C-17.29964519 50.8281471 -20.10458129 48.55932572 -22.875 44.75 C-24.60868555 39.11552196 -24.85496509 34.577526 -22.3125 29.1875 C-17.60307183 23.99505355 -11.79684549 21.37932239 -4.875 20.5 C-0.53560792 20.35036579 3.78522372 20.38092077 8.125 20.5 C7.86106499 17.06769552 7.86106499 17.06769552 7.125 13.5 C3.92754858 11.36836572 2.83742084 11.18024436 -0.875 11.125 C-1.74125 11.09664062 -2.6075 11.06828125 -3.5 11.0390625 C-6.04444942 11.24943582 -6.04444942 11.24943582 -7.30078125 13.5078125 C-8.875 15.5 -8.875 15.5 -11.79296875 15.890625 C-12.87191406 15.84421875 -13.95085937 15.7978125 -15.0625 15.75 C-16.14917969 15.71390625 -17.23585938 15.6778125 -18.35546875 15.640625 C-19.18691406 15.59421875 -20.01835937 15.5478125 -20.875 15.5 C-20.48515648 10.04219073 -18.71960059 7.34460059 -14.875 3.5 C-9.88358607 0.3682783 -5.72783536 -0.04519002 0 0 Z " fill="#2A2E33" transform="translate(466.875,513.5)"/>
<path d="M0 0 C18.15 0 36.3 0 55 0 C55 3.96 55 7.92 55 12 C48.4 12 41.8 12 35 12 C35.00523682 13.66087646 35.01047363 15.32175293 35.01586914 17.03295898 C35.03391058 23.16983506 35.04542886 29.30670877 35.05493164 35.44360352 C35.05997383 38.10441481 35.06680736 40.76522332 35.07543945 43.42602539 C35.08751009 47.24105516 35.09322929 51.05604844 35.09765625 54.87109375 C35.10281754 56.06899033 35.10797882 57.2668869 35.11329651 58.50108337 C35.11337204 59.6021492 35.11344757 60.70321503 35.11352539 61.83764648 C35.115746 62.81249496 35.11796661 63.78734344 35.12025452 64.79173279 C35 67 35 67 34 68 C29.38 68 24.76 68 20 68 C20 49.52 20 31.04 20 12 C13.4 12 6.8 12 0 12 C0 8.04 0 4.08 0 0 Z " fill="#2B3035" transform="translate(394,497)"/>
<path d="M0 0 C4.13573726 2.92527758 6.60257679 5.82619472 7.5625 10.8125 C7.64628506 13.72209378 7.67867895 16.60671241 7.66015625 19.515625 C7.6587413 20.35341492 7.65732635 21.19120483 7.65586853 22.05438232 C7.65028197 24.72379157 7.63773194 27.3931162 7.625 30.0625 C7.61998326 31.87499879 7.61542066 33.68749889 7.61132812 35.5 C7.60031694 39.93753248 7.58306155 44.37500191 7.5625 48.8125 C3.2725 48.8125 -1.0175 48.8125 -5.4375 48.8125 C-5.45208252 47.76795654 -5.46666504 46.72341309 -5.48168945 45.6472168 C-5.53965551 41.77235655 -5.61688774 37.89807849 -5.69995117 34.02368164 C-5.73320863 32.34669441 -5.76123808 30.66959503 -5.78393555 28.99243164 C-5.81746737 26.58170775 -5.86977978 24.17201238 -5.92578125 21.76171875 C-5.93217117 21.01162033 -5.9385611 20.26152191 -5.94514465 19.48869324 C-6.05657018 15.4464821 -6.05657018 15.4464821 -7.72729492 11.84692383 C-10.13354744 10.39149315 -12.5420432 10.34875679 -15.3046875 10.21875 C-18.74384826 11.17617204 -20.20727455 13.07592868 -22.4375 15.8125 C-22.94472152 18.64982319 -23.16004511 20.90623781 -23.14453125 23.73828125 C-23.15965256 24.48587204 -23.17477386 25.23346283 -23.19035339 26.00370789 C-23.23314081 28.37778087 -23.2420588 30.75058031 -23.25 33.125 C-23.27315158 34.74026802 -23.29851831 36.35550591 -23.32617188 37.97070312 C-23.38893457 41.91808086 -23.42133984 45.86466754 -23.4375 49.8125 C-28.0575 49.8125 -32.6775 49.8125 -37.4375 49.8125 C-37.4375 33.3125 -37.4375 16.8125 -37.4375 -0.1875 C-33.1475 -0.1875 -28.8575 -0.1875 -24.4375 -0.1875 C-24.1075 1.7925 -23.7775 3.7725 -23.4375 5.8125 C-22.695 5.02875 -21.9525 4.245 -21.1875 3.4375 C-15.11753716 -2.35655544 -7.82741635 -2.70401656 0 0 Z " fill="#292E32" transform="translate(682.4375,515.1875)"/>
<path d="M0 0 C4.29 0 8.58 0 13 0 C13 22.44 13 44.88 13 68 C8.71 68 4.42 68 0 68 C0 45.56 0 23.12 0 0 Z " fill="#292E33" transform="translate(524,497)"/>
<path d="M0 0 C4.29 0 8.58 0 13 0 C13 16.5 13 33 13 50 C8.71 50 4.42 50 0 50 C0 33.5 0 17 0 0 Z " fill="#272C31" transform="translate(621,515)"/>
<path d="M0 0 C4.29 0 8.58 0 13 0 C13 16.5 13 33 13 50 C8.71 50 4.42 50 0 50 C0 33.5 0 17 0 0 Z " fill="#272C31" transform="translate(499,515)"/>
<path d="M0 0 C3.96451433 2.13473849 6.43039829 3.76135205 8 8 C8.30078125 11.2421875 8.30078125 11.2421875 8.3125 14.875 C8.32925781 16.06867187 8.34601562 17.26234375 8.36328125 18.4921875 C7.88806896 23.08079653 6.39216834 26.39365192 3.375 29.875 C-0.38510216 31.65610102 -3.93862784 31.91217984 -8 31 C-11.16259457 28.63363512 -12.75470906 25.73587281 -14 22 C-14.94259819 9.43806647 -14.94259819 9.43806647 -11 4 C-7.44658496 0.35054671 -5.08370048 -0.82999191 0 0 Z " fill="#FAFAFA" transform="translate(727,524)"/>
<path d="M0 0 C1.74216797 0.04060547 1.74216797 0.04060547 3.51953125 0.08203125 C4.39996094 0.11683594 5.28039062 0.15164063 6.1875 0.1875 C6.47038944 5.65414719 6.47038944 5.65414719 5.19921875 8.05078125 C1.71754582 11.86110768 -0.1036921 13.09595672 -5.3125 13.375 C-8.8125 13.1875 -8.8125 13.1875 -11.8125 11.1875 C-12.52695358 5.56117803 -12.52695358 5.56117803 -11.8125 3.1875 C-7.98378172 0.01939545 -4.85700296 -0.14718191 0 0 Z " fill="#F7F7F7" transform="translate(468.8125,542.8125)"/>
<path d="M0 0 C4.29 0 8.58 0 13 0 C13 3.96 13 7.92 13 12 C8.71 12 4.42 12 0 12 C0 8.04 0 4.08 0 0 Z " fill="#24292E" transform="translate(621,497)"/>
<path d="M0 0 C4.29 0 8.58 0 13 0 C13 3.96 13 7.92 13 12 C8.71 12 4.42 12 0 12 C0 8.04 0 4.08 0 0 Z " fill="#24292E" transform="translate(499,497)"/>
</svg>
